%TF.GenerationSoftware,KiCad,Pcbnew,(5.1.9)-1*%
%TF.CreationDate,2021-11-26T10:49:09-06:00*%
%TF.ProjectId,Tri-Color-Panel,5472692d-436f-46c6-9f72-2d50616e656c,rev?*%
%TF.SameCoordinates,Original*%
%TF.FileFunction,Copper,L1,Top*%
%TF.FilePolarity,Positive*%
%FSLAX46Y46*%
G04 Gerber Fmt 4.6, Leading zero omitted, Abs format (unit mm)*
G04 Created by KiCad (PCBNEW (5.1.9)-1) date 2021-11-26 10:49:09*
%MOMM*%
%LPD*%
G01*
G04 APERTURE LIST*
%TA.AperFunction,ViaPad*%
%ADD10C,0.800000*%
%TD*%
%TA.AperFunction,Conductor*%
%ADD11C,1.016000*%
%TD*%
%TA.AperFunction,Conductor*%
%ADD12C,0.254000*%
%TD*%
%TA.AperFunction,Conductor*%
%ADD13C,0.100000*%
%TD*%
G04 APERTURE END LIST*
%TO.P,D1,2*%
%TO.N,Net-(D1-Pad2)*%
%TA.AperFunction,SMDPad,CuDef*%
G36*
G01*
X91462500Y-78600000D02*
X89312500Y-78600000D01*
G75*
G02*
X89062500Y-78350000I0J250000D01*
G01*
X89062500Y-77425000D01*
G75*
G02*
X89312500Y-77175000I250000J0D01*
G01*
X91462500Y-77175000D01*
G75*
G02*
X91712500Y-77425000I0J-250000D01*
G01*
X91712500Y-78350000D01*
G75*
G02*
X91462500Y-78600000I-250000J0D01*
G01*
G37*
%TD.AperFunction*%
%TO.P,D1,1*%
%TO.N,Net-(D1-Pad1)*%
%TA.AperFunction,SMDPad,CuDef*%
G36*
G01*
X91462500Y-81575000D02*
X89312500Y-81575000D01*
G75*
G02*
X89062500Y-81325000I0J250000D01*
G01*
X89062500Y-80400000D01*
G75*
G02*
X89312500Y-80150000I250000J0D01*
G01*
X91462500Y-80150000D01*
G75*
G02*
X91712500Y-80400000I0J-250000D01*
G01*
X91712500Y-81325000D01*
G75*
G02*
X91462500Y-81575000I-250000J0D01*
G01*
G37*
%TD.AperFunction*%
%TD*%
%TO.P,D2,2*%
%TO.N,Net-(D1-Pad1)*%
%TA.AperFunction,SMDPad,CuDef*%
G36*
G01*
X107337500Y-78600000D02*
X105187500Y-78600000D01*
G75*
G02*
X104937500Y-78350000I0J250000D01*
G01*
X104937500Y-77425000D01*
G75*
G02*
X105187500Y-77175000I250000J0D01*
G01*
X107337500Y-77175000D01*
G75*
G02*
X107587500Y-77425000I0J-250000D01*
G01*
X107587500Y-78350000D01*
G75*
G02*
X107337500Y-78600000I-250000J0D01*
G01*
G37*
%TD.AperFunction*%
%TO.P,D2,1*%
%TO.N,Net-(D2-Pad1)*%
%TA.AperFunction,SMDPad,CuDef*%
G36*
G01*
X107337500Y-81575000D02*
X105187500Y-81575000D01*
G75*
G02*
X104937500Y-81325000I0J250000D01*
G01*
X104937500Y-80400000D01*
G75*
G02*
X105187500Y-80150000I250000J0D01*
G01*
X107337500Y-80150000D01*
G75*
G02*
X107587500Y-80400000I0J-250000D01*
G01*
X107587500Y-81325000D01*
G75*
G02*
X107337500Y-81575000I-250000J0D01*
G01*
G37*
%TD.AperFunction*%
%TD*%
%TO.P,D3,1*%
%TO.N,Net-(D3-Pad1)*%
%TA.AperFunction,SMDPad,CuDef*%
G36*
G01*
X123212500Y-81575000D02*
X121062500Y-81575000D01*
G75*
G02*
X120812500Y-81325000I0J250000D01*
G01*
X120812500Y-80400000D01*
G75*
G02*
X121062500Y-80150000I250000J0D01*
G01*
X123212500Y-80150000D01*
G75*
G02*
X123462500Y-80400000I0J-250000D01*
G01*
X123462500Y-81325000D01*
G75*
G02*
X123212500Y-81575000I-250000J0D01*
G01*
G37*
%TD.AperFunction*%
%TO.P,D3,2*%
%TO.N,Net-(D2-Pad1)*%
%TA.AperFunction,SMDPad,CuDef*%
G36*
G01*
X123212500Y-78600000D02*
X121062500Y-78600000D01*
G75*
G02*
X120812500Y-78350000I0J250000D01*
G01*
X120812500Y-77425000D01*
G75*
G02*
X121062500Y-77175000I250000J0D01*
G01*
X123212500Y-77175000D01*
G75*
G02*
X123462500Y-77425000I0J-250000D01*
G01*
X123462500Y-78350000D01*
G75*
G02*
X123212500Y-78600000I-250000J0D01*
G01*
G37*
%TD.AperFunction*%
%TD*%
%TO.P,D4,2*%
%TO.N,Net-(D3-Pad1)*%
%TA.AperFunction,SMDPad,CuDef*%
G36*
G01*
X139087500Y-78600000D02*
X136937500Y-78600000D01*
G75*
G02*
X136687500Y-78350000I0J250000D01*
G01*
X136687500Y-77425000D01*
G75*
G02*
X136937500Y-77175000I250000J0D01*
G01*
X139087500Y-77175000D01*
G75*
G02*
X139337500Y-77425000I0J-250000D01*
G01*
X139337500Y-78350000D01*
G75*
G02*
X139087500Y-78600000I-250000J0D01*
G01*
G37*
%TD.AperFunction*%
%TO.P,D4,1*%
%TO.N,Net-(D4-Pad1)*%
%TA.AperFunction,SMDPad,CuDef*%
G36*
G01*
X139087500Y-81575000D02*
X136937500Y-81575000D01*
G75*
G02*
X136687500Y-81325000I0J250000D01*
G01*
X136687500Y-80400000D01*
G75*
G02*
X136937500Y-80150000I250000J0D01*
G01*
X139087500Y-80150000D01*
G75*
G02*
X139337500Y-80400000I0J-250000D01*
G01*
X139337500Y-81325000D01*
G75*
G02*
X139087500Y-81575000I-250000J0D01*
G01*
G37*
%TD.AperFunction*%
%TD*%
%TO.P,D5,1*%
%TO.N,Net-(D5-Pad1)*%
%TA.AperFunction,SMDPad,CuDef*%
G36*
G01*
X154962500Y-81575000D02*
X152812500Y-81575000D01*
G75*
G02*
X152562500Y-81325000I0J250000D01*
G01*
X152562500Y-80400000D01*
G75*
G02*
X152812500Y-80150000I250000J0D01*
G01*
X154962500Y-80150000D01*
G75*
G02*
X155212500Y-80400000I0J-250000D01*
G01*
X155212500Y-81325000D01*
G75*
G02*
X154962500Y-81575000I-250000J0D01*
G01*
G37*
%TD.AperFunction*%
%TO.P,D5,2*%
%TO.N,Net-(D4-Pad1)*%
%TA.AperFunction,SMDPad,CuDef*%
G36*
G01*
X154962500Y-78600000D02*
X152812500Y-78600000D01*
G75*
G02*
X152562500Y-78350000I0J250000D01*
G01*
X152562500Y-77425000D01*
G75*
G02*
X152812500Y-77175000I250000J0D01*
G01*
X154962500Y-77175000D01*
G75*
G02*
X155212500Y-77425000I0J-250000D01*
G01*
X155212500Y-78350000D01*
G75*
G02*
X154962500Y-78600000I-250000J0D01*
G01*
G37*
%TD.AperFunction*%
%TD*%
%TO.P,D6,2*%
%TO.N,Net-(D5-Pad1)*%
%TA.AperFunction,SMDPad,CuDef*%
G36*
G01*
X170837500Y-78600000D02*
X168687500Y-78600000D01*
G75*
G02*
X168437500Y-78350000I0J250000D01*
G01*
X168437500Y-77425000D01*
G75*
G02*
X168687500Y-77175000I250000J0D01*
G01*
X170837500Y-77175000D01*
G75*
G02*
X171087500Y-77425000I0J-250000D01*
G01*
X171087500Y-78350000D01*
G75*
G02*
X170837500Y-78600000I-250000J0D01*
G01*
G37*
%TD.AperFunction*%
%TO.P,D6,1*%
%TO.N,Net-(D6-Pad1)*%
%TA.AperFunction,SMDPad,CuDef*%
G36*
G01*
X170837500Y-81575000D02*
X168687500Y-81575000D01*
G75*
G02*
X168437500Y-81325000I0J250000D01*
G01*
X168437500Y-80400000D01*
G75*
G02*
X168687500Y-80150000I250000J0D01*
G01*
X170837500Y-80150000D01*
G75*
G02*
X171087500Y-80400000I0J-250000D01*
G01*
X171087500Y-81325000D01*
G75*
G02*
X170837500Y-81575000I-250000J0D01*
G01*
G37*
%TD.AperFunction*%
%TD*%
%TO.P,D7,1*%
%TO.N,Net-(D7-Pad1)*%
%TA.AperFunction,SMDPad,CuDef*%
G36*
G01*
X186712500Y-81575000D02*
X184562500Y-81575000D01*
G75*
G02*
X184312500Y-81325000I0J250000D01*
G01*
X184312500Y-80400000D01*
G75*
G02*
X184562500Y-80150000I250000J0D01*
G01*
X186712500Y-80150000D01*
G75*
G02*
X186962500Y-80400000I0J-250000D01*
G01*
X186962500Y-81325000D01*
G75*
G02*
X186712500Y-81575000I-250000J0D01*
G01*
G37*
%TD.AperFunction*%
%TO.P,D7,2*%
%TO.N,Net-(D6-Pad1)*%
%TA.AperFunction,SMDPad,CuDef*%
G36*
G01*
X186712500Y-78600000D02*
X184562500Y-78600000D01*
G75*
G02*
X184312500Y-78350000I0J250000D01*
G01*
X184312500Y-77425000D01*
G75*
G02*
X184562500Y-77175000I250000J0D01*
G01*
X186712500Y-77175000D01*
G75*
G02*
X186962500Y-77425000I0J-250000D01*
G01*
X186962500Y-78350000D01*
G75*
G02*
X186712500Y-78600000I-250000J0D01*
G01*
G37*
%TD.AperFunction*%
%TD*%
%TO.P,D8,2*%
%TO.N,Net-(D7-Pad1)*%
%TA.AperFunction,SMDPad,CuDef*%
G36*
G01*
X202587500Y-78600000D02*
X200437500Y-78600000D01*
G75*
G02*
X200187500Y-78350000I0J250000D01*
G01*
X200187500Y-77425000D01*
G75*
G02*
X200437500Y-77175000I250000J0D01*
G01*
X202587500Y-77175000D01*
G75*
G02*
X202837500Y-77425000I0J-250000D01*
G01*
X202837500Y-78350000D01*
G75*
G02*
X202587500Y-78600000I-250000J0D01*
G01*
G37*
%TD.AperFunction*%
%TO.P,D8,1*%
%TO.N,Net-(D16-Pad1)*%
%TA.AperFunction,SMDPad,CuDef*%
G36*
G01*
X202587500Y-81575000D02*
X200437500Y-81575000D01*
G75*
G02*
X200187500Y-81325000I0J250000D01*
G01*
X200187500Y-80400000D01*
G75*
G02*
X200437500Y-80150000I250000J0D01*
G01*
X202587500Y-80150000D01*
G75*
G02*
X202837500Y-80400000I0J-250000D01*
G01*
X202837500Y-81325000D01*
G75*
G02*
X202587500Y-81575000I-250000J0D01*
G01*
G37*
%TD.AperFunction*%
%TD*%
%TO.P,D9,2*%
%TO.N,Net-(D9-Pad2)*%
%TA.AperFunction,SMDPad,CuDef*%
G36*
G01*
X91462500Y-97650000D02*
X89312500Y-97650000D01*
G75*
G02*
X89062500Y-97400000I0J250000D01*
G01*
X89062500Y-96475000D01*
G75*
G02*
X89312500Y-96225000I250000J0D01*
G01*
X91462500Y-96225000D01*
G75*
G02*
X91712500Y-96475000I0J-250000D01*
G01*
X91712500Y-97400000D01*
G75*
G02*
X91462500Y-97650000I-250000J0D01*
G01*
G37*
%TD.AperFunction*%
%TO.P,D9,1*%
%TO.N,Net-(D10-Pad2)*%
%TA.AperFunction,SMDPad,CuDef*%
G36*
G01*
X91462500Y-100625000D02*
X89312500Y-100625000D01*
G75*
G02*
X89062500Y-100375000I0J250000D01*
G01*
X89062500Y-99450000D01*
G75*
G02*
X89312500Y-99200000I250000J0D01*
G01*
X91462500Y-99200000D01*
G75*
G02*
X91712500Y-99450000I0J-250000D01*
G01*
X91712500Y-100375000D01*
G75*
G02*
X91462500Y-100625000I-250000J0D01*
G01*
G37*
%TD.AperFunction*%
%TD*%
%TO.P,D10,1*%
%TO.N,Net-(D10-Pad1)*%
%TA.AperFunction,SMDPad,CuDef*%
G36*
G01*
X107337500Y-100625000D02*
X105187500Y-100625000D01*
G75*
G02*
X104937500Y-100375000I0J250000D01*
G01*
X104937500Y-99450000D01*
G75*
G02*
X105187500Y-99200000I250000J0D01*
G01*
X107337500Y-99200000D01*
G75*
G02*
X107587500Y-99450000I0J-250000D01*
G01*
X107587500Y-100375000D01*
G75*
G02*
X107337500Y-100625000I-250000J0D01*
G01*
G37*
%TD.AperFunction*%
%TO.P,D10,2*%
%TO.N,Net-(D10-Pad2)*%
%TA.AperFunction,SMDPad,CuDef*%
G36*
G01*
X107337500Y-97650000D02*
X105187500Y-97650000D01*
G75*
G02*
X104937500Y-97400000I0J250000D01*
G01*
X104937500Y-96475000D01*
G75*
G02*
X105187500Y-96225000I250000J0D01*
G01*
X107337500Y-96225000D01*
G75*
G02*
X107587500Y-96475000I0J-250000D01*
G01*
X107587500Y-97400000D01*
G75*
G02*
X107337500Y-97650000I-250000J0D01*
G01*
G37*
%TD.AperFunction*%
%TD*%
%TO.P,D11,2*%
%TO.N,Net-(D10-Pad1)*%
%TA.AperFunction,SMDPad,CuDef*%
G36*
G01*
X123212500Y-97650000D02*
X121062500Y-97650000D01*
G75*
G02*
X120812500Y-97400000I0J250000D01*
G01*
X120812500Y-96475000D01*
G75*
G02*
X121062500Y-96225000I250000J0D01*
G01*
X123212500Y-96225000D01*
G75*
G02*
X123462500Y-96475000I0J-250000D01*
G01*
X123462500Y-97400000D01*
G75*
G02*
X123212500Y-97650000I-250000J0D01*
G01*
G37*
%TD.AperFunction*%
%TO.P,D11,1*%
%TO.N,Net-(D11-Pad1)*%
%TA.AperFunction,SMDPad,CuDef*%
G36*
G01*
X123212500Y-100625000D02*
X121062500Y-100625000D01*
G75*
G02*
X120812500Y-100375000I0J250000D01*
G01*
X120812500Y-99450000D01*
G75*
G02*
X121062500Y-99200000I250000J0D01*
G01*
X123212500Y-99200000D01*
G75*
G02*
X123462500Y-99450000I0J-250000D01*
G01*
X123462500Y-100375000D01*
G75*
G02*
X123212500Y-100625000I-250000J0D01*
G01*
G37*
%TD.AperFunction*%
%TD*%
%TO.P,D12,2*%
%TO.N,Net-(D11-Pad1)*%
%TA.AperFunction,SMDPad,CuDef*%
G36*
G01*
X139087500Y-97650000D02*
X136937500Y-97650000D01*
G75*
G02*
X136687500Y-97400000I0J250000D01*
G01*
X136687500Y-96475000D01*
G75*
G02*
X136937500Y-96225000I250000J0D01*
G01*
X139087500Y-96225000D01*
G75*
G02*
X139337500Y-96475000I0J-250000D01*
G01*
X139337500Y-97400000D01*
G75*
G02*
X139087500Y-97650000I-250000J0D01*
G01*
G37*
%TD.AperFunction*%
%TO.P,D12,1*%
%TO.N,Net-(D12-Pad1)*%
%TA.AperFunction,SMDPad,CuDef*%
G36*
G01*
X139087500Y-100625000D02*
X136937500Y-100625000D01*
G75*
G02*
X136687500Y-100375000I0J250000D01*
G01*
X136687500Y-99450000D01*
G75*
G02*
X136937500Y-99200000I250000J0D01*
G01*
X139087500Y-99200000D01*
G75*
G02*
X139337500Y-99450000I0J-250000D01*
G01*
X139337500Y-100375000D01*
G75*
G02*
X139087500Y-100625000I-250000J0D01*
G01*
G37*
%TD.AperFunction*%
%TD*%
%TO.P,D13,1*%
%TO.N,Net-(D13-Pad1)*%
%TA.AperFunction,SMDPad,CuDef*%
G36*
G01*
X154962500Y-100625000D02*
X152812500Y-100625000D01*
G75*
G02*
X152562500Y-100375000I0J250000D01*
G01*
X152562500Y-99450000D01*
G75*
G02*
X152812500Y-99200000I250000J0D01*
G01*
X154962500Y-99200000D01*
G75*
G02*
X155212500Y-99450000I0J-250000D01*
G01*
X155212500Y-100375000D01*
G75*
G02*
X154962500Y-100625000I-250000J0D01*
G01*
G37*
%TD.AperFunction*%
%TO.P,D13,2*%
%TO.N,Net-(D12-Pad1)*%
%TA.AperFunction,SMDPad,CuDef*%
G36*
G01*
X154962500Y-97650000D02*
X152812500Y-97650000D01*
G75*
G02*
X152562500Y-97400000I0J250000D01*
G01*
X152562500Y-96475000D01*
G75*
G02*
X152812500Y-96225000I250000J0D01*
G01*
X154962500Y-96225000D01*
G75*
G02*
X155212500Y-96475000I0J-250000D01*
G01*
X155212500Y-97400000D01*
G75*
G02*
X154962500Y-97650000I-250000J0D01*
G01*
G37*
%TD.AperFunction*%
%TD*%
%TO.P,D14,1*%
%TO.N,Net-(D14-Pad1)*%
%TA.AperFunction,SMDPad,CuDef*%
G36*
G01*
X170837500Y-100625000D02*
X168687500Y-100625000D01*
G75*
G02*
X168437500Y-100375000I0J250000D01*
G01*
X168437500Y-99450000D01*
G75*
G02*
X168687500Y-99200000I250000J0D01*
G01*
X170837500Y-99200000D01*
G75*
G02*
X171087500Y-99450000I0J-250000D01*
G01*
X171087500Y-100375000D01*
G75*
G02*
X170837500Y-100625000I-250000J0D01*
G01*
G37*
%TD.AperFunction*%
%TO.P,D14,2*%
%TO.N,Net-(D13-Pad1)*%
%TA.AperFunction,SMDPad,CuDef*%
G36*
G01*
X170837500Y-97650000D02*
X168687500Y-97650000D01*
G75*
G02*
X168437500Y-97400000I0J250000D01*
G01*
X168437500Y-96475000D01*
G75*
G02*
X168687500Y-96225000I250000J0D01*
G01*
X170837500Y-96225000D01*
G75*
G02*
X171087500Y-96475000I0J-250000D01*
G01*
X171087500Y-97400000D01*
G75*
G02*
X170837500Y-97650000I-250000J0D01*
G01*
G37*
%TD.AperFunction*%
%TD*%
%TO.P,D15,2*%
%TO.N,Net-(D14-Pad1)*%
%TA.AperFunction,SMDPad,CuDef*%
G36*
G01*
X186712500Y-97650000D02*
X184562500Y-97650000D01*
G75*
G02*
X184312500Y-97400000I0J250000D01*
G01*
X184312500Y-96475000D01*
G75*
G02*
X184562500Y-96225000I250000J0D01*
G01*
X186712500Y-96225000D01*
G75*
G02*
X186962500Y-96475000I0J-250000D01*
G01*
X186962500Y-97400000D01*
G75*
G02*
X186712500Y-97650000I-250000J0D01*
G01*
G37*
%TD.AperFunction*%
%TO.P,D15,1*%
%TO.N,Net-(D15-Pad1)*%
%TA.AperFunction,SMDPad,CuDef*%
G36*
G01*
X186712500Y-100625000D02*
X184562500Y-100625000D01*
G75*
G02*
X184312500Y-100375000I0J250000D01*
G01*
X184312500Y-99450000D01*
G75*
G02*
X184562500Y-99200000I250000J0D01*
G01*
X186712500Y-99200000D01*
G75*
G02*
X186962500Y-99450000I0J-250000D01*
G01*
X186962500Y-100375000D01*
G75*
G02*
X186712500Y-100625000I-250000J0D01*
G01*
G37*
%TD.AperFunction*%
%TD*%
%TO.P,D16,1*%
%TO.N,Net-(D16-Pad1)*%
%TA.AperFunction,SMDPad,CuDef*%
G36*
G01*
X202587500Y-100625000D02*
X200437500Y-100625000D01*
G75*
G02*
X200187500Y-100375000I0J250000D01*
G01*
X200187500Y-99450000D01*
G75*
G02*
X200437500Y-99200000I250000J0D01*
G01*
X202587500Y-99200000D01*
G75*
G02*
X202837500Y-99450000I0J-250000D01*
G01*
X202837500Y-100375000D01*
G75*
G02*
X202587500Y-100625000I-250000J0D01*
G01*
G37*
%TD.AperFunction*%
%TO.P,D16,2*%
%TO.N,Net-(D15-Pad1)*%
%TA.AperFunction,SMDPad,CuDef*%
G36*
G01*
X202587500Y-97650000D02*
X200437500Y-97650000D01*
G75*
G02*
X200187500Y-97400000I0J250000D01*
G01*
X200187500Y-96475000D01*
G75*
G02*
X200437500Y-96225000I250000J0D01*
G01*
X202587500Y-96225000D01*
G75*
G02*
X202837500Y-96475000I0J-250000D01*
G01*
X202837500Y-97400000D01*
G75*
G02*
X202587500Y-97650000I-250000J0D01*
G01*
G37*
%TD.AperFunction*%
%TD*%
%TO.P,D17,1*%
%TO.N,Net-(D17-Pad1)*%
%TA.AperFunction,SMDPad,CuDef*%
G36*
G01*
X91462500Y-87925000D02*
X89312500Y-87925000D01*
G75*
G02*
X89062500Y-87675000I0J250000D01*
G01*
X89062500Y-86750000D01*
G75*
G02*
X89312500Y-86500000I250000J0D01*
G01*
X91462500Y-86500000D01*
G75*
G02*
X91712500Y-86750000I0J-250000D01*
G01*
X91712500Y-87675000D01*
G75*
G02*
X91462500Y-87925000I-250000J0D01*
G01*
G37*
%TD.AperFunction*%
%TO.P,D17,2*%
%TO.N,Net-(D17-Pad2)*%
%TA.AperFunction,SMDPad,CuDef*%
G36*
G01*
X91462500Y-84950000D02*
X89312500Y-84950000D01*
G75*
G02*
X89062500Y-84700000I0J250000D01*
G01*
X89062500Y-83775000D01*
G75*
G02*
X89312500Y-83525000I250000J0D01*
G01*
X91462500Y-83525000D01*
G75*
G02*
X91712500Y-83775000I0J-250000D01*
G01*
X91712500Y-84700000D01*
G75*
G02*
X91462500Y-84950000I-250000J0D01*
G01*
G37*
%TD.AperFunction*%
%TD*%
%TO.P,D18,1*%
%TO.N,Net-(D18-Pad1)*%
%TA.AperFunction,SMDPad,CuDef*%
G36*
G01*
X109496500Y-87925000D02*
X107346500Y-87925000D01*
G75*
G02*
X107096500Y-87675000I0J250000D01*
G01*
X107096500Y-86750000D01*
G75*
G02*
X107346500Y-86500000I250000J0D01*
G01*
X109496500Y-86500000D01*
G75*
G02*
X109746500Y-86750000I0J-250000D01*
G01*
X109746500Y-87675000D01*
G75*
G02*
X109496500Y-87925000I-250000J0D01*
G01*
G37*
%TD.AperFunction*%
%TO.P,D18,2*%
%TO.N,Net-(D17-Pad1)*%
%TA.AperFunction,SMDPad,CuDef*%
G36*
G01*
X109496500Y-84950000D02*
X107346500Y-84950000D01*
G75*
G02*
X107096500Y-84700000I0J250000D01*
G01*
X107096500Y-83775000D01*
G75*
G02*
X107346500Y-83525000I250000J0D01*
G01*
X109496500Y-83525000D01*
G75*
G02*
X109746500Y-83775000I0J-250000D01*
G01*
X109746500Y-84700000D01*
G75*
G02*
X109496500Y-84950000I-250000J0D01*
G01*
G37*
%TD.AperFunction*%
%TD*%
%TO.P,D19,1*%
%TO.N,Net-(D19-Pad1)*%
%TA.AperFunction,SMDPad,CuDef*%
G36*
G01*
X127784500Y-87925000D02*
X125634500Y-87925000D01*
G75*
G02*
X125384500Y-87675000I0J250000D01*
G01*
X125384500Y-86750000D01*
G75*
G02*
X125634500Y-86500000I250000J0D01*
G01*
X127784500Y-86500000D01*
G75*
G02*
X128034500Y-86750000I0J-250000D01*
G01*
X128034500Y-87675000D01*
G75*
G02*
X127784500Y-87925000I-250000J0D01*
G01*
G37*
%TD.AperFunction*%
%TO.P,D19,2*%
%TO.N,Net-(D18-Pad1)*%
%TA.AperFunction,SMDPad,CuDef*%
G36*
G01*
X127784500Y-84950000D02*
X125634500Y-84950000D01*
G75*
G02*
X125384500Y-84700000I0J250000D01*
G01*
X125384500Y-83775000D01*
G75*
G02*
X125634500Y-83525000I250000J0D01*
G01*
X127784500Y-83525000D01*
G75*
G02*
X128034500Y-83775000I0J-250000D01*
G01*
X128034500Y-84700000D01*
G75*
G02*
X127784500Y-84950000I-250000J0D01*
G01*
G37*
%TD.AperFunction*%
%TD*%
%TO.P,D20,1*%
%TO.N,Net-(D20-Pad1)*%
%TA.AperFunction,SMDPad,CuDef*%
G36*
G01*
X145818500Y-87925000D02*
X143668500Y-87925000D01*
G75*
G02*
X143418500Y-87675000I0J250000D01*
G01*
X143418500Y-86750000D01*
G75*
G02*
X143668500Y-86500000I250000J0D01*
G01*
X145818500Y-86500000D01*
G75*
G02*
X146068500Y-86750000I0J-250000D01*
G01*
X146068500Y-87675000D01*
G75*
G02*
X145818500Y-87925000I-250000J0D01*
G01*
G37*
%TD.AperFunction*%
%TO.P,D20,2*%
%TO.N,Net-(D19-Pad1)*%
%TA.AperFunction,SMDPad,CuDef*%
G36*
G01*
X145818500Y-84950000D02*
X143668500Y-84950000D01*
G75*
G02*
X143418500Y-84700000I0J250000D01*
G01*
X143418500Y-83775000D01*
G75*
G02*
X143668500Y-83525000I250000J0D01*
G01*
X145818500Y-83525000D01*
G75*
G02*
X146068500Y-83775000I0J-250000D01*
G01*
X146068500Y-84700000D01*
G75*
G02*
X145818500Y-84950000I-250000J0D01*
G01*
G37*
%TD.AperFunction*%
%TD*%
%TO.P,D21,2*%
%TO.N,Net-(D20-Pad1)*%
%TA.AperFunction,SMDPad,CuDef*%
G36*
G01*
X164106500Y-84950000D02*
X161956500Y-84950000D01*
G75*
G02*
X161706500Y-84700000I0J250000D01*
G01*
X161706500Y-83775000D01*
G75*
G02*
X161956500Y-83525000I250000J0D01*
G01*
X164106500Y-83525000D01*
G75*
G02*
X164356500Y-83775000I0J-250000D01*
G01*
X164356500Y-84700000D01*
G75*
G02*
X164106500Y-84950000I-250000J0D01*
G01*
G37*
%TD.AperFunction*%
%TO.P,D21,1*%
%TO.N,Net-(D21-Pad1)*%
%TA.AperFunction,SMDPad,CuDef*%
G36*
G01*
X164106500Y-87925000D02*
X161956500Y-87925000D01*
G75*
G02*
X161706500Y-87675000I0J250000D01*
G01*
X161706500Y-86750000D01*
G75*
G02*
X161956500Y-86500000I250000J0D01*
G01*
X164106500Y-86500000D01*
G75*
G02*
X164356500Y-86750000I0J-250000D01*
G01*
X164356500Y-87675000D01*
G75*
G02*
X164106500Y-87925000I-250000J0D01*
G01*
G37*
%TD.AperFunction*%
%TD*%
%TO.P,D22,1*%
%TO.N,Net-(D22-Pad1)*%
%TA.AperFunction,SMDPad,CuDef*%
G36*
G01*
X182140500Y-87925000D02*
X179990500Y-87925000D01*
G75*
G02*
X179740500Y-87675000I0J250000D01*
G01*
X179740500Y-86750000D01*
G75*
G02*
X179990500Y-86500000I250000J0D01*
G01*
X182140500Y-86500000D01*
G75*
G02*
X182390500Y-86750000I0J-250000D01*
G01*
X182390500Y-87675000D01*
G75*
G02*
X182140500Y-87925000I-250000J0D01*
G01*
G37*
%TD.AperFunction*%
%TO.P,D22,2*%
%TO.N,Net-(D21-Pad1)*%
%TA.AperFunction,SMDPad,CuDef*%
G36*
G01*
X182140500Y-84950000D02*
X179990500Y-84950000D01*
G75*
G02*
X179740500Y-84700000I0J250000D01*
G01*
X179740500Y-83775000D01*
G75*
G02*
X179990500Y-83525000I250000J0D01*
G01*
X182140500Y-83525000D01*
G75*
G02*
X182390500Y-83775000I0J-250000D01*
G01*
X182390500Y-84700000D01*
G75*
G02*
X182140500Y-84950000I-250000J0D01*
G01*
G37*
%TD.AperFunction*%
%TD*%
%TO.P,D23,2*%
%TO.N,Net-(D22-Pad1)*%
%TA.AperFunction,SMDPad,CuDef*%
G36*
G01*
X200428500Y-84950000D02*
X198278500Y-84950000D01*
G75*
G02*
X198028500Y-84700000I0J250000D01*
G01*
X198028500Y-83775000D01*
G75*
G02*
X198278500Y-83525000I250000J0D01*
G01*
X200428500Y-83525000D01*
G75*
G02*
X200678500Y-83775000I0J-250000D01*
G01*
X200678500Y-84700000D01*
G75*
G02*
X200428500Y-84950000I-250000J0D01*
G01*
G37*
%TD.AperFunction*%
%TO.P,D23,1*%
%TO.N,Net-(D16-Pad1)*%
%TA.AperFunction,SMDPad,CuDef*%
G36*
G01*
X200428500Y-87925000D02*
X198278500Y-87925000D01*
G75*
G02*
X198028500Y-87675000I0J250000D01*
G01*
X198028500Y-86750000D01*
G75*
G02*
X198278500Y-86500000I250000J0D01*
G01*
X200428500Y-86500000D01*
G75*
G02*
X200678500Y-86750000I0J-250000D01*
G01*
X200678500Y-87675000D01*
G75*
G02*
X200428500Y-87925000I-250000J0D01*
G01*
G37*
%TD.AperFunction*%
%TD*%
%TO.P,D24,2*%
%TO.N,Net-(D24-Pad2)*%
%TA.AperFunction,SMDPad,CuDef*%
G36*
G01*
X91462500Y-104000000D02*
X89312500Y-104000000D01*
G75*
G02*
X89062500Y-103750000I0J250000D01*
G01*
X89062500Y-102825000D01*
G75*
G02*
X89312500Y-102575000I250000J0D01*
G01*
X91462500Y-102575000D01*
G75*
G02*
X91712500Y-102825000I0J-250000D01*
G01*
X91712500Y-103750000D01*
G75*
G02*
X91462500Y-104000000I-250000J0D01*
G01*
G37*
%TD.AperFunction*%
%TO.P,D24,1*%
%TO.N,Net-(D24-Pad1)*%
%TA.AperFunction,SMDPad,CuDef*%
G36*
G01*
X91462500Y-106975000D02*
X89312500Y-106975000D01*
G75*
G02*
X89062500Y-106725000I0J250000D01*
G01*
X89062500Y-105800000D01*
G75*
G02*
X89312500Y-105550000I250000J0D01*
G01*
X91462500Y-105550000D01*
G75*
G02*
X91712500Y-105800000I0J-250000D01*
G01*
X91712500Y-106725000D01*
G75*
G02*
X91462500Y-106975000I-250000J0D01*
G01*
G37*
%TD.AperFunction*%
%TD*%
%TO.P,D25,1*%
%TO.N,Net-(D25-Pad1)*%
%TA.AperFunction,SMDPad,CuDef*%
G36*
G01*
X109496500Y-106975000D02*
X107346500Y-106975000D01*
G75*
G02*
X107096500Y-106725000I0J250000D01*
G01*
X107096500Y-105800000D01*
G75*
G02*
X107346500Y-105550000I250000J0D01*
G01*
X109496500Y-105550000D01*
G75*
G02*
X109746500Y-105800000I0J-250000D01*
G01*
X109746500Y-106725000D01*
G75*
G02*
X109496500Y-106975000I-250000J0D01*
G01*
G37*
%TD.AperFunction*%
%TO.P,D25,2*%
%TO.N,Net-(D24-Pad1)*%
%TA.AperFunction,SMDPad,CuDef*%
G36*
G01*
X109496500Y-104000000D02*
X107346500Y-104000000D01*
G75*
G02*
X107096500Y-103750000I0J250000D01*
G01*
X107096500Y-102825000D01*
G75*
G02*
X107346500Y-102575000I250000J0D01*
G01*
X109496500Y-102575000D01*
G75*
G02*
X109746500Y-102825000I0J-250000D01*
G01*
X109746500Y-103750000D01*
G75*
G02*
X109496500Y-104000000I-250000J0D01*
G01*
G37*
%TD.AperFunction*%
%TD*%
%TO.P,D26,2*%
%TO.N,Net-(D25-Pad1)*%
%TA.AperFunction,SMDPad,CuDef*%
G36*
G01*
X127784500Y-104000000D02*
X125634500Y-104000000D01*
G75*
G02*
X125384500Y-103750000I0J250000D01*
G01*
X125384500Y-102825000D01*
G75*
G02*
X125634500Y-102575000I250000J0D01*
G01*
X127784500Y-102575000D01*
G75*
G02*
X128034500Y-102825000I0J-250000D01*
G01*
X128034500Y-103750000D01*
G75*
G02*
X127784500Y-104000000I-250000J0D01*
G01*
G37*
%TD.AperFunction*%
%TO.P,D26,1*%
%TO.N,Net-(D26-Pad1)*%
%TA.AperFunction,SMDPad,CuDef*%
G36*
G01*
X127784500Y-106975000D02*
X125634500Y-106975000D01*
G75*
G02*
X125384500Y-106725000I0J250000D01*
G01*
X125384500Y-105800000D01*
G75*
G02*
X125634500Y-105550000I250000J0D01*
G01*
X127784500Y-105550000D01*
G75*
G02*
X128034500Y-105800000I0J-250000D01*
G01*
X128034500Y-106725000D01*
G75*
G02*
X127784500Y-106975000I-250000J0D01*
G01*
G37*
%TD.AperFunction*%
%TD*%
%TO.P,D27,1*%
%TO.N,Net-(D27-Pad1)*%
%TA.AperFunction,SMDPad,CuDef*%
G36*
G01*
X145818500Y-106975000D02*
X143668500Y-106975000D01*
G75*
G02*
X143418500Y-106725000I0J250000D01*
G01*
X143418500Y-105800000D01*
G75*
G02*
X143668500Y-105550000I250000J0D01*
G01*
X145818500Y-105550000D01*
G75*
G02*
X146068500Y-105800000I0J-250000D01*
G01*
X146068500Y-106725000D01*
G75*
G02*
X145818500Y-106975000I-250000J0D01*
G01*
G37*
%TD.AperFunction*%
%TO.P,D27,2*%
%TO.N,Net-(D26-Pad1)*%
%TA.AperFunction,SMDPad,CuDef*%
G36*
G01*
X145818500Y-104000000D02*
X143668500Y-104000000D01*
G75*
G02*
X143418500Y-103750000I0J250000D01*
G01*
X143418500Y-102825000D01*
G75*
G02*
X143668500Y-102575000I250000J0D01*
G01*
X145818500Y-102575000D01*
G75*
G02*
X146068500Y-102825000I0J-250000D01*
G01*
X146068500Y-103750000D01*
G75*
G02*
X145818500Y-104000000I-250000J0D01*
G01*
G37*
%TD.AperFunction*%
%TD*%
%TO.P,D28,2*%
%TO.N,Net-(D27-Pad1)*%
%TA.AperFunction,SMDPad,CuDef*%
G36*
G01*
X164106500Y-104000000D02*
X161956500Y-104000000D01*
G75*
G02*
X161706500Y-103750000I0J250000D01*
G01*
X161706500Y-102825000D01*
G75*
G02*
X161956500Y-102575000I250000J0D01*
G01*
X164106500Y-102575000D01*
G75*
G02*
X164356500Y-102825000I0J-250000D01*
G01*
X164356500Y-103750000D01*
G75*
G02*
X164106500Y-104000000I-250000J0D01*
G01*
G37*
%TD.AperFunction*%
%TO.P,D28,1*%
%TO.N,Net-(D28-Pad1)*%
%TA.AperFunction,SMDPad,CuDef*%
G36*
G01*
X164106500Y-106975000D02*
X161956500Y-106975000D01*
G75*
G02*
X161706500Y-106725000I0J250000D01*
G01*
X161706500Y-105800000D01*
G75*
G02*
X161956500Y-105550000I250000J0D01*
G01*
X164106500Y-105550000D01*
G75*
G02*
X164356500Y-105800000I0J-250000D01*
G01*
X164356500Y-106725000D01*
G75*
G02*
X164106500Y-106975000I-250000J0D01*
G01*
G37*
%TD.AperFunction*%
%TD*%
%TO.P,D29,1*%
%TO.N,Net-(D29-Pad1)*%
%TA.AperFunction,SMDPad,CuDef*%
G36*
G01*
X182140500Y-106975000D02*
X179990500Y-106975000D01*
G75*
G02*
X179740500Y-106725000I0J250000D01*
G01*
X179740500Y-105800000D01*
G75*
G02*
X179990500Y-105550000I250000J0D01*
G01*
X182140500Y-105550000D01*
G75*
G02*
X182390500Y-105800000I0J-250000D01*
G01*
X182390500Y-106725000D01*
G75*
G02*
X182140500Y-106975000I-250000J0D01*
G01*
G37*
%TD.AperFunction*%
%TO.P,D29,2*%
%TO.N,Net-(D28-Pad1)*%
%TA.AperFunction,SMDPad,CuDef*%
G36*
G01*
X182140500Y-104000000D02*
X179990500Y-104000000D01*
G75*
G02*
X179740500Y-103750000I0J250000D01*
G01*
X179740500Y-102825000D01*
G75*
G02*
X179990500Y-102575000I250000J0D01*
G01*
X182140500Y-102575000D01*
G75*
G02*
X182390500Y-102825000I0J-250000D01*
G01*
X182390500Y-103750000D01*
G75*
G02*
X182140500Y-104000000I-250000J0D01*
G01*
G37*
%TD.AperFunction*%
%TD*%
%TO.P,D30,2*%
%TO.N,Net-(D29-Pad1)*%
%TA.AperFunction,SMDPad,CuDef*%
G36*
G01*
X200428500Y-104000000D02*
X198278500Y-104000000D01*
G75*
G02*
X198028500Y-103750000I0J250000D01*
G01*
X198028500Y-102825000D01*
G75*
G02*
X198278500Y-102575000I250000J0D01*
G01*
X200428500Y-102575000D01*
G75*
G02*
X200678500Y-102825000I0J-250000D01*
G01*
X200678500Y-103750000D01*
G75*
G02*
X200428500Y-104000000I-250000J0D01*
G01*
G37*
%TD.AperFunction*%
%TO.P,D30,1*%
%TO.N,Net-(D16-Pad1)*%
%TA.AperFunction,SMDPad,CuDef*%
G36*
G01*
X200428500Y-106975000D02*
X198278500Y-106975000D01*
G75*
G02*
X198028500Y-106725000I0J250000D01*
G01*
X198028500Y-105800000D01*
G75*
G02*
X198278500Y-105550000I250000J0D01*
G01*
X200428500Y-105550000D01*
G75*
G02*
X200678500Y-105800000I0J-250000D01*
G01*
X200678500Y-106725000D01*
G75*
G02*
X200428500Y-106975000I-250000J0D01*
G01*
G37*
%TD.AperFunction*%
%TD*%
%TO.P,D31,2*%
%TO.N,Net-(D31-Pad2)*%
%TA.AperFunction,SMDPad,CuDef*%
G36*
G01*
X91499000Y-91300000D02*
X89349000Y-91300000D01*
G75*
G02*
X89099000Y-91050000I0J250000D01*
G01*
X89099000Y-90125000D01*
G75*
G02*
X89349000Y-89875000I250000J0D01*
G01*
X91499000Y-89875000D01*
G75*
G02*
X91749000Y-90125000I0J-250000D01*
G01*
X91749000Y-91050000D01*
G75*
G02*
X91499000Y-91300000I-250000J0D01*
G01*
G37*
%TD.AperFunction*%
%TO.P,D31,1*%
%TO.N,Net-(D31-Pad1)*%
%TA.AperFunction,SMDPad,CuDef*%
G36*
G01*
X91499000Y-94275000D02*
X89349000Y-94275000D01*
G75*
G02*
X89099000Y-94025000I0J250000D01*
G01*
X89099000Y-93100000D01*
G75*
G02*
X89349000Y-92850000I250000J0D01*
G01*
X91499000Y-92850000D01*
G75*
G02*
X91749000Y-93100000I0J-250000D01*
G01*
X91749000Y-94025000D01*
G75*
G02*
X91499000Y-94275000I-250000J0D01*
G01*
G37*
%TD.AperFunction*%
%TD*%
%TO.P,D32,1*%
%TO.N,Net-(D32-Pad1)*%
%TA.AperFunction,SMDPad,CuDef*%
G36*
G01*
X107247000Y-94275000D02*
X105097000Y-94275000D01*
G75*
G02*
X104847000Y-94025000I0J250000D01*
G01*
X104847000Y-93100000D01*
G75*
G02*
X105097000Y-92850000I250000J0D01*
G01*
X107247000Y-92850000D01*
G75*
G02*
X107497000Y-93100000I0J-250000D01*
G01*
X107497000Y-94025000D01*
G75*
G02*
X107247000Y-94275000I-250000J0D01*
G01*
G37*
%TD.AperFunction*%
%TO.P,D32,2*%
%TO.N,Net-(D31-Pad1)*%
%TA.AperFunction,SMDPad,CuDef*%
G36*
G01*
X107247000Y-91300000D02*
X105097000Y-91300000D01*
G75*
G02*
X104847000Y-91050000I0J250000D01*
G01*
X104847000Y-90125000D01*
G75*
G02*
X105097000Y-89875000I250000J0D01*
G01*
X107247000Y-89875000D01*
G75*
G02*
X107497000Y-90125000I0J-250000D01*
G01*
X107497000Y-91050000D01*
G75*
G02*
X107247000Y-91300000I-250000J0D01*
G01*
G37*
%TD.AperFunction*%
%TD*%
%TO.P,D33,2*%
%TO.N,Net-(D32-Pad1)*%
%TA.AperFunction,SMDPad,CuDef*%
G36*
G01*
X123249000Y-91300000D02*
X121099000Y-91300000D01*
G75*
G02*
X120849000Y-91050000I0J250000D01*
G01*
X120849000Y-90125000D01*
G75*
G02*
X121099000Y-89875000I250000J0D01*
G01*
X123249000Y-89875000D01*
G75*
G02*
X123499000Y-90125000I0J-250000D01*
G01*
X123499000Y-91050000D01*
G75*
G02*
X123249000Y-91300000I-250000J0D01*
G01*
G37*
%TD.AperFunction*%
%TO.P,D33,1*%
%TO.N,Net-(D33-Pad1)*%
%TA.AperFunction,SMDPad,CuDef*%
G36*
G01*
X123249000Y-94275000D02*
X121099000Y-94275000D01*
G75*
G02*
X120849000Y-94025000I0J250000D01*
G01*
X120849000Y-93100000D01*
G75*
G02*
X121099000Y-92850000I250000J0D01*
G01*
X123249000Y-92850000D01*
G75*
G02*
X123499000Y-93100000I0J-250000D01*
G01*
X123499000Y-94025000D01*
G75*
G02*
X123249000Y-94275000I-250000J0D01*
G01*
G37*
%TD.AperFunction*%
%TD*%
%TO.P,D34,1*%
%TO.N,Net-(D16-Pad1)*%
%TA.AperFunction,SMDPad,CuDef*%
G36*
G01*
X138997000Y-94275000D02*
X136847000Y-94275000D01*
G75*
G02*
X136597000Y-94025000I0J250000D01*
G01*
X136597000Y-93100000D01*
G75*
G02*
X136847000Y-92850000I250000J0D01*
G01*
X138997000Y-92850000D01*
G75*
G02*
X139247000Y-93100000I0J-250000D01*
G01*
X139247000Y-94025000D01*
G75*
G02*
X138997000Y-94275000I-250000J0D01*
G01*
G37*
%TD.AperFunction*%
%TO.P,D34,2*%
%TO.N,Net-(D33-Pad1)*%
%TA.AperFunction,SMDPad,CuDef*%
G36*
G01*
X138997000Y-91300000D02*
X136847000Y-91300000D01*
G75*
G02*
X136597000Y-91050000I0J250000D01*
G01*
X136597000Y-90125000D01*
G75*
G02*
X136847000Y-89875000I250000J0D01*
G01*
X138997000Y-89875000D01*
G75*
G02*
X139247000Y-90125000I0J-250000D01*
G01*
X139247000Y-91050000D01*
G75*
G02*
X138997000Y-91300000I-250000J0D01*
G01*
G37*
%TD.AperFunction*%
%TD*%
%TO.P,D35,1*%
%TO.N,Net-(D35-Pad1)*%
%TA.AperFunction,SMDPad,CuDef*%
G36*
G01*
X154999000Y-94275000D02*
X152849000Y-94275000D01*
G75*
G02*
X152599000Y-94025000I0J250000D01*
G01*
X152599000Y-93100000D01*
G75*
G02*
X152849000Y-92850000I250000J0D01*
G01*
X154999000Y-92850000D01*
G75*
G02*
X155249000Y-93100000I0J-250000D01*
G01*
X155249000Y-94025000D01*
G75*
G02*
X154999000Y-94275000I-250000J0D01*
G01*
G37*
%TD.AperFunction*%
%TO.P,D35,2*%
%TO.N,Net-(D35-Pad2)*%
%TA.AperFunction,SMDPad,CuDef*%
G36*
G01*
X154999000Y-91300000D02*
X152849000Y-91300000D01*
G75*
G02*
X152599000Y-91050000I0J250000D01*
G01*
X152599000Y-90125000D01*
G75*
G02*
X152849000Y-89875000I250000J0D01*
G01*
X154999000Y-89875000D01*
G75*
G02*
X155249000Y-90125000I0J-250000D01*
G01*
X155249000Y-91050000D01*
G75*
G02*
X154999000Y-91300000I-250000J0D01*
G01*
G37*
%TD.AperFunction*%
%TD*%
%TO.P,D36,2*%
%TO.N,Net-(D35-Pad1)*%
%TA.AperFunction,SMDPad,CuDef*%
G36*
G01*
X170747000Y-91300000D02*
X168597000Y-91300000D01*
G75*
G02*
X168347000Y-91050000I0J250000D01*
G01*
X168347000Y-90125000D01*
G75*
G02*
X168597000Y-89875000I250000J0D01*
G01*
X170747000Y-89875000D01*
G75*
G02*
X170997000Y-90125000I0J-250000D01*
G01*
X170997000Y-91050000D01*
G75*
G02*
X170747000Y-91300000I-250000J0D01*
G01*
G37*
%TD.AperFunction*%
%TO.P,D36,1*%
%TO.N,Net-(D36-Pad1)*%
%TA.AperFunction,SMDPad,CuDef*%
G36*
G01*
X170747000Y-94275000D02*
X168597000Y-94275000D01*
G75*
G02*
X168347000Y-94025000I0J250000D01*
G01*
X168347000Y-93100000D01*
G75*
G02*
X168597000Y-92850000I250000J0D01*
G01*
X170747000Y-92850000D01*
G75*
G02*
X170997000Y-93100000I0J-250000D01*
G01*
X170997000Y-94025000D01*
G75*
G02*
X170747000Y-94275000I-250000J0D01*
G01*
G37*
%TD.AperFunction*%
%TD*%
%TO.P,D37,1*%
%TO.N,Net-(D37-Pad1)*%
%TA.AperFunction,SMDPad,CuDef*%
G36*
G01*
X186749000Y-94275000D02*
X184599000Y-94275000D01*
G75*
G02*
X184349000Y-94025000I0J250000D01*
G01*
X184349000Y-93100000D01*
G75*
G02*
X184599000Y-92850000I250000J0D01*
G01*
X186749000Y-92850000D01*
G75*
G02*
X186999000Y-93100000I0J-250000D01*
G01*
X186999000Y-94025000D01*
G75*
G02*
X186749000Y-94275000I-250000J0D01*
G01*
G37*
%TD.AperFunction*%
%TO.P,D37,2*%
%TO.N,Net-(D36-Pad1)*%
%TA.AperFunction,SMDPad,CuDef*%
G36*
G01*
X186749000Y-91300000D02*
X184599000Y-91300000D01*
G75*
G02*
X184349000Y-91050000I0J250000D01*
G01*
X184349000Y-90125000D01*
G75*
G02*
X184599000Y-89875000I250000J0D01*
G01*
X186749000Y-89875000D01*
G75*
G02*
X186999000Y-90125000I0J-250000D01*
G01*
X186999000Y-91050000D01*
G75*
G02*
X186749000Y-91300000I-250000J0D01*
G01*
G37*
%TD.AperFunction*%
%TD*%
%TO.P,D38,2*%
%TO.N,Net-(D37-Pad1)*%
%TA.AperFunction,SMDPad,CuDef*%
G36*
G01*
X202497000Y-91300000D02*
X200347000Y-91300000D01*
G75*
G02*
X200097000Y-91050000I0J250000D01*
G01*
X200097000Y-90125000D01*
G75*
G02*
X200347000Y-89875000I250000J0D01*
G01*
X202497000Y-89875000D01*
G75*
G02*
X202747000Y-90125000I0J-250000D01*
G01*
X202747000Y-91050000D01*
G75*
G02*
X202497000Y-91300000I-250000J0D01*
G01*
G37*
%TD.AperFunction*%
%TO.P,D38,1*%
%TO.N,Net-(D16-Pad1)*%
%TA.AperFunction,SMDPad,CuDef*%
G36*
G01*
X202497000Y-94275000D02*
X200347000Y-94275000D01*
G75*
G02*
X200097000Y-94025000I0J250000D01*
G01*
X200097000Y-93100000D01*
G75*
G02*
X200347000Y-92850000I250000J0D01*
G01*
X202497000Y-92850000D01*
G75*
G02*
X202747000Y-93100000I0J-250000D01*
G01*
X202747000Y-94025000D01*
G75*
G02*
X202497000Y-94275000I-250000J0D01*
G01*
G37*
%TD.AperFunction*%
%TD*%
%TO.P,R1,2*%
%TO.N,Net-(D1-Pad2)*%
%TA.AperFunction,SMDPad,CuDef*%
G36*
G01*
X86731000Y-78475000D02*
X85481000Y-78475000D01*
G75*
G02*
X85231000Y-78225000I0J250000D01*
G01*
X85231000Y-77425000D01*
G75*
G02*
X85481000Y-77175000I250000J0D01*
G01*
X86731000Y-77175000D01*
G75*
G02*
X86981000Y-77425000I0J-250000D01*
G01*
X86981000Y-78225000D01*
G75*
G02*
X86731000Y-78475000I-250000J0D01*
G01*
G37*
%TD.AperFunction*%
%TO.P,R1,1*%
%TO.N,Net-(R1-Pad1)*%
%TA.AperFunction,SMDPad,CuDef*%
G36*
G01*
X86731000Y-81575000D02*
X85481000Y-81575000D01*
G75*
G02*
X85231000Y-81325000I0J250000D01*
G01*
X85231000Y-80525000D01*
G75*
G02*
X85481000Y-80275000I250000J0D01*
G01*
X86731000Y-80275000D01*
G75*
G02*
X86981000Y-80525000I0J-250000D01*
G01*
X86981000Y-81325000D01*
G75*
G02*
X86731000Y-81575000I-250000J0D01*
G01*
G37*
%TD.AperFunction*%
%TD*%
%TO.P,R2,1*%
%TO.N,Net-(R1-Pad1)*%
%TA.AperFunction,SMDPad,CuDef*%
G36*
G01*
X86731000Y-100625000D02*
X85481000Y-100625000D01*
G75*
G02*
X85231000Y-100375000I0J250000D01*
G01*
X85231000Y-99575000D01*
G75*
G02*
X85481000Y-99325000I250000J0D01*
G01*
X86731000Y-99325000D01*
G75*
G02*
X86981000Y-99575000I0J-250000D01*
G01*
X86981000Y-100375000D01*
G75*
G02*
X86731000Y-100625000I-250000J0D01*
G01*
G37*
%TD.AperFunction*%
%TO.P,R2,2*%
%TO.N,Net-(D9-Pad2)*%
%TA.AperFunction,SMDPad,CuDef*%
G36*
G01*
X86731000Y-97525000D02*
X85481000Y-97525000D01*
G75*
G02*
X85231000Y-97275000I0J250000D01*
G01*
X85231000Y-96475000D01*
G75*
G02*
X85481000Y-96225000I250000J0D01*
G01*
X86731000Y-96225000D01*
G75*
G02*
X86981000Y-96475000I0J-250000D01*
G01*
X86981000Y-97275000D01*
G75*
G02*
X86731000Y-97525000I-250000J0D01*
G01*
G37*
%TD.AperFunction*%
%TD*%
%TO.P,R3,2*%
%TO.N,Net-(D17-Pad2)*%
%TA.AperFunction,SMDPad,CuDef*%
G36*
G01*
X86731000Y-84825000D02*
X85481000Y-84825000D01*
G75*
G02*
X85231000Y-84575000I0J250000D01*
G01*
X85231000Y-83775000D01*
G75*
G02*
X85481000Y-83525000I250000J0D01*
G01*
X86731000Y-83525000D01*
G75*
G02*
X86981000Y-83775000I0J-250000D01*
G01*
X86981000Y-84575000D01*
G75*
G02*
X86731000Y-84825000I-250000J0D01*
G01*
G37*
%TD.AperFunction*%
%TO.P,R3,1*%
%TO.N,Net-(R3-Pad1)*%
%TA.AperFunction,SMDPad,CuDef*%
G36*
G01*
X86731000Y-87925000D02*
X85481000Y-87925000D01*
G75*
G02*
X85231000Y-87675000I0J250000D01*
G01*
X85231000Y-86875000D01*
G75*
G02*
X85481000Y-86625000I250000J0D01*
G01*
X86731000Y-86625000D01*
G75*
G02*
X86981000Y-86875000I0J-250000D01*
G01*
X86981000Y-87675000D01*
G75*
G02*
X86731000Y-87925000I-250000J0D01*
G01*
G37*
%TD.AperFunction*%
%TD*%
%TO.P,R4,1*%
%TO.N,Net-(R3-Pad1)*%
%TA.AperFunction,SMDPad,CuDef*%
G36*
G01*
X86985000Y-106975000D02*
X85735000Y-106975000D01*
G75*
G02*
X85485000Y-106725000I0J250000D01*
G01*
X85485000Y-105925000D01*
G75*
G02*
X85735000Y-105675000I250000J0D01*
G01*
X86985000Y-105675000D01*
G75*
G02*
X87235000Y-105925000I0J-250000D01*
G01*
X87235000Y-106725000D01*
G75*
G02*
X86985000Y-106975000I-250000J0D01*
G01*
G37*
%TD.AperFunction*%
%TO.P,R4,2*%
%TO.N,Net-(D24-Pad2)*%
%TA.AperFunction,SMDPad,CuDef*%
G36*
G01*
X86985000Y-103875000D02*
X85735000Y-103875000D01*
G75*
G02*
X85485000Y-103625000I0J250000D01*
G01*
X85485000Y-102825000D01*
G75*
G02*
X85735000Y-102575000I250000J0D01*
G01*
X86985000Y-102575000D01*
G75*
G02*
X87235000Y-102825000I0J-250000D01*
G01*
X87235000Y-103625000D01*
G75*
G02*
X86985000Y-103875000I-250000J0D01*
G01*
G37*
%TD.AperFunction*%
%TD*%
%TO.P,R5,2*%
%TO.N,Net-(D31-Pad2)*%
%TA.AperFunction,SMDPad,CuDef*%
G36*
G01*
X86731000Y-91175000D02*
X85481000Y-91175000D01*
G75*
G02*
X85231000Y-90925000I0J250000D01*
G01*
X85231000Y-90125000D01*
G75*
G02*
X85481000Y-89875000I250000J0D01*
G01*
X86731000Y-89875000D01*
G75*
G02*
X86981000Y-90125000I0J-250000D01*
G01*
X86981000Y-90925000D01*
G75*
G02*
X86731000Y-91175000I-250000J0D01*
G01*
G37*
%TD.AperFunction*%
%TO.P,R5,1*%
%TO.N,Net-(R5-Pad1)*%
%TA.AperFunction,SMDPad,CuDef*%
G36*
G01*
X86731000Y-94275000D02*
X85481000Y-94275000D01*
G75*
G02*
X85231000Y-94025000I0J250000D01*
G01*
X85231000Y-93225000D01*
G75*
G02*
X85481000Y-92975000I250000J0D01*
G01*
X86731000Y-92975000D01*
G75*
G02*
X86981000Y-93225000I0J-250000D01*
G01*
X86981000Y-94025000D01*
G75*
G02*
X86731000Y-94275000I-250000J0D01*
G01*
G37*
%TD.AperFunction*%
%TD*%
%TO.P,R6,1*%
%TO.N,Net-(R5-Pad1)*%
%TA.AperFunction,SMDPad,CuDef*%
G36*
G01*
X146675000Y-94275000D02*
X145425000Y-94275000D01*
G75*
G02*
X145175000Y-94025000I0J250000D01*
G01*
X145175000Y-93225000D01*
G75*
G02*
X145425000Y-92975000I250000J0D01*
G01*
X146675000Y-92975000D01*
G75*
G02*
X146925000Y-93225000I0J-250000D01*
G01*
X146925000Y-94025000D01*
G75*
G02*
X146675000Y-94275000I-250000J0D01*
G01*
G37*
%TD.AperFunction*%
%TO.P,R6,2*%
%TO.N,Net-(D35-Pad2)*%
%TA.AperFunction,SMDPad,CuDef*%
G36*
G01*
X146675000Y-91175000D02*
X145425000Y-91175000D01*
G75*
G02*
X145175000Y-90925000I0J250000D01*
G01*
X145175000Y-90125000D01*
G75*
G02*
X145425000Y-89875000I250000J0D01*
G01*
X146675000Y-89875000D01*
G75*
G02*
X146925000Y-90125000I0J-250000D01*
G01*
X146925000Y-90925000D01*
G75*
G02*
X146675000Y-91175000I-250000J0D01*
G01*
G37*
%TD.AperFunction*%
%TD*%
D10*
%TO.N,Net-(D16-Pad1)*%
X199353500Y-106262500D03*
X200442500Y-106262500D03*
X201712500Y-106262500D03*
X202982500Y-106262500D03*
X204252500Y-106262500D03*
X204379500Y-104230500D03*
X203109500Y-104230500D03*
X201839500Y-104230500D03*
%TO.N,Net-(R1-Pad1)*%
X85725000Y-81280000D03*
X85725000Y-100330000D03*
X86360000Y-99695000D03*
X86360000Y-80645000D03*
%TO.N,Net-(R3-Pad1)*%
X83185000Y-83820000D03*
X86106000Y-87275000D03*
X86995000Y-86995000D03*
X83185000Y-85090000D03*
X83185000Y-86360000D03*
X83185000Y-87630000D03*
%TO.N,Net-(R5-Pad1)*%
X85725000Y-93980000D03*
X86360000Y-93345000D03*
X144145000Y-92710000D03*
X144145000Y-91440000D03*
%TD*%
D11*
%TO.N,Net-(D1-Pad2)*%
X86168500Y-77887500D02*
X86106000Y-77825000D01*
X90387500Y-77887500D02*
X86168500Y-77887500D01*
%TO.N,Net-(D1-Pad1)*%
X90387500Y-80862500D02*
X97572500Y-80862500D01*
X100547500Y-77887500D02*
X106262500Y-77887500D01*
X97572500Y-80862500D02*
X100547500Y-77887500D01*
%TO.N,Net-(D2-Pad1)*%
X106262500Y-80862500D02*
X112812500Y-80862500D01*
X115787500Y-77887500D02*
X122137500Y-77887500D01*
X112812500Y-80862500D02*
X115787500Y-77887500D01*
%TO.N,Net-(D3-Pad1)*%
X122137500Y-80862500D02*
X130773500Y-80862500D01*
X133748500Y-77887500D02*
X138012500Y-77887500D01*
X130773500Y-80862500D02*
X133748500Y-77887500D01*
%TO.N,Net-(D4-Pad1)*%
X138012500Y-80862500D02*
X148299500Y-80862500D01*
X151274500Y-77887500D02*
X153887500Y-77887500D01*
X148299500Y-80862500D02*
X151274500Y-77887500D01*
%TO.N,Net-(D5-Pad1)*%
X153887500Y-80862500D02*
X161253500Y-80862500D01*
X164228500Y-77887500D02*
X169762500Y-77887500D01*
X161253500Y-80862500D02*
X164228500Y-77887500D01*
%TO.N,Net-(D6-Pad1)*%
X169762500Y-80862500D02*
X176312500Y-80862500D01*
X179287500Y-77887500D02*
X185637500Y-77887500D01*
X176312500Y-80862500D02*
X179287500Y-77887500D01*
%TO.N,Net-(D7-Pad1)*%
X185637500Y-80862500D02*
X194092500Y-80862500D01*
X197067500Y-77887500D02*
X201512500Y-77887500D01*
X194092500Y-80862500D02*
X197067500Y-77887500D01*
%TO.N,Net-(D16-Pad1)*%
X141605000Y-93980000D02*
X141605000Y-94615000D01*
X141605000Y-94615000D02*
X142240000Y-95250000D01*
X142240000Y-95250000D02*
X202565000Y-95250000D01*
X140970000Y-90170000D02*
X142240000Y-88900000D01*
X142240000Y-88900000D02*
X143510000Y-88900000D01*
X143510000Y-88900000D02*
X190500000Y-88900000D01*
X190500000Y-88900000D02*
X202565000Y-88900000D01*
X203962000Y-83312000D02*
X203962000Y-83947000D01*
X201512500Y-80862500D02*
X203962000Y-83312000D01*
X203744500Y-87212500D02*
X203962000Y-86995000D01*
X199353500Y-87212500D02*
X203744500Y-87212500D01*
X203962000Y-83947000D02*
X203962000Y-86995000D01*
X203925500Y-93562500D02*
X203962000Y-93599000D01*
X201422000Y-93562500D02*
X203925500Y-93562500D01*
X203962000Y-86995000D02*
X203962000Y-93599000D01*
X203744500Y-99912500D02*
X203962000Y-99695000D01*
X201512500Y-99912500D02*
X203744500Y-99912500D01*
X203962000Y-99695000D02*
X203962000Y-101654000D01*
X203962000Y-93599000D02*
X203962000Y-99695000D01*
X137922000Y-93562500D02*
X139482500Y-93562500D01*
X139482500Y-93562500D02*
X140335000Y-92710000D01*
X199353500Y-106262500D02*
X199353500Y-106262500D01*
X199353500Y-106262500D02*
X200442500Y-106262500D01*
X200442500Y-106262500D02*
X201712500Y-106262500D01*
X201712500Y-106262500D02*
X202982500Y-106262500D01*
X202982500Y-106262500D02*
X204252500Y-106262500D01*
X204252500Y-106262500D02*
X204252500Y-106262500D01*
X201385500Y-104230500D02*
X201839500Y-104230500D01*
X203962000Y-101654000D02*
X201385500Y-104230500D01*
X201385500Y-104230500D02*
X199353500Y-106262500D01*
X204379500Y-104230500D02*
X204379500Y-104230500D01*
X203109500Y-104230500D02*
X204379500Y-104230500D01*
X201839500Y-104230500D02*
X203109500Y-104230500D01*
%TO.N,Net-(D9-Pad2)*%
X86168500Y-96937500D02*
X86106000Y-96875000D01*
X90387500Y-96937500D02*
X86168500Y-96937500D01*
%TO.N,Net-(D10-Pad2)*%
X90387500Y-99912500D02*
X97753500Y-99912500D01*
X100728500Y-96937500D02*
X106262500Y-96937500D01*
X97753500Y-99912500D02*
X100728500Y-96937500D01*
%TO.N,Net-(D10-Pad1)*%
X106262500Y-99912500D02*
X112993500Y-99912500D01*
X115968500Y-96937500D02*
X122137500Y-96937500D01*
X112993500Y-99912500D02*
X115968500Y-96937500D01*
%TO.N,Net-(D11-Pad1)*%
X122137500Y-99912500D02*
X130773500Y-99912500D01*
X133748500Y-96937500D02*
X138012500Y-96937500D01*
X130773500Y-99912500D02*
X133748500Y-96937500D01*
%TO.N,Net-(D12-Pad1)*%
X138012500Y-99912500D02*
X148372500Y-99912500D01*
X151347500Y-96937500D02*
X153887500Y-96937500D01*
X148372500Y-99912500D02*
X151347500Y-96937500D01*
%TO.N,Net-(D13-Pad1)*%
X153887500Y-99912500D02*
X161253500Y-99912500D01*
X164228500Y-96937500D02*
X169762500Y-96937500D01*
X161253500Y-99912500D02*
X164228500Y-96937500D01*
%TO.N,Net-(D14-Pad1)*%
X169762500Y-99912500D02*
X176493500Y-99912500D01*
X179468500Y-96937500D02*
X185637500Y-96937500D01*
X176493500Y-99912500D02*
X179468500Y-96937500D01*
%TO.N,Net-(D15-Pad1)*%
X185637500Y-99912500D02*
X194273500Y-99912500D01*
X197248500Y-96937500D02*
X201512500Y-96937500D01*
X194273500Y-99912500D02*
X197248500Y-96937500D01*
%TO.N,Net-(D17-Pad1)*%
X90387500Y-87212500D02*
X97753500Y-87212500D01*
X100728500Y-84237500D02*
X108421500Y-84237500D01*
X97753500Y-87212500D02*
X100728500Y-84237500D01*
%TO.N,Net-(D17-Pad2)*%
X90325000Y-84175000D02*
X90387500Y-84237500D01*
X86106000Y-84175000D02*
X90325000Y-84175000D01*
%TO.N,Net-(D18-Pad1)*%
X108421500Y-87212500D02*
X112812500Y-87212500D01*
X115787500Y-84237500D02*
X126709500Y-84237500D01*
X112812500Y-87212500D02*
X115787500Y-84237500D01*
%TO.N,Net-(D19-Pad1)*%
X126709500Y-87212500D02*
X130592500Y-87212500D01*
X133567500Y-84237500D02*
X144743500Y-84237500D01*
X130592500Y-87212500D02*
X133567500Y-84237500D01*
%TO.N,Net-(D20-Pad1)*%
X144743500Y-87212500D02*
X148553500Y-87212500D01*
X151528500Y-84237500D02*
X163031500Y-84237500D01*
X148553500Y-87212500D02*
X151528500Y-84237500D01*
%TO.N,Net-(D21-Pad1)*%
X163031500Y-87212500D02*
X176493500Y-87212500D01*
X179468500Y-84237500D02*
X181065500Y-84237500D01*
X176493500Y-87212500D02*
X179468500Y-84237500D01*
%TO.N,Net-(D22-Pad1)*%
X181065500Y-87212500D02*
X194273500Y-87212500D01*
X197248500Y-84237500D02*
X199353500Y-84237500D01*
X194273500Y-87212500D02*
X197248500Y-84237500D01*
%TO.N,Net-(D24-Pad2)*%
X86422500Y-103287500D02*
X86360000Y-103225000D01*
X90387500Y-103287500D02*
X86422500Y-103287500D01*
%TO.N,Net-(D24-Pad1)*%
X90387500Y-106262500D02*
X97572500Y-106262500D01*
X100547500Y-103287500D02*
X108421500Y-103287500D01*
X97572500Y-106262500D02*
X100547500Y-103287500D01*
%TO.N,Net-(D25-Pad1)*%
X108421500Y-106262500D02*
X115533500Y-106262500D01*
X118508500Y-103287500D02*
X126709500Y-103287500D01*
X115533500Y-106262500D02*
X118508500Y-103287500D01*
%TO.N,Net-(D26-Pad1)*%
X126709500Y-106262500D02*
X130592500Y-106262500D01*
X133567500Y-103287500D02*
X144743500Y-103287500D01*
X130592500Y-106262500D02*
X133567500Y-103287500D01*
%TO.N,Net-(D27-Pad1)*%
X144743500Y-106262500D02*
X148553500Y-106262500D01*
X151528500Y-103287500D02*
X148553500Y-106262500D01*
X163031500Y-103287500D02*
X151528500Y-103287500D01*
%TO.N,Net-(D28-Pad1)*%
X163031500Y-106262500D02*
X176493500Y-106262500D01*
X179468500Y-103287500D02*
X181065500Y-103287500D01*
X176493500Y-106262500D02*
X179468500Y-103287500D01*
%TO.N,Net-(D29-Pad1)*%
X181065500Y-106262500D02*
X194273500Y-106262500D01*
X197248500Y-103287500D02*
X199353500Y-103287500D01*
X194273500Y-106262500D02*
X197248500Y-103287500D01*
%TO.N,Net-(D31-Pad2)*%
X86168500Y-90587500D02*
X86106000Y-90525000D01*
X90424000Y-90587500D02*
X86168500Y-90587500D01*
%TO.N,Net-(D31-Pad1)*%
X90424000Y-93562500D02*
X97572500Y-93562500D01*
X100547500Y-90587500D02*
X106172000Y-90587500D01*
X97572500Y-93562500D02*
X100547500Y-90587500D01*
%TO.N,Net-(D32-Pad1)*%
X106172000Y-93562500D02*
X112812500Y-93562500D01*
X115787500Y-90587500D02*
X122174000Y-90587500D01*
X112812500Y-93562500D02*
X115787500Y-90587500D01*
%TO.N,Net-(D33-Pad1)*%
X122174000Y-93562500D02*
X130773500Y-93562500D01*
X133748500Y-90587500D02*
X137922000Y-90587500D01*
X130773500Y-93562500D02*
X133748500Y-90587500D01*
%TO.N,Net-(D35-Pad1)*%
X153924000Y-93562500D02*
X161253500Y-93562500D01*
X164228500Y-90587500D02*
X169672000Y-90587500D01*
X161253500Y-93562500D02*
X164228500Y-90587500D01*
%TO.N,Net-(D35-Pad2)*%
X146112500Y-90587500D02*
X146050000Y-90525000D01*
X153924000Y-90587500D02*
X146112500Y-90587500D01*
X153924000Y-90587500D02*
X151347500Y-90587500D01*
X151285000Y-90525000D02*
X146050000Y-90525000D01*
X151347500Y-90587500D02*
X151285000Y-90525000D01*
%TO.N,Net-(D36-Pad1)*%
X169672000Y-93562500D02*
X176312500Y-93562500D01*
X179287500Y-90587500D02*
X185674000Y-90587500D01*
X176312500Y-93562500D02*
X179287500Y-90587500D01*
%TO.N,Net-(D37-Pad1)*%
X185674000Y-93562500D02*
X194273500Y-93562500D01*
X197248500Y-90587500D02*
X201422000Y-90587500D01*
X194273500Y-93562500D02*
X197248500Y-90587500D01*
%TO.N,Net-(R1-Pad1)*%
X86106000Y-99975000D02*
X85370000Y-99975000D01*
X84468990Y-82562010D02*
X86106000Y-80925000D01*
X84468990Y-99073990D02*
X84468990Y-82562010D01*
X85370000Y-99975000D02*
X84468990Y-99073990D01*
%TO.N,Net-(R3-Pad1)*%
X86106000Y-87275000D02*
X86106000Y-87275000D01*
X84074000Y-104039000D02*
X86360000Y-106325000D01*
X86360000Y-106325000D02*
X86360000Y-106325000D01*
X86360000Y-106325000D02*
X83185000Y-103150000D01*
X83185000Y-103150000D02*
X83185000Y-87630000D01*
X86106000Y-87275000D02*
X86106000Y-87275000D01*
X83185000Y-85090000D02*
X83185000Y-83820000D01*
X83185000Y-86360000D02*
X83185000Y-85090000D01*
X83185000Y-87630000D02*
X83185000Y-86360000D01*
%TO.N,Net-(R5-Pad1)*%
X146050000Y-93625000D02*
X145695000Y-93625000D01*
X146050000Y-93625000D02*
X144500000Y-93625000D01*
X144145000Y-93270000D02*
X144500000Y-93625000D01*
X144145000Y-91440000D02*
X144145000Y-93270000D01*
%TD*%
D12*
%TO.N,Net-(D29-Pad1)*%
X198628000Y-104911928D02*
X198278500Y-104911928D01*
X198105246Y-104928992D01*
X197938650Y-104979528D01*
X197785114Y-105061595D01*
X197650538Y-105172038D01*
X197540095Y-105306614D01*
X197458028Y-105460150D01*
X197407492Y-105626746D01*
X197390428Y-105800000D01*
X197390428Y-106725000D01*
X197407492Y-106898254D01*
X197458028Y-107064850D01*
X197523853Y-107188000D01*
X181737000Y-107188000D01*
X181737000Y-104638072D01*
X182140500Y-104638072D01*
X182313754Y-104621008D01*
X182480350Y-104570472D01*
X182633886Y-104488405D01*
X182768462Y-104377962D01*
X182878905Y-104243386D01*
X182960972Y-104089850D01*
X183011508Y-103923254D01*
X183028572Y-103750000D01*
X183028572Y-102825000D01*
X183011508Y-102651746D01*
X182960972Y-102485150D01*
X182895147Y-102362000D01*
X198628000Y-102362000D01*
X198628000Y-104911928D01*
%TA.AperFunction,Conductor*%
D13*
G36*
X198628000Y-104911928D02*
G01*
X198278500Y-104911928D01*
X198105246Y-104928992D01*
X197938650Y-104979528D01*
X197785114Y-105061595D01*
X197650538Y-105172038D01*
X197540095Y-105306614D01*
X197458028Y-105460150D01*
X197407492Y-105626746D01*
X197390428Y-105800000D01*
X197390428Y-106725000D01*
X197407492Y-106898254D01*
X197458028Y-107064850D01*
X197523853Y-107188000D01*
X181737000Y-107188000D01*
X181737000Y-104638072D01*
X182140500Y-104638072D01*
X182313754Y-104621008D01*
X182480350Y-104570472D01*
X182633886Y-104488405D01*
X182768462Y-104377962D01*
X182878905Y-104243386D01*
X182960972Y-104089850D01*
X183011508Y-103923254D01*
X183028572Y-103750000D01*
X183028572Y-102825000D01*
X183011508Y-102651746D01*
X182960972Y-102485150D01*
X182895147Y-102362000D01*
X198628000Y-102362000D01*
X198628000Y-104911928D01*
G37*
%TD.AperFunction*%
%TD*%
D12*
%TO.N,Net-(D16-Pad1)*%
X204978000Y-107188000D02*
X200152000Y-107188000D01*
X200152000Y-104638072D01*
X200428500Y-104638072D01*
X200601754Y-104621008D01*
X200768350Y-104570472D01*
X200921886Y-104488405D01*
X201056462Y-104377962D01*
X201166905Y-104243386D01*
X201248972Y-104089850D01*
X201299508Y-103923254D01*
X201316572Y-103750000D01*
X201316572Y-102997000D01*
X201930000Y-102997000D01*
X201954776Y-102994560D01*
X201978601Y-102987333D01*
X202000557Y-102975597D01*
X202019803Y-102959803D01*
X202035597Y-102940557D01*
X202047333Y-102918601D01*
X202054560Y-102894776D01*
X202057000Y-102870000D01*
X202057000Y-98288072D01*
X202587500Y-98288072D01*
X202760754Y-98271008D01*
X202927350Y-98220472D01*
X203080886Y-98138405D01*
X203215462Y-98027962D01*
X203325905Y-97893386D01*
X203407972Y-97739850D01*
X203458508Y-97573254D01*
X203475572Y-97400000D01*
X203475572Y-96475000D01*
X203458508Y-96301746D01*
X203407972Y-96135150D01*
X203325905Y-95981614D01*
X203215462Y-95847038D01*
X203080886Y-95736595D01*
X202927350Y-95654528D01*
X202760754Y-95603992D01*
X202587500Y-95586928D01*
X202057000Y-95586928D01*
X202057000Y-91938072D01*
X202497000Y-91938072D01*
X202670254Y-91921008D01*
X202836850Y-91870472D01*
X202990386Y-91788405D01*
X203124962Y-91677962D01*
X203235405Y-91543386D01*
X203317472Y-91389850D01*
X203368008Y-91223254D01*
X203385072Y-91050000D01*
X203385072Y-90125000D01*
X203368008Y-89951746D01*
X203317472Y-89785150D01*
X203235405Y-89631614D01*
X203124962Y-89497038D01*
X202990386Y-89386595D01*
X202836850Y-89304528D01*
X202670254Y-89253992D01*
X202497000Y-89236928D01*
X202057000Y-89236928D01*
X202057000Y-88900000D01*
X202054560Y-88875224D01*
X202047333Y-88851399D01*
X202035597Y-88829443D01*
X202019803Y-88810197D01*
X202000557Y-88794403D01*
X201978601Y-88782667D01*
X201954776Y-88775440D01*
X201930000Y-88773000D01*
X200152000Y-88773000D01*
X200152000Y-85588072D01*
X200428500Y-85588072D01*
X200601754Y-85571008D01*
X200768350Y-85520472D01*
X200921886Y-85438405D01*
X201056462Y-85327962D01*
X201166905Y-85193386D01*
X201248972Y-85039850D01*
X201299508Y-84873254D01*
X201316572Y-84700000D01*
X201316572Y-83947000D01*
X201930000Y-83947000D01*
X201954776Y-83944560D01*
X201978601Y-83937333D01*
X202000557Y-83925597D01*
X202019803Y-83909803D01*
X202035597Y-83890557D01*
X202047333Y-83868601D01*
X202054560Y-83844776D01*
X202057000Y-83820000D01*
X202057000Y-79238072D01*
X202587500Y-79238072D01*
X202760754Y-79221008D01*
X202927350Y-79170472D01*
X203080886Y-79088405D01*
X203215462Y-78977962D01*
X203325905Y-78843386D01*
X203407972Y-78689850D01*
X203458508Y-78523254D01*
X203475572Y-78350000D01*
X203475572Y-77425000D01*
X203458508Y-77251746D01*
X203407972Y-77085150D01*
X203342147Y-76962000D01*
X204978000Y-76962000D01*
X204978000Y-107188000D01*
%TA.AperFunction,Conductor*%
D13*
G36*
X204978000Y-107188000D02*
G01*
X200152000Y-107188000D01*
X200152000Y-104638072D01*
X200428500Y-104638072D01*
X200601754Y-104621008D01*
X200768350Y-104570472D01*
X200921886Y-104488405D01*
X201056462Y-104377962D01*
X201166905Y-104243386D01*
X201248972Y-104089850D01*
X201299508Y-103923254D01*
X201316572Y-103750000D01*
X201316572Y-102997000D01*
X201930000Y-102997000D01*
X201954776Y-102994560D01*
X201978601Y-102987333D01*
X202000557Y-102975597D01*
X202019803Y-102959803D01*
X202035597Y-102940557D01*
X202047333Y-102918601D01*
X202054560Y-102894776D01*
X202057000Y-102870000D01*
X202057000Y-98288072D01*
X202587500Y-98288072D01*
X202760754Y-98271008D01*
X202927350Y-98220472D01*
X203080886Y-98138405D01*
X203215462Y-98027962D01*
X203325905Y-97893386D01*
X203407972Y-97739850D01*
X203458508Y-97573254D01*
X203475572Y-97400000D01*
X203475572Y-96475000D01*
X203458508Y-96301746D01*
X203407972Y-96135150D01*
X203325905Y-95981614D01*
X203215462Y-95847038D01*
X203080886Y-95736595D01*
X202927350Y-95654528D01*
X202760754Y-95603992D01*
X202587500Y-95586928D01*
X202057000Y-95586928D01*
X202057000Y-91938072D01*
X202497000Y-91938072D01*
X202670254Y-91921008D01*
X202836850Y-91870472D01*
X202990386Y-91788405D01*
X203124962Y-91677962D01*
X203235405Y-91543386D01*
X203317472Y-91389850D01*
X203368008Y-91223254D01*
X203385072Y-91050000D01*
X203385072Y-90125000D01*
X203368008Y-89951746D01*
X203317472Y-89785150D01*
X203235405Y-89631614D01*
X203124962Y-89497038D01*
X202990386Y-89386595D01*
X202836850Y-89304528D01*
X202670254Y-89253992D01*
X202497000Y-89236928D01*
X202057000Y-89236928D01*
X202057000Y-88900000D01*
X202054560Y-88875224D01*
X202047333Y-88851399D01*
X202035597Y-88829443D01*
X202019803Y-88810197D01*
X202000557Y-88794403D01*
X201978601Y-88782667D01*
X201954776Y-88775440D01*
X201930000Y-88773000D01*
X200152000Y-88773000D01*
X200152000Y-85588072D01*
X200428500Y-85588072D01*
X200601754Y-85571008D01*
X200768350Y-85520472D01*
X200921886Y-85438405D01*
X201056462Y-85327962D01*
X201166905Y-85193386D01*
X201248972Y-85039850D01*
X201299508Y-84873254D01*
X201316572Y-84700000D01*
X201316572Y-83947000D01*
X201930000Y-83947000D01*
X201954776Y-83944560D01*
X201978601Y-83937333D01*
X202000557Y-83925597D01*
X202019803Y-83909803D01*
X202035597Y-83890557D01*
X202047333Y-83868601D01*
X202054560Y-83844776D01*
X202057000Y-83820000D01*
X202057000Y-79238072D01*
X202587500Y-79238072D01*
X202760754Y-79221008D01*
X202927350Y-79170472D01*
X203080886Y-79088405D01*
X203215462Y-78977962D01*
X203325905Y-78843386D01*
X203407972Y-78689850D01*
X203458508Y-78523254D01*
X203475572Y-78350000D01*
X203475572Y-77425000D01*
X203458508Y-77251746D01*
X203407972Y-77085150D01*
X203342147Y-76962000D01*
X204978000Y-76962000D01*
X204978000Y-107188000D01*
G37*
%TD.AperFunction*%
%TD*%
D12*
%TO.N,Net-(D15-Pad1)*%
X201168000Y-98561928D02*
X200437500Y-98561928D01*
X200264246Y-98578992D01*
X200097650Y-98629528D01*
X199944114Y-98711595D01*
X199809538Y-98822038D01*
X199699095Y-98956614D01*
X199617028Y-99110150D01*
X199566492Y-99276746D01*
X199549428Y-99450000D01*
X199549428Y-100375000D01*
X199566492Y-100548254D01*
X199617028Y-100714850D01*
X199682853Y-100838000D01*
X186182000Y-100838000D01*
X186182000Y-98288072D01*
X186712500Y-98288072D01*
X186885754Y-98271008D01*
X187052350Y-98220472D01*
X187205886Y-98138405D01*
X187340462Y-98027962D01*
X187450905Y-97893386D01*
X187532972Y-97739850D01*
X187583508Y-97573254D01*
X187600572Y-97400000D01*
X187600572Y-96647000D01*
X201168000Y-96647000D01*
X201168000Y-98561928D01*
%TA.AperFunction,Conductor*%
D13*
G36*
X201168000Y-98561928D02*
G01*
X200437500Y-98561928D01*
X200264246Y-98578992D01*
X200097650Y-98629528D01*
X199944114Y-98711595D01*
X199809538Y-98822038D01*
X199699095Y-98956614D01*
X199617028Y-99110150D01*
X199566492Y-99276746D01*
X199549428Y-99450000D01*
X199549428Y-100375000D01*
X199566492Y-100548254D01*
X199617028Y-100714850D01*
X199682853Y-100838000D01*
X186182000Y-100838000D01*
X186182000Y-98288072D01*
X186712500Y-98288072D01*
X186885754Y-98271008D01*
X187052350Y-98220472D01*
X187205886Y-98138405D01*
X187340462Y-98027962D01*
X187450905Y-97893386D01*
X187532972Y-97739850D01*
X187583508Y-97573254D01*
X187600572Y-97400000D01*
X187600572Y-96647000D01*
X201168000Y-96647000D01*
X201168000Y-98561928D01*
G37*
%TD.AperFunction*%
%TD*%
D12*
%TO.N,Net-(D37-Pad1)*%
X201168000Y-92211928D02*
X200347000Y-92211928D01*
X200173746Y-92228992D01*
X200007150Y-92279528D01*
X199853614Y-92361595D01*
X199719038Y-92472038D01*
X199608595Y-92606614D01*
X199526528Y-92760150D01*
X199475992Y-92926746D01*
X199458928Y-93100000D01*
X199458928Y-93853000D01*
X186182000Y-93853000D01*
X186182000Y-91938072D01*
X186749000Y-91938072D01*
X186922254Y-91921008D01*
X187088850Y-91870472D01*
X187242386Y-91788405D01*
X187376962Y-91677962D01*
X187487405Y-91543386D01*
X187569472Y-91389850D01*
X187620008Y-91223254D01*
X187637072Y-91050000D01*
X187637072Y-90125000D01*
X187628996Y-90043000D01*
X201168000Y-90043000D01*
X201168000Y-92211928D01*
%TA.AperFunction,Conductor*%
D13*
G36*
X201168000Y-92211928D02*
G01*
X200347000Y-92211928D01*
X200173746Y-92228992D01*
X200007150Y-92279528D01*
X199853614Y-92361595D01*
X199719038Y-92472038D01*
X199608595Y-92606614D01*
X199526528Y-92760150D01*
X199475992Y-92926746D01*
X199458928Y-93100000D01*
X199458928Y-93853000D01*
X186182000Y-93853000D01*
X186182000Y-91938072D01*
X186749000Y-91938072D01*
X186922254Y-91921008D01*
X187088850Y-91870472D01*
X187242386Y-91788405D01*
X187376962Y-91677962D01*
X187487405Y-91543386D01*
X187569472Y-91389850D01*
X187620008Y-91223254D01*
X187637072Y-91050000D01*
X187637072Y-90125000D01*
X187628996Y-90043000D01*
X201168000Y-90043000D01*
X201168000Y-92211928D01*
G37*
%TD.AperFunction*%
%TD*%
D12*
%TO.N,Net-(D22-Pad1)*%
X198628000Y-85861928D02*
X198278500Y-85861928D01*
X198105246Y-85878992D01*
X197938650Y-85929528D01*
X197785114Y-86011595D01*
X197650538Y-86122038D01*
X197540095Y-86256614D01*
X197458028Y-86410150D01*
X197407492Y-86576746D01*
X197390428Y-86750000D01*
X197390428Y-87503000D01*
X181737000Y-87503000D01*
X181737000Y-85588072D01*
X182140500Y-85588072D01*
X182313754Y-85571008D01*
X182480350Y-85520472D01*
X182633886Y-85438405D01*
X182768462Y-85327962D01*
X182878905Y-85193386D01*
X182960972Y-85039850D01*
X183011508Y-84873254D01*
X183028572Y-84700000D01*
X183028572Y-83775000D01*
X183011508Y-83601746D01*
X182960972Y-83435150D01*
X182895147Y-83312000D01*
X198628000Y-83312000D01*
X198628000Y-85861928D01*
%TA.AperFunction,Conductor*%
D13*
G36*
X198628000Y-85861928D02*
G01*
X198278500Y-85861928D01*
X198105246Y-85878992D01*
X197938650Y-85929528D01*
X197785114Y-86011595D01*
X197650538Y-86122038D01*
X197540095Y-86256614D01*
X197458028Y-86410150D01*
X197407492Y-86576746D01*
X197390428Y-86750000D01*
X197390428Y-87503000D01*
X181737000Y-87503000D01*
X181737000Y-85588072D01*
X182140500Y-85588072D01*
X182313754Y-85571008D01*
X182480350Y-85520472D01*
X182633886Y-85438405D01*
X182768462Y-85327962D01*
X182878905Y-85193386D01*
X182960972Y-85039850D01*
X183011508Y-84873254D01*
X183028572Y-84700000D01*
X183028572Y-83775000D01*
X183011508Y-83601746D01*
X182960972Y-83435150D01*
X182895147Y-83312000D01*
X198628000Y-83312000D01*
X198628000Y-85861928D01*
G37*
%TD.AperFunction*%
%TD*%
D12*
%TO.N,Net-(D7-Pad1)*%
X200533000Y-79511928D02*
X200437500Y-79511928D01*
X200264246Y-79528992D01*
X200097650Y-79579528D01*
X199944114Y-79661595D01*
X199809538Y-79772038D01*
X199699095Y-79906614D01*
X199617028Y-80060150D01*
X199566492Y-80226746D01*
X199549428Y-80400000D01*
X199549428Y-81325000D01*
X199566492Y-81498254D01*
X199617028Y-81664850D01*
X199682853Y-81788000D01*
X186182000Y-81788000D01*
X186182000Y-79238072D01*
X186712500Y-79238072D01*
X186885754Y-79221008D01*
X187052350Y-79170472D01*
X187205886Y-79088405D01*
X187340462Y-78977962D01*
X187450905Y-78843386D01*
X187532972Y-78689850D01*
X187583508Y-78523254D01*
X187600572Y-78350000D01*
X187600572Y-77425000D01*
X187583508Y-77251746D01*
X187532972Y-77085150D01*
X187467147Y-76962000D01*
X200533000Y-76962000D01*
X200533000Y-79511928D01*
%TA.AperFunction,Conductor*%
D13*
G36*
X200533000Y-79511928D02*
G01*
X200437500Y-79511928D01*
X200264246Y-79528992D01*
X200097650Y-79579528D01*
X199944114Y-79661595D01*
X199809538Y-79772038D01*
X199699095Y-79906614D01*
X199617028Y-80060150D01*
X199566492Y-80226746D01*
X199549428Y-80400000D01*
X199549428Y-81325000D01*
X199566492Y-81498254D01*
X199617028Y-81664850D01*
X199682853Y-81788000D01*
X186182000Y-81788000D01*
X186182000Y-79238072D01*
X186712500Y-79238072D01*
X186885754Y-79221008D01*
X187052350Y-79170472D01*
X187205886Y-79088405D01*
X187340462Y-78977962D01*
X187450905Y-78843386D01*
X187532972Y-78689850D01*
X187583508Y-78523254D01*
X187600572Y-78350000D01*
X187600572Y-77425000D01*
X187583508Y-77251746D01*
X187532972Y-77085150D01*
X187467147Y-76962000D01*
X200533000Y-76962000D01*
X200533000Y-79511928D01*
G37*
%TD.AperFunction*%
%TD*%
D12*
%TO.N,Net-(D6-Pad1)*%
X185293000Y-79511928D02*
X184562500Y-79511928D01*
X184389246Y-79528992D01*
X184222650Y-79579528D01*
X184069114Y-79661595D01*
X183934538Y-79772038D01*
X183824095Y-79906614D01*
X183742028Y-80060150D01*
X183691492Y-80226746D01*
X183674428Y-80400000D01*
X183674428Y-81325000D01*
X183691492Y-81498254D01*
X183742028Y-81664850D01*
X183807853Y-81788000D01*
X170307000Y-81788000D01*
X170307000Y-79238072D01*
X170837500Y-79238072D01*
X171010754Y-79221008D01*
X171177350Y-79170472D01*
X171330886Y-79088405D01*
X171465462Y-78977962D01*
X171575905Y-78843386D01*
X171657972Y-78689850D01*
X171708508Y-78523254D01*
X171725572Y-78350000D01*
X171725572Y-77425000D01*
X171708508Y-77251746D01*
X171657972Y-77085150D01*
X171592147Y-76962000D01*
X185293000Y-76962000D01*
X185293000Y-79511928D01*
%TA.AperFunction,Conductor*%
D13*
G36*
X185293000Y-79511928D02*
G01*
X184562500Y-79511928D01*
X184389246Y-79528992D01*
X184222650Y-79579528D01*
X184069114Y-79661595D01*
X183934538Y-79772038D01*
X183824095Y-79906614D01*
X183742028Y-80060150D01*
X183691492Y-80226746D01*
X183674428Y-80400000D01*
X183674428Y-81325000D01*
X183691492Y-81498254D01*
X183742028Y-81664850D01*
X183807853Y-81788000D01*
X170307000Y-81788000D01*
X170307000Y-79238072D01*
X170837500Y-79238072D01*
X171010754Y-79221008D01*
X171177350Y-79170472D01*
X171330886Y-79088405D01*
X171465462Y-78977962D01*
X171575905Y-78843386D01*
X171657972Y-78689850D01*
X171708508Y-78523254D01*
X171725572Y-78350000D01*
X171725572Y-77425000D01*
X171708508Y-77251746D01*
X171657972Y-77085150D01*
X171592147Y-76962000D01*
X185293000Y-76962000D01*
X185293000Y-79511928D01*
G37*
%TD.AperFunction*%
%TD*%
D12*
%TO.N,Net-(D21-Pad1)*%
X180848000Y-85861928D02*
X179990500Y-85861928D01*
X179817246Y-85878992D01*
X179650650Y-85929528D01*
X179497114Y-86011595D01*
X179362538Y-86122038D01*
X179252095Y-86256614D01*
X179170028Y-86410150D01*
X179119492Y-86576746D01*
X179102428Y-86750000D01*
X179102428Y-87503000D01*
X163957000Y-87503000D01*
X163957000Y-85588072D01*
X164106500Y-85588072D01*
X164279754Y-85571008D01*
X164446350Y-85520472D01*
X164599886Y-85438405D01*
X164734462Y-85327962D01*
X164844905Y-85193386D01*
X164926972Y-85039850D01*
X164977508Y-84873254D01*
X164994572Y-84700000D01*
X164994572Y-83775000D01*
X164977508Y-83601746D01*
X164926972Y-83435150D01*
X164861147Y-83312000D01*
X180848000Y-83312000D01*
X180848000Y-85861928D01*
%TA.AperFunction,Conductor*%
D13*
G36*
X180848000Y-85861928D02*
G01*
X179990500Y-85861928D01*
X179817246Y-85878992D01*
X179650650Y-85929528D01*
X179497114Y-86011595D01*
X179362538Y-86122038D01*
X179252095Y-86256614D01*
X179170028Y-86410150D01*
X179119492Y-86576746D01*
X179102428Y-86750000D01*
X179102428Y-87503000D01*
X163957000Y-87503000D01*
X163957000Y-85588072D01*
X164106500Y-85588072D01*
X164279754Y-85571008D01*
X164446350Y-85520472D01*
X164599886Y-85438405D01*
X164734462Y-85327962D01*
X164844905Y-85193386D01*
X164926972Y-85039850D01*
X164977508Y-84873254D01*
X164994572Y-84700000D01*
X164994572Y-83775000D01*
X164977508Y-83601746D01*
X164926972Y-83435150D01*
X164861147Y-83312000D01*
X180848000Y-83312000D01*
X180848000Y-85861928D01*
G37*
%TD.AperFunction*%
%TD*%
D12*
%TO.N,Net-(D36-Pad1)*%
X185293000Y-92211928D02*
X184599000Y-92211928D01*
X184425746Y-92228992D01*
X184259150Y-92279528D01*
X184105614Y-92361595D01*
X183971038Y-92472038D01*
X183860595Y-92606614D01*
X183778528Y-92760150D01*
X183727992Y-92926746D01*
X183710928Y-93100000D01*
X183710928Y-93853000D01*
X170307000Y-93853000D01*
X170307000Y-91938072D01*
X170747000Y-91938072D01*
X170920254Y-91921008D01*
X171086850Y-91870472D01*
X171240386Y-91788405D01*
X171374962Y-91677962D01*
X171485405Y-91543386D01*
X171567472Y-91389850D01*
X171618008Y-91223254D01*
X171635072Y-91050000D01*
X171635072Y-90297000D01*
X185293000Y-90297000D01*
X185293000Y-92211928D01*
%TA.AperFunction,Conductor*%
D13*
G36*
X185293000Y-92211928D02*
G01*
X184599000Y-92211928D01*
X184425746Y-92228992D01*
X184259150Y-92279528D01*
X184105614Y-92361595D01*
X183971038Y-92472038D01*
X183860595Y-92606614D01*
X183778528Y-92760150D01*
X183727992Y-92926746D01*
X183710928Y-93100000D01*
X183710928Y-93853000D01*
X170307000Y-93853000D01*
X170307000Y-91938072D01*
X170747000Y-91938072D01*
X170920254Y-91921008D01*
X171086850Y-91870472D01*
X171240386Y-91788405D01*
X171374962Y-91677962D01*
X171485405Y-91543386D01*
X171567472Y-91389850D01*
X171618008Y-91223254D01*
X171635072Y-91050000D01*
X171635072Y-90297000D01*
X185293000Y-90297000D01*
X185293000Y-92211928D01*
G37*
%TD.AperFunction*%
%TD*%
D12*
%TO.N,Net-(D14-Pad1)*%
X185293000Y-98561928D02*
X184562500Y-98561928D01*
X184389246Y-98578992D01*
X184222650Y-98629528D01*
X184069114Y-98711595D01*
X183934538Y-98822038D01*
X183824095Y-98956614D01*
X183742028Y-99110150D01*
X183691492Y-99276746D01*
X183674428Y-99450000D01*
X183674428Y-100375000D01*
X183691492Y-100548254D01*
X183742028Y-100714850D01*
X183807853Y-100838000D01*
X170307000Y-100838000D01*
X170307000Y-98288072D01*
X170837500Y-98288072D01*
X171010754Y-98271008D01*
X171177350Y-98220472D01*
X171330886Y-98138405D01*
X171465462Y-98027962D01*
X171575905Y-97893386D01*
X171657972Y-97739850D01*
X171708508Y-97573254D01*
X171725572Y-97400000D01*
X171725572Y-96647000D01*
X185293000Y-96647000D01*
X185293000Y-98561928D01*
%TA.AperFunction,Conductor*%
D13*
G36*
X185293000Y-98561928D02*
G01*
X184562500Y-98561928D01*
X184389246Y-98578992D01*
X184222650Y-98629528D01*
X184069114Y-98711595D01*
X183934538Y-98822038D01*
X183824095Y-98956614D01*
X183742028Y-99110150D01*
X183691492Y-99276746D01*
X183674428Y-99450000D01*
X183674428Y-100375000D01*
X183691492Y-100548254D01*
X183742028Y-100714850D01*
X183807853Y-100838000D01*
X170307000Y-100838000D01*
X170307000Y-98288072D01*
X170837500Y-98288072D01*
X171010754Y-98271008D01*
X171177350Y-98220472D01*
X171330886Y-98138405D01*
X171465462Y-98027962D01*
X171575905Y-97893386D01*
X171657972Y-97739850D01*
X171708508Y-97573254D01*
X171725572Y-97400000D01*
X171725572Y-96647000D01*
X185293000Y-96647000D01*
X185293000Y-98561928D01*
G37*
%TD.AperFunction*%
%TD*%
D12*
%TO.N,Net-(D28-Pad1)*%
X180848000Y-104911928D02*
X179990500Y-104911928D01*
X179817246Y-104928992D01*
X179650650Y-104979528D01*
X179497114Y-105061595D01*
X179362538Y-105172038D01*
X179252095Y-105306614D01*
X179170028Y-105460150D01*
X179119492Y-105626746D01*
X179102428Y-105800000D01*
X179102428Y-106725000D01*
X179119492Y-106898254D01*
X179170028Y-107064850D01*
X179235853Y-107188000D01*
X163322000Y-107188000D01*
X163322000Y-104638072D01*
X164106500Y-104638072D01*
X164279754Y-104621008D01*
X164446350Y-104570472D01*
X164599886Y-104488405D01*
X164734462Y-104377962D01*
X164844905Y-104243386D01*
X164926972Y-104089850D01*
X164977508Y-103923254D01*
X164994572Y-103750000D01*
X164994572Y-102825000D01*
X164977508Y-102651746D01*
X164926972Y-102485150D01*
X164861147Y-102362000D01*
X180848000Y-102362000D01*
X180848000Y-104911928D01*
%TA.AperFunction,Conductor*%
D13*
G36*
X180848000Y-104911928D02*
G01*
X179990500Y-104911928D01*
X179817246Y-104928992D01*
X179650650Y-104979528D01*
X179497114Y-105061595D01*
X179362538Y-105172038D01*
X179252095Y-105306614D01*
X179170028Y-105460150D01*
X179119492Y-105626746D01*
X179102428Y-105800000D01*
X179102428Y-106725000D01*
X179119492Y-106898254D01*
X179170028Y-107064850D01*
X179235853Y-107188000D01*
X163322000Y-107188000D01*
X163322000Y-104638072D01*
X164106500Y-104638072D01*
X164279754Y-104621008D01*
X164446350Y-104570472D01*
X164599886Y-104488405D01*
X164734462Y-104377962D01*
X164844905Y-104243386D01*
X164926972Y-104089850D01*
X164977508Y-103923254D01*
X164994572Y-103750000D01*
X164994572Y-102825000D01*
X164977508Y-102651746D01*
X164926972Y-102485150D01*
X164861147Y-102362000D01*
X180848000Y-102362000D01*
X180848000Y-104911928D01*
G37*
%TD.AperFunction*%
%TD*%
D12*
%TO.N,Net-(D5-Pad1)*%
X169418000Y-79511928D02*
X168687500Y-79511928D01*
X168514246Y-79528992D01*
X168347650Y-79579528D01*
X168194114Y-79661595D01*
X168059538Y-79772038D01*
X167949095Y-79906614D01*
X167867028Y-80060150D01*
X167816492Y-80226746D01*
X167799428Y-80400000D01*
X167799428Y-81325000D01*
X167816492Y-81498254D01*
X167867028Y-81664850D01*
X167932853Y-81788000D01*
X154432000Y-81788000D01*
X154432000Y-79238072D01*
X154962500Y-79238072D01*
X155135754Y-79221008D01*
X155302350Y-79170472D01*
X155455886Y-79088405D01*
X155590462Y-78977962D01*
X155700905Y-78843386D01*
X155782972Y-78689850D01*
X155833508Y-78523254D01*
X155850572Y-78350000D01*
X155850572Y-77425000D01*
X155833508Y-77251746D01*
X155782972Y-77085150D01*
X155717147Y-76962000D01*
X169418000Y-76962000D01*
X169418000Y-79511928D01*
%TA.AperFunction,Conductor*%
D13*
G36*
X169418000Y-79511928D02*
G01*
X168687500Y-79511928D01*
X168514246Y-79528992D01*
X168347650Y-79579528D01*
X168194114Y-79661595D01*
X168059538Y-79772038D01*
X167949095Y-79906614D01*
X167867028Y-80060150D01*
X167816492Y-80226746D01*
X167799428Y-80400000D01*
X167799428Y-81325000D01*
X167816492Y-81498254D01*
X167867028Y-81664850D01*
X167932853Y-81788000D01*
X154432000Y-81788000D01*
X154432000Y-79238072D01*
X154962500Y-79238072D01*
X155135754Y-79221008D01*
X155302350Y-79170472D01*
X155455886Y-79088405D01*
X155590462Y-78977962D01*
X155700905Y-78843386D01*
X155782972Y-78689850D01*
X155833508Y-78523254D01*
X155850572Y-78350000D01*
X155850572Y-77425000D01*
X155833508Y-77251746D01*
X155782972Y-77085150D01*
X155717147Y-76962000D01*
X169418000Y-76962000D01*
X169418000Y-79511928D01*
G37*
%TD.AperFunction*%
%TD*%
D12*
%TO.N,Net-(D4-Pad1)*%
X153543000Y-79511928D02*
X152812500Y-79511928D01*
X152639246Y-79528992D01*
X152472650Y-79579528D01*
X152319114Y-79661595D01*
X152184538Y-79772038D01*
X152074095Y-79906614D01*
X151992028Y-80060150D01*
X151941492Y-80226746D01*
X151924428Y-80400000D01*
X151924428Y-81325000D01*
X151941492Y-81498254D01*
X151992028Y-81664850D01*
X152057853Y-81788000D01*
X138557000Y-81788000D01*
X138557000Y-79238072D01*
X139087500Y-79238072D01*
X139260754Y-79221008D01*
X139427350Y-79170472D01*
X139580886Y-79088405D01*
X139715462Y-78977962D01*
X139825905Y-78843386D01*
X139907972Y-78689850D01*
X139958508Y-78523254D01*
X139975572Y-78350000D01*
X139975572Y-77425000D01*
X139958508Y-77251746D01*
X139907972Y-77085150D01*
X139842147Y-76962000D01*
X153543000Y-76962000D01*
X153543000Y-79511928D01*
%TA.AperFunction,Conductor*%
D13*
G36*
X153543000Y-79511928D02*
G01*
X152812500Y-79511928D01*
X152639246Y-79528992D01*
X152472650Y-79579528D01*
X152319114Y-79661595D01*
X152184538Y-79772038D01*
X152074095Y-79906614D01*
X151992028Y-80060150D01*
X151941492Y-80226746D01*
X151924428Y-80400000D01*
X151924428Y-81325000D01*
X151941492Y-81498254D01*
X151992028Y-81664850D01*
X152057853Y-81788000D01*
X138557000Y-81788000D01*
X138557000Y-79238072D01*
X139087500Y-79238072D01*
X139260754Y-79221008D01*
X139427350Y-79170472D01*
X139580886Y-79088405D01*
X139715462Y-78977962D01*
X139825905Y-78843386D01*
X139907972Y-78689850D01*
X139958508Y-78523254D01*
X139975572Y-78350000D01*
X139975572Y-77425000D01*
X139958508Y-77251746D01*
X139907972Y-77085150D01*
X139842147Y-76962000D01*
X153543000Y-76962000D01*
X153543000Y-79511928D01*
G37*
%TD.AperFunction*%
%TD*%
D12*
%TO.N,Net-(D3-Pad1)*%
X137668000Y-79511928D02*
X136937500Y-79511928D01*
X136764246Y-79528992D01*
X136597650Y-79579528D01*
X136444114Y-79661595D01*
X136309538Y-79772038D01*
X136199095Y-79906614D01*
X136117028Y-80060150D01*
X136066492Y-80226746D01*
X136049428Y-80400000D01*
X136049428Y-81325000D01*
X136066492Y-81498254D01*
X136117028Y-81664850D01*
X136182853Y-81788000D01*
X122682000Y-81788000D01*
X122682000Y-79238072D01*
X123212500Y-79238072D01*
X123385754Y-79221008D01*
X123552350Y-79170472D01*
X123705886Y-79088405D01*
X123840462Y-78977962D01*
X123950905Y-78843386D01*
X124032972Y-78689850D01*
X124083508Y-78523254D01*
X124100572Y-78350000D01*
X124100572Y-77425000D01*
X124083508Y-77251746D01*
X124032972Y-77085150D01*
X123967147Y-76962000D01*
X137668000Y-76962000D01*
X137668000Y-79511928D01*
%TA.AperFunction,Conductor*%
D13*
G36*
X137668000Y-79511928D02*
G01*
X136937500Y-79511928D01*
X136764246Y-79528992D01*
X136597650Y-79579528D01*
X136444114Y-79661595D01*
X136309538Y-79772038D01*
X136199095Y-79906614D01*
X136117028Y-80060150D01*
X136066492Y-80226746D01*
X136049428Y-80400000D01*
X136049428Y-81325000D01*
X136066492Y-81498254D01*
X136117028Y-81664850D01*
X136182853Y-81788000D01*
X122682000Y-81788000D01*
X122682000Y-79238072D01*
X123212500Y-79238072D01*
X123385754Y-79221008D01*
X123552350Y-79170472D01*
X123705886Y-79088405D01*
X123840462Y-78977962D01*
X123950905Y-78843386D01*
X124032972Y-78689850D01*
X124083508Y-78523254D01*
X124100572Y-78350000D01*
X124100572Y-77425000D01*
X124083508Y-77251746D01*
X124032972Y-77085150D01*
X123967147Y-76962000D01*
X137668000Y-76962000D01*
X137668000Y-79511928D01*
G37*
%TD.AperFunction*%
%TD*%
D12*
%TO.N,Net-(D2-Pad1)*%
X121793000Y-79511928D02*
X121062500Y-79511928D01*
X120889246Y-79528992D01*
X120722650Y-79579528D01*
X120569114Y-79661595D01*
X120434538Y-79772038D01*
X120324095Y-79906614D01*
X120242028Y-80060150D01*
X120191492Y-80226746D01*
X120174428Y-80400000D01*
X120174428Y-81325000D01*
X120191492Y-81498254D01*
X120242028Y-81664850D01*
X120307853Y-81788000D01*
X106807000Y-81788000D01*
X106807000Y-79238072D01*
X107337500Y-79238072D01*
X107510754Y-79221008D01*
X107677350Y-79170472D01*
X107830886Y-79088405D01*
X107965462Y-78977962D01*
X108075905Y-78843386D01*
X108157972Y-78689850D01*
X108208508Y-78523254D01*
X108225572Y-78350000D01*
X108225572Y-77425000D01*
X108208508Y-77251746D01*
X108157972Y-77085150D01*
X108092147Y-76962000D01*
X121793000Y-76962000D01*
X121793000Y-79511928D01*
%TA.AperFunction,Conductor*%
D13*
G36*
X121793000Y-79511928D02*
G01*
X121062500Y-79511928D01*
X120889246Y-79528992D01*
X120722650Y-79579528D01*
X120569114Y-79661595D01*
X120434538Y-79772038D01*
X120324095Y-79906614D01*
X120242028Y-80060150D01*
X120191492Y-80226746D01*
X120174428Y-80400000D01*
X120174428Y-81325000D01*
X120191492Y-81498254D01*
X120242028Y-81664850D01*
X120307853Y-81788000D01*
X106807000Y-81788000D01*
X106807000Y-79238072D01*
X107337500Y-79238072D01*
X107510754Y-79221008D01*
X107677350Y-79170472D01*
X107830886Y-79088405D01*
X107965462Y-78977962D01*
X108075905Y-78843386D01*
X108157972Y-78689850D01*
X108208508Y-78523254D01*
X108225572Y-78350000D01*
X108225572Y-77425000D01*
X108208508Y-77251746D01*
X108157972Y-77085150D01*
X108092147Y-76962000D01*
X121793000Y-76962000D01*
X121793000Y-79511928D01*
G37*
%TD.AperFunction*%
%TD*%
D12*
%TO.N,Net-(D1-Pad1)*%
X105918000Y-79511928D02*
X105187500Y-79511928D01*
X105014246Y-79528992D01*
X104847650Y-79579528D01*
X104694114Y-79661595D01*
X104559538Y-79772038D01*
X104449095Y-79906614D01*
X104367028Y-80060150D01*
X104316492Y-80226746D01*
X104299428Y-80400000D01*
X104299428Y-81325000D01*
X104316492Y-81498254D01*
X104367028Y-81664850D01*
X104432853Y-81788000D01*
X90932000Y-81788000D01*
X90932000Y-79238072D01*
X91462500Y-79238072D01*
X91635754Y-79221008D01*
X91802350Y-79170472D01*
X91955886Y-79088405D01*
X92090462Y-78977962D01*
X92200905Y-78843386D01*
X92282972Y-78689850D01*
X92333508Y-78523254D01*
X92350572Y-78350000D01*
X92350572Y-77425000D01*
X92333508Y-77251746D01*
X92282972Y-77085150D01*
X92217147Y-76962000D01*
X105918000Y-76962000D01*
X105918000Y-79511928D01*
%TA.AperFunction,Conductor*%
D13*
G36*
X105918000Y-79511928D02*
G01*
X105187500Y-79511928D01*
X105014246Y-79528992D01*
X104847650Y-79579528D01*
X104694114Y-79661595D01*
X104559538Y-79772038D01*
X104449095Y-79906614D01*
X104367028Y-80060150D01*
X104316492Y-80226746D01*
X104299428Y-80400000D01*
X104299428Y-81325000D01*
X104316492Y-81498254D01*
X104367028Y-81664850D01*
X104432853Y-81788000D01*
X90932000Y-81788000D01*
X90932000Y-79238072D01*
X91462500Y-79238072D01*
X91635754Y-79221008D01*
X91802350Y-79170472D01*
X91955886Y-79088405D01*
X92090462Y-78977962D01*
X92200905Y-78843386D01*
X92282972Y-78689850D01*
X92333508Y-78523254D01*
X92350572Y-78350000D01*
X92350572Y-77425000D01*
X92333508Y-77251746D01*
X92282972Y-77085150D01*
X92217147Y-76962000D01*
X105918000Y-76962000D01*
X105918000Y-79511928D01*
G37*
%TD.AperFunction*%
%TD*%
D12*
%TO.N,Net-(D20-Pad1)*%
X163068000Y-85861928D02*
X161956500Y-85861928D01*
X161783246Y-85878992D01*
X161616650Y-85929528D01*
X161463114Y-86011595D01*
X161328538Y-86122038D01*
X161218095Y-86256614D01*
X161136028Y-86410150D01*
X161085492Y-86576746D01*
X161068428Y-86750000D01*
X161068428Y-87503000D01*
X145542000Y-87503000D01*
X145542000Y-85588072D01*
X145818500Y-85588072D01*
X145991754Y-85571008D01*
X146158350Y-85520472D01*
X146311886Y-85438405D01*
X146446462Y-85327962D01*
X146556905Y-85193386D01*
X146638972Y-85039850D01*
X146689508Y-84873254D01*
X146706572Y-84700000D01*
X146706572Y-83775000D01*
X146689508Y-83601746D01*
X146638972Y-83435150D01*
X146573147Y-83312000D01*
X163068000Y-83312000D01*
X163068000Y-85861928D01*
%TA.AperFunction,Conductor*%
D13*
G36*
X163068000Y-85861928D02*
G01*
X161956500Y-85861928D01*
X161783246Y-85878992D01*
X161616650Y-85929528D01*
X161463114Y-86011595D01*
X161328538Y-86122038D01*
X161218095Y-86256614D01*
X161136028Y-86410150D01*
X161085492Y-86576746D01*
X161068428Y-86750000D01*
X161068428Y-87503000D01*
X145542000Y-87503000D01*
X145542000Y-85588072D01*
X145818500Y-85588072D01*
X145991754Y-85571008D01*
X146158350Y-85520472D01*
X146311886Y-85438405D01*
X146446462Y-85327962D01*
X146556905Y-85193386D01*
X146638972Y-85039850D01*
X146689508Y-84873254D01*
X146706572Y-84700000D01*
X146706572Y-83775000D01*
X146689508Y-83601746D01*
X146638972Y-83435150D01*
X146573147Y-83312000D01*
X163068000Y-83312000D01*
X163068000Y-85861928D01*
G37*
%TD.AperFunction*%
%TD*%
D12*
%TO.N,Net-(D19-Pad1)*%
X144653000Y-85861928D02*
X143668500Y-85861928D01*
X143495246Y-85878992D01*
X143328650Y-85929528D01*
X143175114Y-86011595D01*
X143040538Y-86122038D01*
X142930095Y-86256614D01*
X142848028Y-86410150D01*
X142797492Y-86576746D01*
X142780428Y-86750000D01*
X142780428Y-87503000D01*
X127127000Y-87503000D01*
X127127000Y-85588072D01*
X127784500Y-85588072D01*
X127957754Y-85571008D01*
X128124350Y-85520472D01*
X128277886Y-85438405D01*
X128412462Y-85327962D01*
X128522905Y-85193386D01*
X128604972Y-85039850D01*
X128655508Y-84873254D01*
X128672572Y-84700000D01*
X128672572Y-83775000D01*
X128655508Y-83601746D01*
X128604972Y-83435150D01*
X128539147Y-83312000D01*
X144653000Y-83312000D01*
X144653000Y-85861928D01*
%TA.AperFunction,Conductor*%
D13*
G36*
X144653000Y-85861928D02*
G01*
X143668500Y-85861928D01*
X143495246Y-85878992D01*
X143328650Y-85929528D01*
X143175114Y-86011595D01*
X143040538Y-86122038D01*
X142930095Y-86256614D01*
X142848028Y-86410150D01*
X142797492Y-86576746D01*
X142780428Y-86750000D01*
X142780428Y-87503000D01*
X127127000Y-87503000D01*
X127127000Y-85588072D01*
X127784500Y-85588072D01*
X127957754Y-85571008D01*
X128124350Y-85520472D01*
X128277886Y-85438405D01*
X128412462Y-85327962D01*
X128522905Y-85193386D01*
X128604972Y-85039850D01*
X128655508Y-84873254D01*
X128672572Y-84700000D01*
X128672572Y-83775000D01*
X128655508Y-83601746D01*
X128604972Y-83435150D01*
X128539147Y-83312000D01*
X144653000Y-83312000D01*
X144653000Y-85861928D01*
G37*
%TD.AperFunction*%
%TD*%
D12*
%TO.N,Net-(D18-Pad1)*%
X126238000Y-85861928D02*
X125634500Y-85861928D01*
X125461246Y-85878992D01*
X125294650Y-85929528D01*
X125141114Y-86011595D01*
X125006538Y-86122038D01*
X124896095Y-86256614D01*
X124814028Y-86410150D01*
X124763492Y-86576746D01*
X124746428Y-86750000D01*
X124746428Y-87675000D01*
X124763492Y-87848254D01*
X124814028Y-88014850D01*
X124879853Y-88138000D01*
X108712000Y-88138000D01*
X108712000Y-85588072D01*
X109496500Y-85588072D01*
X109669754Y-85571008D01*
X109836350Y-85520472D01*
X109989886Y-85438405D01*
X110124462Y-85327962D01*
X110234905Y-85193386D01*
X110316972Y-85039850D01*
X110367508Y-84873254D01*
X110384572Y-84700000D01*
X110384572Y-83775000D01*
X110367508Y-83601746D01*
X110316972Y-83435150D01*
X110251147Y-83312000D01*
X126238000Y-83312000D01*
X126238000Y-85861928D01*
%TA.AperFunction,Conductor*%
D13*
G36*
X126238000Y-85861928D02*
G01*
X125634500Y-85861928D01*
X125461246Y-85878992D01*
X125294650Y-85929528D01*
X125141114Y-86011595D01*
X125006538Y-86122038D01*
X124896095Y-86256614D01*
X124814028Y-86410150D01*
X124763492Y-86576746D01*
X124746428Y-86750000D01*
X124746428Y-87675000D01*
X124763492Y-87848254D01*
X124814028Y-88014850D01*
X124879853Y-88138000D01*
X108712000Y-88138000D01*
X108712000Y-85588072D01*
X109496500Y-85588072D01*
X109669754Y-85571008D01*
X109836350Y-85520472D01*
X109989886Y-85438405D01*
X110124462Y-85327962D01*
X110234905Y-85193386D01*
X110316972Y-85039850D01*
X110367508Y-84873254D01*
X110384572Y-84700000D01*
X110384572Y-83775000D01*
X110367508Y-83601746D01*
X110316972Y-83435150D01*
X110251147Y-83312000D01*
X126238000Y-83312000D01*
X126238000Y-85861928D01*
G37*
%TD.AperFunction*%
%TD*%
D12*
%TO.N,Net-(D17-Pad1)*%
X107823000Y-85861928D02*
X107346500Y-85861928D01*
X107173246Y-85878992D01*
X107006650Y-85929528D01*
X106853114Y-86011595D01*
X106718538Y-86122038D01*
X106608095Y-86256614D01*
X106526028Y-86410150D01*
X106475492Y-86576746D01*
X106458428Y-86750000D01*
X106458428Y-87675000D01*
X106475492Y-87848254D01*
X106526028Y-88014850D01*
X106591853Y-88138000D01*
X90932000Y-88138000D01*
X90932000Y-85588072D01*
X91462500Y-85588072D01*
X91635754Y-85571008D01*
X91802350Y-85520472D01*
X91955886Y-85438405D01*
X92090462Y-85327962D01*
X92200905Y-85193386D01*
X92282972Y-85039850D01*
X92333508Y-84873254D01*
X92350572Y-84700000D01*
X92350572Y-83775000D01*
X92333508Y-83601746D01*
X92282972Y-83435150D01*
X92217147Y-83312000D01*
X107823000Y-83312000D01*
X107823000Y-85861928D01*
%TA.AperFunction,Conductor*%
D13*
G36*
X107823000Y-85861928D02*
G01*
X107346500Y-85861928D01*
X107173246Y-85878992D01*
X107006650Y-85929528D01*
X106853114Y-86011595D01*
X106718538Y-86122038D01*
X106608095Y-86256614D01*
X106526028Y-86410150D01*
X106475492Y-86576746D01*
X106458428Y-86750000D01*
X106458428Y-87675000D01*
X106475492Y-87848254D01*
X106526028Y-88014850D01*
X106591853Y-88138000D01*
X90932000Y-88138000D01*
X90932000Y-85588072D01*
X91462500Y-85588072D01*
X91635754Y-85571008D01*
X91802350Y-85520472D01*
X91955886Y-85438405D01*
X92090462Y-85327962D01*
X92200905Y-85193386D01*
X92282972Y-85039850D01*
X92333508Y-84873254D01*
X92350572Y-84700000D01*
X92350572Y-83775000D01*
X92333508Y-83601746D01*
X92282972Y-83435150D01*
X92217147Y-83312000D01*
X107823000Y-83312000D01*
X107823000Y-85861928D01*
G37*
%TD.AperFunction*%
%TD*%
D12*
%TO.N,Net-(D35-Pad1)*%
X169418000Y-92211928D02*
X168597000Y-92211928D01*
X168423746Y-92228992D01*
X168257150Y-92279528D01*
X168103614Y-92361595D01*
X167969038Y-92472038D01*
X167858595Y-92606614D01*
X167776528Y-92760150D01*
X167725992Y-92926746D01*
X167708928Y-93100000D01*
X167708928Y-93853000D01*
X154432000Y-93853000D01*
X154432000Y-91938072D01*
X154999000Y-91938072D01*
X155172254Y-91921008D01*
X155338850Y-91870472D01*
X155492386Y-91788405D01*
X155626962Y-91677962D01*
X155737405Y-91543386D01*
X155819472Y-91389850D01*
X155870008Y-91223254D01*
X155887072Y-91050000D01*
X155887072Y-90297000D01*
X169418000Y-90297000D01*
X169418000Y-92211928D01*
%TA.AperFunction,Conductor*%
D13*
G36*
X169418000Y-92211928D02*
G01*
X168597000Y-92211928D01*
X168423746Y-92228992D01*
X168257150Y-92279528D01*
X168103614Y-92361595D01*
X167969038Y-92472038D01*
X167858595Y-92606614D01*
X167776528Y-92760150D01*
X167725992Y-92926746D01*
X167708928Y-93100000D01*
X167708928Y-93853000D01*
X154432000Y-93853000D01*
X154432000Y-91938072D01*
X154999000Y-91938072D01*
X155172254Y-91921008D01*
X155338850Y-91870472D01*
X155492386Y-91788405D01*
X155626962Y-91677962D01*
X155737405Y-91543386D01*
X155819472Y-91389850D01*
X155870008Y-91223254D01*
X155887072Y-91050000D01*
X155887072Y-90297000D01*
X169418000Y-90297000D01*
X169418000Y-92211928D01*
G37*
%TD.AperFunction*%
%TD*%
D12*
%TO.N,Net-(D35-Pad2)*%
X153543000Y-92211928D02*
X152849000Y-92211928D01*
X152675746Y-92228992D01*
X152509150Y-92279528D01*
X152355614Y-92361595D01*
X152221038Y-92472038D01*
X152110595Y-92606614D01*
X152028528Y-92760150D01*
X151977992Y-92926746D01*
X151960928Y-93100000D01*
X151960928Y-93853000D01*
X147563072Y-93853000D01*
X147563072Y-93225000D01*
X147546008Y-93051746D01*
X147495472Y-92885150D01*
X147413405Y-92731614D01*
X147302962Y-92597038D01*
X147168386Y-92486595D01*
X147014850Y-92404528D01*
X146848254Y-92353992D01*
X146812000Y-92350421D01*
X146812000Y-90297000D01*
X153543000Y-90297000D01*
X153543000Y-92211928D01*
%TA.AperFunction,Conductor*%
D13*
G36*
X153543000Y-92211928D02*
G01*
X152849000Y-92211928D01*
X152675746Y-92228992D01*
X152509150Y-92279528D01*
X152355614Y-92361595D01*
X152221038Y-92472038D01*
X152110595Y-92606614D01*
X152028528Y-92760150D01*
X151977992Y-92926746D01*
X151960928Y-93100000D01*
X151960928Y-93853000D01*
X147563072Y-93853000D01*
X147563072Y-93225000D01*
X147546008Y-93051746D01*
X147495472Y-92885150D01*
X147413405Y-92731614D01*
X147302962Y-92597038D01*
X147168386Y-92486595D01*
X147014850Y-92404528D01*
X146848254Y-92353992D01*
X146812000Y-92350421D01*
X146812000Y-90297000D01*
X153543000Y-90297000D01*
X153543000Y-92211928D01*
G37*
%TD.AperFunction*%
%TD*%
D12*
%TO.N,Net-(D16-Pad1)*%
X142113000Y-94488000D02*
X138557000Y-94488000D01*
X138557000Y-91938072D01*
X138997000Y-91938072D01*
X139170254Y-91921008D01*
X139336850Y-91870472D01*
X139490386Y-91788405D01*
X139624962Y-91677962D01*
X139735405Y-91543386D01*
X139817472Y-91389850D01*
X139868008Y-91223254D01*
X139885072Y-91050000D01*
X139885072Y-90125000D01*
X139868008Y-89951746D01*
X139817472Y-89785150D01*
X139751647Y-89662000D01*
X142113000Y-89662000D01*
X142113000Y-94488000D01*
%TA.AperFunction,Conductor*%
D13*
G36*
X142113000Y-94488000D02*
G01*
X138557000Y-94488000D01*
X138557000Y-91938072D01*
X138997000Y-91938072D01*
X139170254Y-91921008D01*
X139336850Y-91870472D01*
X139490386Y-91788405D01*
X139624962Y-91677962D01*
X139735405Y-91543386D01*
X139817472Y-91389850D01*
X139868008Y-91223254D01*
X139885072Y-91050000D01*
X139885072Y-90125000D01*
X139868008Y-89951746D01*
X139817472Y-89785150D01*
X139751647Y-89662000D01*
X142113000Y-89662000D01*
X142113000Y-94488000D01*
G37*
%TD.AperFunction*%
%TD*%
D12*
%TO.N,Net-(D33-Pad1)*%
X137668000Y-92211928D02*
X136847000Y-92211928D01*
X136673746Y-92228992D01*
X136507150Y-92279528D01*
X136353614Y-92361595D01*
X136219038Y-92472038D01*
X136108595Y-92606614D01*
X136026528Y-92760150D01*
X135975992Y-92926746D01*
X135958928Y-93100000D01*
X135958928Y-94025000D01*
X135975992Y-94198254D01*
X136026528Y-94364850D01*
X136092353Y-94488000D01*
X122682000Y-94488000D01*
X122682000Y-91938072D01*
X123249000Y-91938072D01*
X123422254Y-91921008D01*
X123588850Y-91870472D01*
X123742386Y-91788405D01*
X123876962Y-91677962D01*
X123987405Y-91543386D01*
X124069472Y-91389850D01*
X124120008Y-91223254D01*
X124137072Y-91050000D01*
X124137072Y-90125000D01*
X124120008Y-89951746D01*
X124069472Y-89785150D01*
X124003647Y-89662000D01*
X137668000Y-89662000D01*
X137668000Y-92211928D01*
%TA.AperFunction,Conductor*%
D13*
G36*
X137668000Y-92211928D02*
G01*
X136847000Y-92211928D01*
X136673746Y-92228992D01*
X136507150Y-92279528D01*
X136353614Y-92361595D01*
X136219038Y-92472038D01*
X136108595Y-92606614D01*
X136026528Y-92760150D01*
X135975992Y-92926746D01*
X135958928Y-93100000D01*
X135958928Y-94025000D01*
X135975992Y-94198254D01*
X136026528Y-94364850D01*
X136092353Y-94488000D01*
X122682000Y-94488000D01*
X122682000Y-91938072D01*
X123249000Y-91938072D01*
X123422254Y-91921008D01*
X123588850Y-91870472D01*
X123742386Y-91788405D01*
X123876962Y-91677962D01*
X123987405Y-91543386D01*
X124069472Y-91389850D01*
X124120008Y-91223254D01*
X124137072Y-91050000D01*
X124137072Y-90125000D01*
X124120008Y-89951746D01*
X124069472Y-89785150D01*
X124003647Y-89662000D01*
X137668000Y-89662000D01*
X137668000Y-92211928D01*
G37*
%TD.AperFunction*%
%TD*%
D12*
%TO.N,Net-(D32-Pad1)*%
X121793000Y-92211928D02*
X121099000Y-92211928D01*
X120925746Y-92228992D01*
X120759150Y-92279528D01*
X120605614Y-92361595D01*
X120471038Y-92472038D01*
X120360595Y-92606614D01*
X120278528Y-92760150D01*
X120227992Y-92926746D01*
X120210928Y-93100000D01*
X120210928Y-94025000D01*
X120227992Y-94198254D01*
X120278528Y-94364850D01*
X120344353Y-94488000D01*
X106807000Y-94488000D01*
X106807000Y-91938072D01*
X107247000Y-91938072D01*
X107420254Y-91921008D01*
X107586850Y-91870472D01*
X107740386Y-91788405D01*
X107874962Y-91677962D01*
X107985405Y-91543386D01*
X108067472Y-91389850D01*
X108118008Y-91223254D01*
X108135072Y-91050000D01*
X108135072Y-90125000D01*
X108118008Y-89951746D01*
X108067472Y-89785150D01*
X108001647Y-89662000D01*
X121793000Y-89662000D01*
X121793000Y-92211928D01*
%TA.AperFunction,Conductor*%
D13*
G36*
X121793000Y-92211928D02*
G01*
X121099000Y-92211928D01*
X120925746Y-92228992D01*
X120759150Y-92279528D01*
X120605614Y-92361595D01*
X120471038Y-92472038D01*
X120360595Y-92606614D01*
X120278528Y-92760150D01*
X120227992Y-92926746D01*
X120210928Y-93100000D01*
X120210928Y-94025000D01*
X120227992Y-94198254D01*
X120278528Y-94364850D01*
X120344353Y-94488000D01*
X106807000Y-94488000D01*
X106807000Y-91938072D01*
X107247000Y-91938072D01*
X107420254Y-91921008D01*
X107586850Y-91870472D01*
X107740386Y-91788405D01*
X107874962Y-91677962D01*
X107985405Y-91543386D01*
X108067472Y-91389850D01*
X108118008Y-91223254D01*
X108135072Y-91050000D01*
X108135072Y-90125000D01*
X108118008Y-89951746D01*
X108067472Y-89785150D01*
X108001647Y-89662000D01*
X121793000Y-89662000D01*
X121793000Y-92211928D01*
G37*
%TD.AperFunction*%
%TD*%
D12*
%TO.N,Net-(D31-Pad1)*%
X105918000Y-92211928D02*
X105097000Y-92211928D01*
X104923746Y-92228992D01*
X104757150Y-92279528D01*
X104603614Y-92361595D01*
X104469038Y-92472038D01*
X104358595Y-92606614D01*
X104276528Y-92760150D01*
X104225992Y-92926746D01*
X104208928Y-93100000D01*
X104208928Y-94025000D01*
X104225992Y-94198254D01*
X104276528Y-94364850D01*
X104342353Y-94488000D01*
X90932000Y-94488000D01*
X90932000Y-91938072D01*
X91499000Y-91938072D01*
X91672254Y-91921008D01*
X91838850Y-91870472D01*
X91992386Y-91788405D01*
X92126962Y-91677962D01*
X92237405Y-91543386D01*
X92319472Y-91389850D01*
X92370008Y-91223254D01*
X92387072Y-91050000D01*
X92387072Y-90125000D01*
X92370008Y-89951746D01*
X92319472Y-89785150D01*
X92253647Y-89662000D01*
X105918000Y-89662000D01*
X105918000Y-92211928D01*
%TA.AperFunction,Conductor*%
D13*
G36*
X105918000Y-92211928D02*
G01*
X105097000Y-92211928D01*
X104923746Y-92228992D01*
X104757150Y-92279528D01*
X104603614Y-92361595D01*
X104469038Y-92472038D01*
X104358595Y-92606614D01*
X104276528Y-92760150D01*
X104225992Y-92926746D01*
X104208928Y-93100000D01*
X104208928Y-94025000D01*
X104225992Y-94198254D01*
X104276528Y-94364850D01*
X104342353Y-94488000D01*
X90932000Y-94488000D01*
X90932000Y-91938072D01*
X91499000Y-91938072D01*
X91672254Y-91921008D01*
X91838850Y-91870472D01*
X91992386Y-91788405D01*
X92126962Y-91677962D01*
X92237405Y-91543386D01*
X92319472Y-91389850D01*
X92370008Y-91223254D01*
X92387072Y-91050000D01*
X92387072Y-90125000D01*
X92370008Y-89951746D01*
X92319472Y-89785150D01*
X92253647Y-89662000D01*
X105918000Y-89662000D01*
X105918000Y-92211928D01*
G37*
%TD.AperFunction*%
%TD*%
D12*
%TO.N,Net-(D31-Pad2)*%
X90043000Y-92211928D02*
X89349000Y-92211928D01*
X89175746Y-92228992D01*
X89009150Y-92279528D01*
X88855614Y-92361595D01*
X88721038Y-92472038D01*
X88610595Y-92606614D01*
X88528528Y-92760150D01*
X88477992Y-92926746D01*
X88460928Y-93100000D01*
X88460928Y-94025000D01*
X88477992Y-94198254D01*
X88528528Y-94364850D01*
X88594353Y-94488000D01*
X87485647Y-94488000D01*
X87551472Y-94364850D01*
X87602008Y-94198254D01*
X87619072Y-94025000D01*
X87619072Y-93225000D01*
X87602008Y-93051746D01*
X87551472Y-92885150D01*
X87469405Y-92731614D01*
X87358962Y-92597038D01*
X87224386Y-92486595D01*
X87070850Y-92404528D01*
X86904254Y-92353992D01*
X86731000Y-92336928D01*
X86597316Y-92336928D01*
X86461939Y-92310000D01*
X86258061Y-92310000D01*
X86122684Y-92336928D01*
X85852000Y-92336928D01*
X85852000Y-89662000D01*
X90043000Y-89662000D01*
X90043000Y-92211928D01*
%TA.AperFunction,Conductor*%
D13*
G36*
X90043000Y-92211928D02*
G01*
X89349000Y-92211928D01*
X89175746Y-92228992D01*
X89009150Y-92279528D01*
X88855614Y-92361595D01*
X88721038Y-92472038D01*
X88610595Y-92606614D01*
X88528528Y-92760150D01*
X88477992Y-92926746D01*
X88460928Y-93100000D01*
X88460928Y-94025000D01*
X88477992Y-94198254D01*
X88528528Y-94364850D01*
X88594353Y-94488000D01*
X87485647Y-94488000D01*
X87551472Y-94364850D01*
X87602008Y-94198254D01*
X87619072Y-94025000D01*
X87619072Y-93225000D01*
X87602008Y-93051746D01*
X87551472Y-92885150D01*
X87469405Y-92731614D01*
X87358962Y-92597038D01*
X87224386Y-92486595D01*
X87070850Y-92404528D01*
X86904254Y-92353992D01*
X86731000Y-92336928D01*
X86597316Y-92336928D01*
X86461939Y-92310000D01*
X86258061Y-92310000D01*
X86122684Y-92336928D01*
X85852000Y-92336928D01*
X85852000Y-89662000D01*
X90043000Y-89662000D01*
X90043000Y-92211928D01*
G37*
%TD.AperFunction*%
%TD*%
D12*
%TO.N,Net-(D13-Pad1)*%
X169418000Y-98561928D02*
X168687500Y-98561928D01*
X168514246Y-98578992D01*
X168347650Y-98629528D01*
X168194114Y-98711595D01*
X168059538Y-98822038D01*
X167949095Y-98956614D01*
X167867028Y-99110150D01*
X167816492Y-99276746D01*
X167799428Y-99450000D01*
X167799428Y-100375000D01*
X167816492Y-100548254D01*
X167867028Y-100714850D01*
X167932853Y-100838000D01*
X154432000Y-100838000D01*
X154432000Y-98288072D01*
X154962500Y-98288072D01*
X155135754Y-98271008D01*
X155302350Y-98220472D01*
X155455886Y-98138405D01*
X155590462Y-98027962D01*
X155700905Y-97893386D01*
X155782972Y-97739850D01*
X155833508Y-97573254D01*
X155850572Y-97400000D01*
X155850572Y-96647000D01*
X169418000Y-96647000D01*
X169418000Y-98561928D01*
%TA.AperFunction,Conductor*%
D13*
G36*
X169418000Y-98561928D02*
G01*
X168687500Y-98561928D01*
X168514246Y-98578992D01*
X168347650Y-98629528D01*
X168194114Y-98711595D01*
X168059538Y-98822038D01*
X167949095Y-98956614D01*
X167867028Y-99110150D01*
X167816492Y-99276746D01*
X167799428Y-99450000D01*
X167799428Y-100375000D01*
X167816492Y-100548254D01*
X167867028Y-100714850D01*
X167932853Y-100838000D01*
X154432000Y-100838000D01*
X154432000Y-98288072D01*
X154962500Y-98288072D01*
X155135754Y-98271008D01*
X155302350Y-98220472D01*
X155455886Y-98138405D01*
X155590462Y-98027962D01*
X155700905Y-97893386D01*
X155782972Y-97739850D01*
X155833508Y-97573254D01*
X155850572Y-97400000D01*
X155850572Y-96647000D01*
X169418000Y-96647000D01*
X169418000Y-98561928D01*
G37*
%TD.AperFunction*%
%TD*%
D12*
%TO.N,Net-(D12-Pad1)*%
X153543000Y-98561928D02*
X152812500Y-98561928D01*
X152639246Y-98578992D01*
X152472650Y-98629528D01*
X152319114Y-98711595D01*
X152184538Y-98822038D01*
X152074095Y-98956614D01*
X151992028Y-99110150D01*
X151941492Y-99276746D01*
X151924428Y-99450000D01*
X151924428Y-100375000D01*
X151941492Y-100548254D01*
X151992028Y-100714850D01*
X152057853Y-100838000D01*
X138557000Y-100838000D01*
X138557000Y-98288072D01*
X139087500Y-98288072D01*
X139260754Y-98271008D01*
X139427350Y-98220472D01*
X139580886Y-98138405D01*
X139715462Y-98027962D01*
X139825905Y-97893386D01*
X139907972Y-97739850D01*
X139958508Y-97573254D01*
X139975572Y-97400000D01*
X139975572Y-96647000D01*
X153543000Y-96647000D01*
X153543000Y-98561928D01*
%TA.AperFunction,Conductor*%
D13*
G36*
X153543000Y-98561928D02*
G01*
X152812500Y-98561928D01*
X152639246Y-98578992D01*
X152472650Y-98629528D01*
X152319114Y-98711595D01*
X152184538Y-98822038D01*
X152074095Y-98956614D01*
X151992028Y-99110150D01*
X151941492Y-99276746D01*
X151924428Y-99450000D01*
X151924428Y-100375000D01*
X151941492Y-100548254D01*
X151992028Y-100714850D01*
X152057853Y-100838000D01*
X138557000Y-100838000D01*
X138557000Y-98288072D01*
X139087500Y-98288072D01*
X139260754Y-98271008D01*
X139427350Y-98220472D01*
X139580886Y-98138405D01*
X139715462Y-98027962D01*
X139825905Y-97893386D01*
X139907972Y-97739850D01*
X139958508Y-97573254D01*
X139975572Y-97400000D01*
X139975572Y-96647000D01*
X153543000Y-96647000D01*
X153543000Y-98561928D01*
G37*
%TD.AperFunction*%
%TD*%
D12*
%TO.N,Net-(D11-Pad1)*%
X137668000Y-98561928D02*
X136937500Y-98561928D01*
X136764246Y-98578992D01*
X136597650Y-98629528D01*
X136444114Y-98711595D01*
X136309538Y-98822038D01*
X136199095Y-98956614D01*
X136117028Y-99110150D01*
X136066492Y-99276746D01*
X136049428Y-99450000D01*
X136049428Y-100375000D01*
X136066492Y-100548254D01*
X136117028Y-100714850D01*
X136182853Y-100838000D01*
X122682000Y-100838000D01*
X122682000Y-98288072D01*
X123212500Y-98288072D01*
X123385754Y-98271008D01*
X123552350Y-98220472D01*
X123705886Y-98138405D01*
X123840462Y-98027962D01*
X123950905Y-97893386D01*
X124032972Y-97739850D01*
X124083508Y-97573254D01*
X124100572Y-97400000D01*
X124100572Y-96475000D01*
X124083508Y-96301746D01*
X124032972Y-96135150D01*
X123967147Y-96012000D01*
X137668000Y-96012000D01*
X137668000Y-98561928D01*
%TA.AperFunction,Conductor*%
D13*
G36*
X137668000Y-98561928D02*
G01*
X136937500Y-98561928D01*
X136764246Y-98578992D01*
X136597650Y-98629528D01*
X136444114Y-98711595D01*
X136309538Y-98822038D01*
X136199095Y-98956614D01*
X136117028Y-99110150D01*
X136066492Y-99276746D01*
X136049428Y-99450000D01*
X136049428Y-100375000D01*
X136066492Y-100548254D01*
X136117028Y-100714850D01*
X136182853Y-100838000D01*
X122682000Y-100838000D01*
X122682000Y-98288072D01*
X123212500Y-98288072D01*
X123385754Y-98271008D01*
X123552350Y-98220472D01*
X123705886Y-98138405D01*
X123840462Y-98027962D01*
X123950905Y-97893386D01*
X124032972Y-97739850D01*
X124083508Y-97573254D01*
X124100572Y-97400000D01*
X124100572Y-96475000D01*
X124083508Y-96301746D01*
X124032972Y-96135150D01*
X123967147Y-96012000D01*
X137668000Y-96012000D01*
X137668000Y-98561928D01*
G37*
%TD.AperFunction*%
%TD*%
D12*
%TO.N,Net-(D10-Pad1)*%
X121793000Y-98561928D02*
X121062500Y-98561928D01*
X120889246Y-98578992D01*
X120722650Y-98629528D01*
X120569114Y-98711595D01*
X120434538Y-98822038D01*
X120324095Y-98956614D01*
X120242028Y-99110150D01*
X120191492Y-99276746D01*
X120174428Y-99450000D01*
X120174428Y-100375000D01*
X120191492Y-100548254D01*
X120242028Y-100714850D01*
X120307853Y-100838000D01*
X106807000Y-100838000D01*
X106807000Y-98288072D01*
X107337500Y-98288072D01*
X107510754Y-98271008D01*
X107677350Y-98220472D01*
X107830886Y-98138405D01*
X107965462Y-98027962D01*
X108075905Y-97893386D01*
X108157972Y-97739850D01*
X108208508Y-97573254D01*
X108225572Y-97400000D01*
X108225572Y-96475000D01*
X108208508Y-96301746D01*
X108157972Y-96135150D01*
X108092147Y-96012000D01*
X121793000Y-96012000D01*
X121793000Y-98561928D01*
%TA.AperFunction,Conductor*%
D13*
G36*
X121793000Y-98561928D02*
G01*
X121062500Y-98561928D01*
X120889246Y-98578992D01*
X120722650Y-98629528D01*
X120569114Y-98711595D01*
X120434538Y-98822038D01*
X120324095Y-98956614D01*
X120242028Y-99110150D01*
X120191492Y-99276746D01*
X120174428Y-99450000D01*
X120174428Y-100375000D01*
X120191492Y-100548254D01*
X120242028Y-100714850D01*
X120307853Y-100838000D01*
X106807000Y-100838000D01*
X106807000Y-98288072D01*
X107337500Y-98288072D01*
X107510754Y-98271008D01*
X107677350Y-98220472D01*
X107830886Y-98138405D01*
X107965462Y-98027962D01*
X108075905Y-97893386D01*
X108157972Y-97739850D01*
X108208508Y-97573254D01*
X108225572Y-97400000D01*
X108225572Y-96475000D01*
X108208508Y-96301746D01*
X108157972Y-96135150D01*
X108092147Y-96012000D01*
X121793000Y-96012000D01*
X121793000Y-98561928D01*
G37*
%TD.AperFunction*%
%TD*%
D12*
%TO.N,Net-(D10-Pad2)*%
X105918000Y-98561928D02*
X105187500Y-98561928D01*
X105014246Y-98578992D01*
X104847650Y-98629528D01*
X104694114Y-98711595D01*
X104559538Y-98822038D01*
X104449095Y-98956614D01*
X104367028Y-99110150D01*
X104316492Y-99276746D01*
X104299428Y-99450000D01*
X104299428Y-100375000D01*
X104316492Y-100548254D01*
X104367028Y-100714850D01*
X104432853Y-100838000D01*
X90932000Y-100838000D01*
X90932000Y-98288072D01*
X91462500Y-98288072D01*
X91635754Y-98271008D01*
X91802350Y-98220472D01*
X91955886Y-98138405D01*
X92090462Y-98027962D01*
X92200905Y-97893386D01*
X92282972Y-97739850D01*
X92333508Y-97573254D01*
X92350572Y-97400000D01*
X92350572Y-96475000D01*
X92333508Y-96301746D01*
X92282972Y-96135150D01*
X92217147Y-96012000D01*
X105918000Y-96012000D01*
X105918000Y-98561928D01*
%TA.AperFunction,Conductor*%
D13*
G36*
X105918000Y-98561928D02*
G01*
X105187500Y-98561928D01*
X105014246Y-98578992D01*
X104847650Y-98629528D01*
X104694114Y-98711595D01*
X104559538Y-98822038D01*
X104449095Y-98956614D01*
X104367028Y-99110150D01*
X104316492Y-99276746D01*
X104299428Y-99450000D01*
X104299428Y-100375000D01*
X104316492Y-100548254D01*
X104367028Y-100714850D01*
X104432853Y-100838000D01*
X90932000Y-100838000D01*
X90932000Y-98288072D01*
X91462500Y-98288072D01*
X91635754Y-98271008D01*
X91802350Y-98220472D01*
X91955886Y-98138405D01*
X92090462Y-98027962D01*
X92200905Y-97893386D01*
X92282972Y-97739850D01*
X92333508Y-97573254D01*
X92350572Y-97400000D01*
X92350572Y-96475000D01*
X92333508Y-96301746D01*
X92282972Y-96135150D01*
X92217147Y-96012000D01*
X105918000Y-96012000D01*
X105918000Y-98561928D01*
G37*
%TD.AperFunction*%
%TD*%
D12*
%TO.N,Net-(D9-Pad2)*%
X90043000Y-98561928D02*
X89312500Y-98561928D01*
X89139246Y-98578992D01*
X88972650Y-98629528D01*
X88819114Y-98711595D01*
X88684538Y-98822038D01*
X88574095Y-98956614D01*
X88492028Y-99110150D01*
X88441492Y-99276746D01*
X88424428Y-99450000D01*
X88424428Y-100375000D01*
X88441492Y-100548254D01*
X88492028Y-100714850D01*
X88557853Y-100838000D01*
X87485647Y-100838000D01*
X87551472Y-100714850D01*
X87602008Y-100548254D01*
X87619072Y-100375000D01*
X87619072Y-99575000D01*
X87602008Y-99401746D01*
X87551472Y-99235150D01*
X87469405Y-99081614D01*
X87358962Y-98947038D01*
X87224386Y-98836595D01*
X87070850Y-98754528D01*
X86904254Y-98703992D01*
X86731000Y-98686928D01*
X86597316Y-98686928D01*
X86461939Y-98660000D01*
X86258061Y-98660000D01*
X86122684Y-98686928D01*
X85852000Y-98686928D01*
X85852000Y-96012000D01*
X90043000Y-96012000D01*
X90043000Y-98561928D01*
%TA.AperFunction,Conductor*%
D13*
G36*
X90043000Y-98561928D02*
G01*
X89312500Y-98561928D01*
X89139246Y-98578992D01*
X88972650Y-98629528D01*
X88819114Y-98711595D01*
X88684538Y-98822038D01*
X88574095Y-98956614D01*
X88492028Y-99110150D01*
X88441492Y-99276746D01*
X88424428Y-99450000D01*
X88424428Y-100375000D01*
X88441492Y-100548254D01*
X88492028Y-100714850D01*
X88557853Y-100838000D01*
X87485647Y-100838000D01*
X87551472Y-100714850D01*
X87602008Y-100548254D01*
X87619072Y-100375000D01*
X87619072Y-99575000D01*
X87602008Y-99401746D01*
X87551472Y-99235150D01*
X87469405Y-99081614D01*
X87358962Y-98947038D01*
X87224386Y-98836595D01*
X87070850Y-98754528D01*
X86904254Y-98703992D01*
X86731000Y-98686928D01*
X86597316Y-98686928D01*
X86461939Y-98660000D01*
X86258061Y-98660000D01*
X86122684Y-98686928D01*
X85852000Y-98686928D01*
X85852000Y-96012000D01*
X90043000Y-96012000D01*
X90043000Y-98561928D01*
G37*
%TD.AperFunction*%
%TD*%
D12*
%TO.N,Net-(D17-Pad2)*%
X90043000Y-85861928D02*
X89312500Y-85861928D01*
X89139246Y-85878992D01*
X88972650Y-85929528D01*
X88819114Y-86011595D01*
X88684538Y-86122038D01*
X88574095Y-86256614D01*
X88492028Y-86410150D01*
X88441492Y-86576746D01*
X88424428Y-86750000D01*
X88424428Y-87675000D01*
X88441492Y-87848254D01*
X88492028Y-88014850D01*
X88557853Y-88138000D01*
X87485647Y-88138000D01*
X87551472Y-88014850D01*
X87602008Y-87848254D01*
X87603490Y-87833204D01*
X87654774Y-87798937D01*
X87798937Y-87654774D01*
X87912205Y-87485256D01*
X87990226Y-87296898D01*
X88030000Y-87096939D01*
X88030000Y-86893061D01*
X87990226Y-86693102D01*
X87912205Y-86504744D01*
X87798937Y-86335226D01*
X87654774Y-86191063D01*
X87485256Y-86077795D01*
X87296898Y-85999774D01*
X87096939Y-85960000D01*
X86893061Y-85960000D01*
X86748847Y-85988686D01*
X86731000Y-85986928D01*
X85852000Y-85986928D01*
X85852000Y-83312000D01*
X90043000Y-83312000D01*
X90043000Y-85861928D01*
%TA.AperFunction,Conductor*%
D13*
G36*
X90043000Y-85861928D02*
G01*
X89312500Y-85861928D01*
X89139246Y-85878992D01*
X88972650Y-85929528D01*
X88819114Y-86011595D01*
X88684538Y-86122038D01*
X88574095Y-86256614D01*
X88492028Y-86410150D01*
X88441492Y-86576746D01*
X88424428Y-86750000D01*
X88424428Y-87675000D01*
X88441492Y-87848254D01*
X88492028Y-88014850D01*
X88557853Y-88138000D01*
X87485647Y-88138000D01*
X87551472Y-88014850D01*
X87602008Y-87848254D01*
X87603490Y-87833204D01*
X87654774Y-87798937D01*
X87798937Y-87654774D01*
X87912205Y-87485256D01*
X87990226Y-87296898D01*
X88030000Y-87096939D01*
X88030000Y-86893061D01*
X87990226Y-86693102D01*
X87912205Y-86504744D01*
X87798937Y-86335226D01*
X87654774Y-86191063D01*
X87485256Y-86077795D01*
X87296898Y-85999774D01*
X87096939Y-85960000D01*
X86893061Y-85960000D01*
X86748847Y-85988686D01*
X86731000Y-85986928D01*
X85852000Y-85986928D01*
X85852000Y-83312000D01*
X90043000Y-83312000D01*
X90043000Y-85861928D01*
G37*
%TD.AperFunction*%
%TD*%
D12*
%TO.N,Net-(D1-Pad2)*%
X90043000Y-79511928D02*
X89312500Y-79511928D01*
X89139246Y-79528992D01*
X88972650Y-79579528D01*
X88819114Y-79661595D01*
X88684538Y-79772038D01*
X88574095Y-79906614D01*
X88492028Y-80060150D01*
X88441492Y-80226746D01*
X88424428Y-80400000D01*
X88424428Y-81325000D01*
X88441492Y-81498254D01*
X88492028Y-81664850D01*
X88557853Y-81788000D01*
X87485647Y-81788000D01*
X87551472Y-81664850D01*
X87602008Y-81498254D01*
X87619072Y-81325000D01*
X87619072Y-80525000D01*
X87602008Y-80351746D01*
X87551472Y-80185150D01*
X87469405Y-80031614D01*
X87358962Y-79897038D01*
X87224386Y-79786595D01*
X87070850Y-79704528D01*
X86904254Y-79653992D01*
X86731000Y-79636928D01*
X86597316Y-79636928D01*
X86461939Y-79610000D01*
X86258061Y-79610000D01*
X86122684Y-79636928D01*
X85852000Y-79636928D01*
X85852000Y-76962000D01*
X90043000Y-76962000D01*
X90043000Y-79511928D01*
%TA.AperFunction,Conductor*%
D13*
G36*
X90043000Y-79511928D02*
G01*
X89312500Y-79511928D01*
X89139246Y-79528992D01*
X88972650Y-79579528D01*
X88819114Y-79661595D01*
X88684538Y-79772038D01*
X88574095Y-79906614D01*
X88492028Y-80060150D01*
X88441492Y-80226746D01*
X88424428Y-80400000D01*
X88424428Y-81325000D01*
X88441492Y-81498254D01*
X88492028Y-81664850D01*
X88557853Y-81788000D01*
X87485647Y-81788000D01*
X87551472Y-81664850D01*
X87602008Y-81498254D01*
X87619072Y-81325000D01*
X87619072Y-80525000D01*
X87602008Y-80351746D01*
X87551472Y-80185150D01*
X87469405Y-80031614D01*
X87358962Y-79897038D01*
X87224386Y-79786595D01*
X87070850Y-79704528D01*
X86904254Y-79653992D01*
X86731000Y-79636928D01*
X86597316Y-79636928D01*
X86461939Y-79610000D01*
X86258061Y-79610000D01*
X86122684Y-79636928D01*
X85852000Y-79636928D01*
X85852000Y-76962000D01*
X90043000Y-76962000D01*
X90043000Y-79511928D01*
G37*
%TD.AperFunction*%
%TD*%
D12*
%TO.N,Net-(D24-Pad2)*%
X90043000Y-104911928D02*
X89312500Y-104911928D01*
X89139246Y-104928992D01*
X88972650Y-104979528D01*
X88819114Y-105061595D01*
X88684538Y-105172038D01*
X88574095Y-105306614D01*
X88492028Y-105460150D01*
X88441492Y-105626746D01*
X88424428Y-105800000D01*
X88424428Y-106725000D01*
X88441492Y-106898254D01*
X88492028Y-107064850D01*
X88557853Y-107188000D01*
X87739647Y-107188000D01*
X87805472Y-107064850D01*
X87856008Y-106898254D01*
X87873072Y-106725000D01*
X87873072Y-105925000D01*
X87856008Y-105751746D01*
X87805472Y-105585150D01*
X87723405Y-105431614D01*
X87612962Y-105297038D01*
X87478386Y-105186595D01*
X87324850Y-105104528D01*
X87158254Y-105053992D01*
X86985000Y-105036928D01*
X86688374Y-105036928D01*
X86487000Y-104835554D01*
X86487000Y-102362000D01*
X90043000Y-102362000D01*
X90043000Y-104911928D01*
%TA.AperFunction,Conductor*%
D13*
G36*
X90043000Y-104911928D02*
G01*
X89312500Y-104911928D01*
X89139246Y-104928992D01*
X88972650Y-104979528D01*
X88819114Y-105061595D01*
X88684538Y-105172038D01*
X88574095Y-105306614D01*
X88492028Y-105460150D01*
X88441492Y-105626746D01*
X88424428Y-105800000D01*
X88424428Y-106725000D01*
X88441492Y-106898254D01*
X88492028Y-107064850D01*
X88557853Y-107188000D01*
X87739647Y-107188000D01*
X87805472Y-107064850D01*
X87856008Y-106898254D01*
X87873072Y-106725000D01*
X87873072Y-105925000D01*
X87856008Y-105751746D01*
X87805472Y-105585150D01*
X87723405Y-105431614D01*
X87612962Y-105297038D01*
X87478386Y-105186595D01*
X87324850Y-105104528D01*
X87158254Y-105053992D01*
X86985000Y-105036928D01*
X86688374Y-105036928D01*
X86487000Y-104835554D01*
X86487000Y-102362000D01*
X90043000Y-102362000D01*
X90043000Y-104911928D01*
G37*
%TD.AperFunction*%
%TD*%
D12*
%TO.N,Net-(D27-Pad1)*%
X162433000Y-104911928D02*
X161956500Y-104911928D01*
X161783246Y-104928992D01*
X161616650Y-104979528D01*
X161463114Y-105061595D01*
X161328538Y-105172038D01*
X161218095Y-105306614D01*
X161136028Y-105460150D01*
X161085492Y-105626746D01*
X161068428Y-105800000D01*
X161068428Y-106725000D01*
X161085492Y-106898254D01*
X161136028Y-107064850D01*
X161201853Y-107188000D01*
X144907000Y-107188000D01*
X144907000Y-104638072D01*
X145818500Y-104638072D01*
X145991754Y-104621008D01*
X146158350Y-104570472D01*
X146311886Y-104488405D01*
X146446462Y-104377962D01*
X146556905Y-104243386D01*
X146638972Y-104089850D01*
X146689508Y-103923254D01*
X146706572Y-103750000D01*
X146706572Y-102825000D01*
X146689508Y-102651746D01*
X146638972Y-102485150D01*
X146573147Y-102362000D01*
X162433000Y-102362000D01*
X162433000Y-104911928D01*
%TA.AperFunction,Conductor*%
D13*
G36*
X162433000Y-104911928D02*
G01*
X161956500Y-104911928D01*
X161783246Y-104928992D01*
X161616650Y-104979528D01*
X161463114Y-105061595D01*
X161328538Y-105172038D01*
X161218095Y-105306614D01*
X161136028Y-105460150D01*
X161085492Y-105626746D01*
X161068428Y-105800000D01*
X161068428Y-106725000D01*
X161085492Y-106898254D01*
X161136028Y-107064850D01*
X161201853Y-107188000D01*
X144907000Y-107188000D01*
X144907000Y-104638072D01*
X145818500Y-104638072D01*
X145991754Y-104621008D01*
X146158350Y-104570472D01*
X146311886Y-104488405D01*
X146446462Y-104377962D01*
X146556905Y-104243386D01*
X146638972Y-104089850D01*
X146689508Y-103923254D01*
X146706572Y-103750000D01*
X146706572Y-102825000D01*
X146689508Y-102651746D01*
X146638972Y-102485150D01*
X146573147Y-102362000D01*
X162433000Y-102362000D01*
X162433000Y-104911928D01*
G37*
%TD.AperFunction*%
%TD*%
D12*
%TO.N,Net-(D26-Pad1)*%
X144018000Y-104911928D02*
X143668500Y-104911928D01*
X143495246Y-104928992D01*
X143328650Y-104979528D01*
X143175114Y-105061595D01*
X143040538Y-105172038D01*
X142930095Y-105306614D01*
X142848028Y-105460150D01*
X142797492Y-105626746D01*
X142780428Y-105800000D01*
X142780428Y-106725000D01*
X142797492Y-106898254D01*
X142848028Y-107064850D01*
X142913853Y-107188000D01*
X127127000Y-107188000D01*
X127127000Y-104638072D01*
X127784500Y-104638072D01*
X127957754Y-104621008D01*
X128124350Y-104570472D01*
X128277886Y-104488405D01*
X128412462Y-104377962D01*
X128522905Y-104243386D01*
X128604972Y-104089850D01*
X128655508Y-103923254D01*
X128672572Y-103750000D01*
X128672572Y-102825000D01*
X128655508Y-102651746D01*
X128604972Y-102485150D01*
X128539147Y-102362000D01*
X144018000Y-102362000D01*
X144018000Y-104911928D01*
%TA.AperFunction,Conductor*%
D13*
G36*
X144018000Y-104911928D02*
G01*
X143668500Y-104911928D01*
X143495246Y-104928992D01*
X143328650Y-104979528D01*
X143175114Y-105061595D01*
X143040538Y-105172038D01*
X142930095Y-105306614D01*
X142848028Y-105460150D01*
X142797492Y-105626746D01*
X142780428Y-105800000D01*
X142780428Y-106725000D01*
X142797492Y-106898254D01*
X142848028Y-107064850D01*
X142913853Y-107188000D01*
X127127000Y-107188000D01*
X127127000Y-104638072D01*
X127784500Y-104638072D01*
X127957754Y-104621008D01*
X128124350Y-104570472D01*
X128277886Y-104488405D01*
X128412462Y-104377962D01*
X128522905Y-104243386D01*
X128604972Y-104089850D01*
X128655508Y-103923254D01*
X128672572Y-103750000D01*
X128672572Y-102825000D01*
X128655508Y-102651746D01*
X128604972Y-102485150D01*
X128539147Y-102362000D01*
X144018000Y-102362000D01*
X144018000Y-104911928D01*
G37*
%TD.AperFunction*%
%TD*%
D12*
%TO.N,Net-(D25-Pad1)*%
X126238000Y-104911928D02*
X125634500Y-104911928D01*
X125461246Y-104928992D01*
X125294650Y-104979528D01*
X125141114Y-105061595D01*
X125006538Y-105172038D01*
X124896095Y-105306614D01*
X124814028Y-105460150D01*
X124763492Y-105626746D01*
X124746428Y-105800000D01*
X124746428Y-106725000D01*
X124763492Y-106898254D01*
X124814028Y-107064850D01*
X124879853Y-107188000D01*
X108712000Y-107188000D01*
X108712000Y-104638072D01*
X109496500Y-104638072D01*
X109669754Y-104621008D01*
X109836350Y-104570472D01*
X109989886Y-104488405D01*
X110124462Y-104377962D01*
X110234905Y-104243386D01*
X110316972Y-104089850D01*
X110367508Y-103923254D01*
X110384572Y-103750000D01*
X110384572Y-102825000D01*
X110367508Y-102651746D01*
X110316972Y-102485150D01*
X110251147Y-102362000D01*
X126238000Y-102362000D01*
X126238000Y-104911928D01*
%TA.AperFunction,Conductor*%
D13*
G36*
X126238000Y-104911928D02*
G01*
X125634500Y-104911928D01*
X125461246Y-104928992D01*
X125294650Y-104979528D01*
X125141114Y-105061595D01*
X125006538Y-105172038D01*
X124896095Y-105306614D01*
X124814028Y-105460150D01*
X124763492Y-105626746D01*
X124746428Y-105800000D01*
X124746428Y-106725000D01*
X124763492Y-106898254D01*
X124814028Y-107064850D01*
X124879853Y-107188000D01*
X108712000Y-107188000D01*
X108712000Y-104638072D01*
X109496500Y-104638072D01*
X109669754Y-104621008D01*
X109836350Y-104570472D01*
X109989886Y-104488405D01*
X110124462Y-104377962D01*
X110234905Y-104243386D01*
X110316972Y-104089850D01*
X110367508Y-103923254D01*
X110384572Y-103750000D01*
X110384572Y-102825000D01*
X110367508Y-102651746D01*
X110316972Y-102485150D01*
X110251147Y-102362000D01*
X126238000Y-102362000D01*
X126238000Y-104911928D01*
G37*
%TD.AperFunction*%
%TD*%
D12*
%TO.N,Net-(D24-Pad1)*%
X107823000Y-104911928D02*
X107346500Y-104911928D01*
X107173246Y-104928992D01*
X107006650Y-104979528D01*
X106853114Y-105061595D01*
X106718538Y-105172038D01*
X106608095Y-105306614D01*
X106526028Y-105460150D01*
X106475492Y-105626746D01*
X106458428Y-105800000D01*
X106458428Y-106725000D01*
X106475492Y-106898254D01*
X106526028Y-107064850D01*
X106591853Y-107188000D01*
X90932000Y-107188000D01*
X90932000Y-104638072D01*
X91462500Y-104638072D01*
X91635754Y-104621008D01*
X91802350Y-104570472D01*
X91955886Y-104488405D01*
X92090462Y-104377962D01*
X92200905Y-104243386D01*
X92282972Y-104089850D01*
X92333508Y-103923254D01*
X92350572Y-103750000D01*
X92350572Y-102825000D01*
X92333508Y-102651746D01*
X92282972Y-102485150D01*
X92217147Y-102362000D01*
X107823000Y-102362000D01*
X107823000Y-104911928D01*
%TA.AperFunction,Conductor*%
D13*
G36*
X107823000Y-104911928D02*
G01*
X107346500Y-104911928D01*
X107173246Y-104928992D01*
X107006650Y-104979528D01*
X106853114Y-105061595D01*
X106718538Y-105172038D01*
X106608095Y-105306614D01*
X106526028Y-105460150D01*
X106475492Y-105626746D01*
X106458428Y-105800000D01*
X106458428Y-106725000D01*
X106475492Y-106898254D01*
X106526028Y-107064850D01*
X106591853Y-107188000D01*
X90932000Y-107188000D01*
X90932000Y-104638072D01*
X91462500Y-104638072D01*
X91635754Y-104621008D01*
X91802350Y-104570472D01*
X91955886Y-104488405D01*
X92090462Y-104377962D01*
X92200905Y-104243386D01*
X92282972Y-104089850D01*
X92333508Y-103923254D01*
X92350572Y-103750000D01*
X92350572Y-102825000D01*
X92333508Y-102651746D01*
X92282972Y-102485150D01*
X92217147Y-102362000D01*
X107823000Y-102362000D01*
X107823000Y-104911928D01*
G37*
%TD.AperFunction*%
%TD*%
M02*
