M48
; DRILL file {KiCad (5.1.9)-1} date 12/14/21 13:52:57
; FORMAT={-:-/ absolute / inch / decimal}
; #@! TF.CreationDate,2021-12-14T13:52:57-06:00
; #@! TF.GenerationSoftware,Kicad,Pcbnew,(5.1.9)-1
; #@! TF.FileFunction,Plated,1,2,PTH
FMAT,2
INCH
T1C0.0157
%
G90
G05
T1
X3.275Y-3.3
X3.275Y-3.35
X3.275Y-3.4
X3.275Y-3.45
X3.375Y-3.2
X3.375Y-3.7
X3.375Y-3.95
X3.39Y-3.436
X3.4Y-3.175
X3.4Y-3.675
X3.4Y-3.925
X3.425Y-3.425
X5.675Y-3.6
X5.675Y-3.65
X7.8914Y-4.1836
X7.9414Y-4.1836
X7.9464Y-4.1036
X7.9914Y-4.1836
X7.9964Y-4.1036
X8.0414Y-4.1836
X8.0464Y-4.1036
T0
M30
