%TF.GenerationSoftware,KiCad,Pcbnew,(5.1.9)-1*%
%TF.CreationDate,2021-11-26T10:49:09-06:00*%
%TF.ProjectId,Tri-Color-Panel,5472692d-436f-46c6-9f72-2d50616e656c,rev?*%
%TF.SameCoordinates,Original*%
%TF.FileFunction,Legend,Top*%
%TF.FilePolarity,Positive*%
%FSLAX46Y46*%
G04 Gerber Fmt 4.6, Leading zero omitted, Abs format (unit mm)*
G04 Created by KiCad (PCBNEW (5.1.9)-1) date 2021-11-26 10:49:09*
%MOMM*%
%LPD*%
G01*
G04 APERTURE LIST*
%ADD10C,0.100000*%
%ADD11C,0.120000*%
%ADD12C,0.150000*%
G04 APERTURE END LIST*
D10*
G36*
X172466000Y-99060000D02*
G01*
X171831000Y-97790000D01*
X173101000Y-97790000D01*
X172466000Y-99060000D01*
G37*
X172466000Y-99060000D02*
X171831000Y-97790000D01*
X173101000Y-97790000D01*
X172466000Y-99060000D01*
D11*
X171831000Y-99060000D02*
X173101000Y-99060000D01*
X172466000Y-97155000D02*
X172466000Y-99695000D01*
D10*
G36*
X172339000Y-92710000D02*
G01*
X171704000Y-91440000D01*
X172974000Y-91440000D01*
X172339000Y-92710000D01*
G37*
X172339000Y-92710000D02*
X171704000Y-91440000D01*
X172974000Y-91440000D01*
X172339000Y-92710000D01*
D11*
X171704000Y-92710000D02*
X172974000Y-92710000D01*
X172339000Y-90805000D02*
X172339000Y-93345000D01*
D12*
X96036190Y-104560714D02*
X95274285Y-104846428D01*
X96036190Y-105132142D01*
X96940952Y-104227380D02*
X96750476Y-104227380D01*
X96655238Y-104275000D01*
X96607619Y-104322619D01*
X96512380Y-104465476D01*
X96464761Y-104655952D01*
X96464761Y-105036904D01*
X96512380Y-105132142D01*
X96560000Y-105179761D01*
X96655238Y-105227380D01*
X96845714Y-105227380D01*
X96940952Y-105179761D01*
X96988571Y-105132142D01*
X97036190Y-105036904D01*
X97036190Y-104798809D01*
X96988571Y-104703571D01*
X96940952Y-104655952D01*
X96845714Y-104608333D01*
X96655238Y-104608333D01*
X96560000Y-104655952D01*
X96512380Y-104703571D01*
X96464761Y-104798809D01*
X97940952Y-104227380D02*
X97464761Y-104227380D01*
X97417142Y-104703571D01*
X97464761Y-104655952D01*
X97560000Y-104608333D01*
X97798095Y-104608333D01*
X97893333Y-104655952D01*
X97940952Y-104703571D01*
X97988571Y-104798809D01*
X97988571Y-105036904D01*
X97940952Y-105132142D01*
X97893333Y-105179761D01*
X97798095Y-105227380D01*
X97560000Y-105227380D01*
X97464761Y-105179761D01*
X97417142Y-105132142D01*
X98607619Y-104227380D02*
X98702857Y-104227380D01*
X98798095Y-104275000D01*
X98845714Y-104322619D01*
X98893333Y-104417857D01*
X98940952Y-104608333D01*
X98940952Y-104846428D01*
X98893333Y-105036904D01*
X98845714Y-105132142D01*
X98798095Y-105179761D01*
X98702857Y-105227380D01*
X98607619Y-105227380D01*
X98512380Y-105179761D01*
X98464761Y-105132142D01*
X98417142Y-105036904D01*
X98369523Y-104846428D01*
X98369523Y-104608333D01*
X98417142Y-104417857D01*
X98464761Y-104322619D01*
X98512380Y-104275000D01*
X98607619Y-104227380D01*
X99560000Y-104227380D02*
X99655238Y-104227380D01*
X99750476Y-104275000D01*
X99798095Y-104322619D01*
X99845714Y-104417857D01*
X99893333Y-104608333D01*
X99893333Y-104846428D01*
X99845714Y-105036904D01*
X99798095Y-105132142D01*
X99750476Y-105179761D01*
X99655238Y-105227380D01*
X99560000Y-105227380D01*
X99464761Y-105179761D01*
X99417142Y-105132142D01*
X99369523Y-105036904D01*
X99321904Y-104846428D01*
X99321904Y-104608333D01*
X99369523Y-104417857D01*
X99417142Y-104322619D01*
X99464761Y-104275000D01*
X99560000Y-104227380D01*
X101083809Y-105227380D02*
X101083809Y-104227380D01*
X101655238Y-105227380D02*
X101226666Y-104655952D01*
X101655238Y-104227380D02*
X101083809Y-104798809D01*
X102083809Y-104560714D02*
X102845714Y-104846428D01*
X102083809Y-105132142D01*
X96036190Y-98210714D02*
X95274285Y-98496428D01*
X96036190Y-98782142D01*
X96464761Y-97972619D02*
X96512380Y-97925000D01*
X96607619Y-97877380D01*
X96845714Y-97877380D01*
X96940952Y-97925000D01*
X96988571Y-97972619D01*
X97036190Y-98067857D01*
X97036190Y-98163095D01*
X96988571Y-98305952D01*
X96417142Y-98877380D01*
X97036190Y-98877380D01*
X97369523Y-97877380D02*
X98036190Y-97877380D01*
X97607619Y-98877380D01*
X98607619Y-97877380D02*
X98702857Y-97877380D01*
X98798095Y-97925000D01*
X98845714Y-97972619D01*
X98893333Y-98067857D01*
X98940952Y-98258333D01*
X98940952Y-98496428D01*
X98893333Y-98686904D01*
X98845714Y-98782142D01*
X98798095Y-98829761D01*
X98702857Y-98877380D01*
X98607619Y-98877380D01*
X98512380Y-98829761D01*
X98464761Y-98782142D01*
X98417142Y-98686904D01*
X98369523Y-98496428D01*
X98369523Y-98258333D01*
X98417142Y-98067857D01*
X98464761Y-97972619D01*
X98512380Y-97925000D01*
X98607619Y-97877380D01*
X99560000Y-97877380D02*
X99655238Y-97877380D01*
X99750476Y-97925000D01*
X99798095Y-97972619D01*
X99845714Y-98067857D01*
X99893333Y-98258333D01*
X99893333Y-98496428D01*
X99845714Y-98686904D01*
X99798095Y-98782142D01*
X99750476Y-98829761D01*
X99655238Y-98877380D01*
X99560000Y-98877380D01*
X99464761Y-98829761D01*
X99417142Y-98782142D01*
X99369523Y-98686904D01*
X99321904Y-98496428D01*
X99321904Y-98258333D01*
X99369523Y-98067857D01*
X99417142Y-97972619D01*
X99464761Y-97925000D01*
X99560000Y-97877380D01*
X101083809Y-98877380D02*
X101083809Y-97877380D01*
X101655238Y-98877380D02*
X101226666Y-98305952D01*
X101655238Y-97877380D02*
X101083809Y-98448809D01*
X102083809Y-98210714D02*
X102845714Y-98496428D01*
X102083809Y-98782142D01*
X96036190Y-91860714D02*
X95274285Y-92146428D01*
X96036190Y-92432142D01*
X96940952Y-91860714D02*
X96940952Y-92527380D01*
X96702857Y-91479761D02*
X96464761Y-92194047D01*
X97083809Y-92194047D01*
X97655238Y-91527380D02*
X97750476Y-91527380D01*
X97845714Y-91575000D01*
X97893333Y-91622619D01*
X97940952Y-91717857D01*
X97988571Y-91908333D01*
X97988571Y-92146428D01*
X97940952Y-92336904D01*
X97893333Y-92432142D01*
X97845714Y-92479761D01*
X97750476Y-92527380D01*
X97655238Y-92527380D01*
X97560000Y-92479761D01*
X97512380Y-92432142D01*
X97464761Y-92336904D01*
X97417142Y-92146428D01*
X97417142Y-91908333D01*
X97464761Y-91717857D01*
X97512380Y-91622619D01*
X97560000Y-91575000D01*
X97655238Y-91527380D01*
X98607619Y-91527380D02*
X98702857Y-91527380D01*
X98798095Y-91575000D01*
X98845714Y-91622619D01*
X98893333Y-91717857D01*
X98940952Y-91908333D01*
X98940952Y-92146428D01*
X98893333Y-92336904D01*
X98845714Y-92432142D01*
X98798095Y-92479761D01*
X98702857Y-92527380D01*
X98607619Y-92527380D01*
X98512380Y-92479761D01*
X98464761Y-92432142D01*
X98417142Y-92336904D01*
X98369523Y-92146428D01*
X98369523Y-91908333D01*
X98417142Y-91717857D01*
X98464761Y-91622619D01*
X98512380Y-91575000D01*
X98607619Y-91527380D01*
X99560000Y-91527380D02*
X99655238Y-91527380D01*
X99750476Y-91575000D01*
X99798095Y-91622619D01*
X99845714Y-91717857D01*
X99893333Y-91908333D01*
X99893333Y-92146428D01*
X99845714Y-92336904D01*
X99798095Y-92432142D01*
X99750476Y-92479761D01*
X99655238Y-92527380D01*
X99560000Y-92527380D01*
X99464761Y-92479761D01*
X99417142Y-92432142D01*
X99369523Y-92336904D01*
X99321904Y-92146428D01*
X99321904Y-91908333D01*
X99369523Y-91717857D01*
X99417142Y-91622619D01*
X99464761Y-91575000D01*
X99560000Y-91527380D01*
X101083809Y-92527380D02*
X101083809Y-91527380D01*
X101655238Y-92527380D02*
X101226666Y-91955952D01*
X101655238Y-91527380D02*
X101083809Y-92098809D01*
X102083809Y-91860714D02*
X102845714Y-92146428D01*
X102083809Y-92432142D01*
X96036190Y-85510714D02*
X95274285Y-85796428D01*
X96036190Y-86082142D01*
X96940952Y-85177380D02*
X96750476Y-85177380D01*
X96655238Y-85225000D01*
X96607619Y-85272619D01*
X96512380Y-85415476D01*
X96464761Y-85605952D01*
X96464761Y-85986904D01*
X96512380Y-86082142D01*
X96560000Y-86129761D01*
X96655238Y-86177380D01*
X96845714Y-86177380D01*
X96940952Y-86129761D01*
X96988571Y-86082142D01*
X97036190Y-85986904D01*
X97036190Y-85748809D01*
X96988571Y-85653571D01*
X96940952Y-85605952D01*
X96845714Y-85558333D01*
X96655238Y-85558333D01*
X96560000Y-85605952D01*
X96512380Y-85653571D01*
X96464761Y-85748809D01*
X97940952Y-85177380D02*
X97464761Y-85177380D01*
X97417142Y-85653571D01*
X97464761Y-85605952D01*
X97560000Y-85558333D01*
X97798095Y-85558333D01*
X97893333Y-85605952D01*
X97940952Y-85653571D01*
X97988571Y-85748809D01*
X97988571Y-85986904D01*
X97940952Y-86082142D01*
X97893333Y-86129761D01*
X97798095Y-86177380D01*
X97560000Y-86177380D01*
X97464761Y-86129761D01*
X97417142Y-86082142D01*
X98607619Y-85177380D02*
X98702857Y-85177380D01*
X98798095Y-85225000D01*
X98845714Y-85272619D01*
X98893333Y-85367857D01*
X98940952Y-85558333D01*
X98940952Y-85796428D01*
X98893333Y-85986904D01*
X98845714Y-86082142D01*
X98798095Y-86129761D01*
X98702857Y-86177380D01*
X98607619Y-86177380D01*
X98512380Y-86129761D01*
X98464761Y-86082142D01*
X98417142Y-85986904D01*
X98369523Y-85796428D01*
X98369523Y-85558333D01*
X98417142Y-85367857D01*
X98464761Y-85272619D01*
X98512380Y-85225000D01*
X98607619Y-85177380D01*
X99560000Y-85177380D02*
X99655238Y-85177380D01*
X99750476Y-85225000D01*
X99798095Y-85272619D01*
X99845714Y-85367857D01*
X99893333Y-85558333D01*
X99893333Y-85796428D01*
X99845714Y-85986904D01*
X99798095Y-86082142D01*
X99750476Y-86129761D01*
X99655238Y-86177380D01*
X99560000Y-86177380D01*
X99464761Y-86129761D01*
X99417142Y-86082142D01*
X99369523Y-85986904D01*
X99321904Y-85796428D01*
X99321904Y-85558333D01*
X99369523Y-85367857D01*
X99417142Y-85272619D01*
X99464761Y-85225000D01*
X99560000Y-85177380D01*
X101083809Y-86177380D02*
X101083809Y-85177380D01*
X101655238Y-86177380D02*
X101226666Y-85605952D01*
X101655238Y-85177380D02*
X101083809Y-85748809D01*
X102083809Y-85510714D02*
X102845714Y-85796428D01*
X102083809Y-86082142D01*
X96036190Y-79160714D02*
X95274285Y-79446428D01*
X96036190Y-79732142D01*
X96464761Y-78922619D02*
X96512380Y-78875000D01*
X96607619Y-78827380D01*
X96845714Y-78827380D01*
X96940952Y-78875000D01*
X96988571Y-78922619D01*
X97036190Y-79017857D01*
X97036190Y-79113095D01*
X96988571Y-79255952D01*
X96417142Y-79827380D01*
X97036190Y-79827380D01*
X97369523Y-78827380D02*
X98036190Y-78827380D01*
X97607619Y-79827380D01*
X98607619Y-78827380D02*
X98702857Y-78827380D01*
X98798095Y-78875000D01*
X98845714Y-78922619D01*
X98893333Y-79017857D01*
X98940952Y-79208333D01*
X98940952Y-79446428D01*
X98893333Y-79636904D01*
X98845714Y-79732142D01*
X98798095Y-79779761D01*
X98702857Y-79827380D01*
X98607619Y-79827380D01*
X98512380Y-79779761D01*
X98464761Y-79732142D01*
X98417142Y-79636904D01*
X98369523Y-79446428D01*
X98369523Y-79208333D01*
X98417142Y-79017857D01*
X98464761Y-78922619D01*
X98512380Y-78875000D01*
X98607619Y-78827380D01*
X99560000Y-78827380D02*
X99655238Y-78827380D01*
X99750476Y-78875000D01*
X99798095Y-78922619D01*
X99845714Y-79017857D01*
X99893333Y-79208333D01*
X99893333Y-79446428D01*
X99845714Y-79636904D01*
X99798095Y-79732142D01*
X99750476Y-79779761D01*
X99655238Y-79827380D01*
X99560000Y-79827380D01*
X99464761Y-79779761D01*
X99417142Y-79732142D01*
X99369523Y-79636904D01*
X99321904Y-79446428D01*
X99321904Y-79208333D01*
X99369523Y-79017857D01*
X99417142Y-78922619D01*
X99464761Y-78875000D01*
X99560000Y-78827380D01*
X101083809Y-79827380D02*
X101083809Y-78827380D01*
X101655238Y-79827380D02*
X101226666Y-79255952D01*
X101655238Y-78827380D02*
X101083809Y-79398809D01*
X102083809Y-79160714D02*
X102845714Y-79446428D01*
X102083809Y-79732142D01*
D11*
X201930000Y-105410000D02*
X203200000Y-105410000D01*
D10*
G36*
X202565000Y-105410000D02*
G01*
X201930000Y-104140000D01*
X203200000Y-104140000D01*
X202565000Y-105410000D01*
G37*
X202565000Y-105410000D02*
X201930000Y-104140000D01*
X203200000Y-104140000D01*
X202565000Y-105410000D01*
D11*
X202565000Y-103505000D02*
X202565000Y-106045000D01*
X203200000Y-80010000D02*
X204470000Y-80010000D01*
D10*
G36*
X203835000Y-80010000D02*
G01*
X203200000Y-78740000D01*
X204470000Y-78740000D01*
X203835000Y-80010000D01*
G37*
X203835000Y-80010000D02*
X203200000Y-78740000D01*
X204470000Y-78740000D01*
X203835000Y-80010000D01*
D11*
X203835000Y-78105000D02*
X203835000Y-80645000D01*
X201295000Y-86360000D02*
X202565000Y-86360000D01*
D10*
G36*
X201930000Y-86360000D02*
G01*
X201295000Y-85090000D01*
X202565000Y-85090000D01*
X201930000Y-86360000D01*
G37*
X201930000Y-86360000D02*
X201295000Y-85090000D01*
X202565000Y-85090000D01*
X201930000Y-86360000D01*
D11*
X201930000Y-84455000D02*
X201930000Y-86995000D01*
X203200000Y-92710000D02*
X204470000Y-92710000D01*
D10*
G36*
X203835000Y-92710000D02*
G01*
X203200000Y-91440000D01*
X204470000Y-91440000D01*
X203835000Y-92710000D01*
G37*
X203835000Y-92710000D02*
X203200000Y-91440000D01*
X204470000Y-91440000D01*
X203835000Y-92710000D01*
D11*
X203835000Y-90805000D02*
X203835000Y-93345000D01*
X203200000Y-99060000D02*
X204470000Y-99060000D01*
D10*
G36*
X203835000Y-99060000D02*
G01*
X203200000Y-97790000D01*
X204470000Y-97790000D01*
X203835000Y-99060000D01*
G37*
X203835000Y-99060000D02*
X203200000Y-97790000D01*
X204470000Y-97790000D01*
X203835000Y-99060000D01*
D11*
X203835000Y-97155000D02*
X203835000Y-99695000D01*
X183515000Y-105410000D02*
X184785000Y-105410000D01*
D10*
G36*
X184150000Y-105410000D02*
G01*
X183515000Y-104140000D01*
X184785000Y-104140000D01*
X184150000Y-105410000D01*
G37*
X184150000Y-105410000D02*
X183515000Y-104140000D01*
X184785000Y-104140000D01*
X184150000Y-105410000D01*
D11*
X184150000Y-103505000D02*
X184150000Y-106045000D01*
X187960000Y-99060000D02*
X189230000Y-99060000D01*
D10*
G36*
X188595000Y-99060000D02*
G01*
X187960000Y-97790000D01*
X189230000Y-97790000D01*
X188595000Y-99060000D01*
G37*
X188595000Y-99060000D02*
X187960000Y-97790000D01*
X189230000Y-97790000D01*
X188595000Y-99060000D01*
D11*
X188595000Y-97155000D02*
X188595000Y-99695000D01*
X187960000Y-92710000D02*
X189230000Y-92710000D01*
D10*
G36*
X188595000Y-92710000D02*
G01*
X187960000Y-91440000D01*
X189230000Y-91440000D01*
X188595000Y-92710000D01*
G37*
X188595000Y-92710000D02*
X187960000Y-91440000D01*
X189230000Y-91440000D01*
X188595000Y-92710000D01*
D11*
X188595000Y-90805000D02*
X188595000Y-93345000D01*
X183515000Y-86360000D02*
X184785000Y-86360000D01*
D10*
G36*
X184150000Y-86360000D02*
G01*
X183515000Y-85090000D01*
X184785000Y-85090000D01*
X184150000Y-86360000D01*
G37*
X184150000Y-86360000D02*
X183515000Y-85090000D01*
X184785000Y-85090000D01*
X184150000Y-86360000D01*
D11*
X184150000Y-84455000D02*
X184150000Y-86995000D01*
X146685000Y-86360000D02*
X147955000Y-86360000D01*
D10*
G36*
X147320000Y-86360000D02*
G01*
X146685000Y-85090000D01*
X147955000Y-85090000D01*
X147320000Y-86360000D01*
G37*
X147320000Y-86360000D02*
X146685000Y-85090000D01*
X147955000Y-85090000D01*
X147320000Y-86360000D01*
D11*
X147320000Y-84455000D02*
X147320000Y-86995000D01*
X172085000Y-80010000D02*
X173355000Y-80010000D01*
D10*
G36*
X172720000Y-80010000D02*
G01*
X172085000Y-78740000D01*
X173355000Y-78740000D01*
X172720000Y-80010000D01*
G37*
X172720000Y-80010000D02*
X172085000Y-78740000D01*
X173355000Y-78740000D01*
X172720000Y-80010000D01*
D11*
X172720000Y-78105000D02*
X172720000Y-80645000D01*
X165100000Y-86360000D02*
X166370000Y-86360000D01*
D10*
G36*
X165735000Y-86360000D02*
G01*
X165100000Y-85090000D01*
X166370000Y-85090000D01*
X165735000Y-86360000D01*
G37*
X165735000Y-86360000D02*
X165100000Y-85090000D01*
X166370000Y-85090000D01*
X165735000Y-86360000D01*
D11*
X165735000Y-84455000D02*
X165735000Y-86995000D01*
X156210000Y-80010000D02*
X157480000Y-80010000D01*
D10*
G36*
X156845000Y-80010000D02*
G01*
X156210000Y-78740000D01*
X157480000Y-78740000D01*
X156845000Y-80010000D01*
G37*
X156845000Y-80010000D02*
X156210000Y-78740000D01*
X157480000Y-78740000D01*
X156845000Y-80010000D01*
D11*
X156845000Y-78105000D02*
X156845000Y-80645000D01*
X140335000Y-80010000D02*
X141605000Y-80010000D01*
D10*
G36*
X140970000Y-80010000D02*
G01*
X140335000Y-78740000D01*
X141605000Y-78740000D01*
X140970000Y-80010000D01*
G37*
X140970000Y-80010000D02*
X140335000Y-78740000D01*
X141605000Y-78740000D01*
X140970000Y-80010000D01*
D11*
X140970000Y-78105000D02*
X140970000Y-80645000D01*
X156210000Y-92710000D02*
X157480000Y-92710000D01*
D10*
G36*
X156845000Y-92710000D02*
G01*
X156210000Y-91440000D01*
X157480000Y-91440000D01*
X156845000Y-92710000D01*
G37*
X156845000Y-92710000D02*
X156210000Y-91440000D01*
X157480000Y-91440000D01*
X156845000Y-92710000D01*
D11*
X156845000Y-90805000D02*
X156845000Y-93345000D01*
X156210000Y-99060000D02*
X157480000Y-99060000D01*
D10*
G36*
X156845000Y-99060000D02*
G01*
X156210000Y-97790000D01*
X157480000Y-97790000D01*
X156845000Y-99060000D01*
G37*
X156845000Y-99060000D02*
X156210000Y-97790000D01*
X157480000Y-97790000D01*
X156845000Y-99060000D01*
D11*
X156845000Y-97155000D02*
X156845000Y-99695000D01*
X165735000Y-105410000D02*
X167005000Y-105410000D01*
D10*
G36*
X166370000Y-105410000D02*
G01*
X165735000Y-104140000D01*
X167005000Y-104140000D01*
X166370000Y-105410000D01*
G37*
X166370000Y-105410000D02*
X165735000Y-104140000D01*
X167005000Y-104140000D01*
X166370000Y-105410000D01*
D11*
X166370000Y-103505000D02*
X166370000Y-106045000D01*
X147320000Y-105410000D02*
X148590000Y-105410000D01*
D10*
G36*
X147955000Y-105410000D02*
G01*
X147320000Y-104140000D01*
X148590000Y-104140000D01*
X147955000Y-105410000D01*
G37*
X147955000Y-105410000D02*
X147320000Y-104140000D01*
X148590000Y-104140000D01*
X147955000Y-105410000D01*
D11*
X147955000Y-103505000D02*
X147955000Y-106045000D01*
X92710000Y-105410000D02*
X93980000Y-105410000D01*
D10*
G36*
X93345000Y-105410000D02*
G01*
X92710000Y-104140000D01*
X93980000Y-104140000D01*
X93345000Y-105410000D01*
G37*
X93345000Y-105410000D02*
X92710000Y-104140000D01*
X93980000Y-104140000D01*
X93345000Y-105410000D01*
D11*
X93345000Y-103505000D02*
X93345000Y-106045000D01*
X140335000Y-92710000D02*
X141605000Y-92710000D01*
D10*
G36*
X140970000Y-92710000D02*
G01*
X140335000Y-91440000D01*
X141605000Y-91440000D01*
X140970000Y-92710000D01*
G37*
X140970000Y-92710000D02*
X140335000Y-91440000D01*
X141605000Y-91440000D01*
X140970000Y-92710000D01*
D11*
X140970000Y-90805000D02*
X140970000Y-93345000D01*
X140335000Y-99060000D02*
X141605000Y-99060000D01*
D10*
G36*
X140970000Y-99060000D02*
G01*
X140335000Y-97790000D01*
X141605000Y-97790000D01*
X140970000Y-99060000D01*
G37*
X140970000Y-99060000D02*
X140335000Y-97790000D01*
X141605000Y-97790000D01*
X140970000Y-99060000D01*
D11*
X140970000Y-97155000D02*
X140970000Y-99695000D01*
X128905000Y-105410000D02*
X130175000Y-105410000D01*
D10*
G36*
X129540000Y-105410000D02*
G01*
X128905000Y-104140000D01*
X130175000Y-104140000D01*
X129540000Y-105410000D01*
G37*
X129540000Y-105410000D02*
X128905000Y-104140000D01*
X130175000Y-104140000D01*
X129540000Y-105410000D01*
D11*
X129540000Y-103505000D02*
X129540000Y-106045000D01*
X124460000Y-99060000D02*
X125730000Y-99060000D01*
D10*
G36*
X125095000Y-99060000D02*
G01*
X124460000Y-97790000D01*
X125730000Y-97790000D01*
X125095000Y-99060000D01*
G37*
X125095000Y-99060000D02*
X124460000Y-97790000D01*
X125730000Y-97790000D01*
X125095000Y-99060000D01*
D11*
X125095000Y-97155000D02*
X125095000Y-99695000D01*
X124460000Y-92710000D02*
X125730000Y-92710000D01*
D10*
G36*
X125095000Y-92710000D02*
G01*
X124460000Y-91440000D01*
X125730000Y-91440000D01*
X125095000Y-92710000D01*
G37*
X125095000Y-92710000D02*
X124460000Y-91440000D01*
X125730000Y-91440000D01*
X125095000Y-92710000D01*
D11*
X125095000Y-90805000D02*
X125095000Y-93345000D01*
X128905000Y-86360000D02*
X130175000Y-86360000D01*
D10*
G36*
X129540000Y-86360000D02*
G01*
X128905000Y-85090000D01*
X130175000Y-85090000D01*
X129540000Y-86360000D01*
G37*
X129540000Y-86360000D02*
X128905000Y-85090000D01*
X130175000Y-85090000D01*
X129540000Y-86360000D01*
D11*
X129540000Y-84455000D02*
X129540000Y-86995000D01*
X124460000Y-80010000D02*
X125730000Y-80010000D01*
D10*
G36*
X125095000Y-80010000D02*
G01*
X124460000Y-78740000D01*
X125730000Y-78740000D01*
X125095000Y-80010000D01*
G37*
X125095000Y-80010000D02*
X124460000Y-78740000D01*
X125730000Y-78740000D01*
X125095000Y-80010000D01*
D11*
X125095000Y-78105000D02*
X125095000Y-80645000D01*
X108585000Y-79375000D02*
X109855000Y-79375000D01*
D10*
G36*
X109220000Y-79375000D02*
G01*
X108585000Y-78105000D01*
X109855000Y-78105000D01*
X109220000Y-79375000D01*
G37*
X109220000Y-79375000D02*
X108585000Y-78105000D01*
X109855000Y-78105000D01*
X109220000Y-79375000D01*
D11*
X109220000Y-77470000D02*
X109220000Y-80010000D01*
X110490000Y-86360000D02*
X111760000Y-86360000D01*
D10*
G36*
X111125000Y-86360000D02*
G01*
X110490000Y-85090000D01*
X111760000Y-85090000D01*
X111125000Y-86360000D01*
G37*
X111125000Y-86360000D02*
X110490000Y-85090000D01*
X111760000Y-85090000D01*
X111125000Y-86360000D01*
D11*
X111125000Y-84455000D02*
X111125000Y-86995000D01*
X108585000Y-92710000D02*
X109855000Y-92710000D01*
D10*
G36*
X109220000Y-92710000D02*
G01*
X108585000Y-91440000D01*
X109855000Y-91440000D01*
X109220000Y-92710000D01*
G37*
X109220000Y-92710000D02*
X108585000Y-91440000D01*
X109855000Y-91440000D01*
X109220000Y-92710000D01*
D11*
X109220000Y-90805000D02*
X109220000Y-93345000D01*
X108585000Y-99060000D02*
X109855000Y-99060000D01*
D10*
G36*
X109220000Y-99060000D02*
G01*
X108585000Y-97790000D01*
X109855000Y-97790000D01*
X109220000Y-99060000D01*
G37*
X109220000Y-99060000D02*
X108585000Y-97790000D01*
X109855000Y-97790000D01*
X109220000Y-99060000D01*
D11*
X109220000Y-97155000D02*
X109220000Y-99695000D01*
X110490000Y-105410000D02*
X111760000Y-105410000D01*
D10*
G36*
X111125000Y-105410000D02*
G01*
X110490000Y-104140000D01*
X111760000Y-104140000D01*
X111125000Y-105410000D01*
G37*
X111125000Y-105410000D02*
X110490000Y-104140000D01*
X111760000Y-104140000D01*
X111125000Y-105410000D01*
D11*
X111125000Y-103505000D02*
X111125000Y-106045000D01*
X92710000Y-99060000D02*
X93980000Y-99060000D01*
D10*
G36*
X93345000Y-99060000D02*
G01*
X92710000Y-97790000D01*
X93980000Y-97790000D01*
X93345000Y-99060000D01*
G37*
X93345000Y-99060000D02*
X92710000Y-97790000D01*
X93980000Y-97790000D01*
X93345000Y-99060000D01*
D11*
X93345000Y-97155000D02*
X93345000Y-99695000D01*
X92710000Y-92710000D02*
X93980000Y-92710000D01*
D10*
G36*
X93345000Y-92710000D02*
G01*
X92710000Y-91440000D01*
X93980000Y-91440000D01*
X93345000Y-92710000D01*
G37*
X93345000Y-92710000D02*
X92710000Y-91440000D01*
X93980000Y-91440000D01*
X93345000Y-92710000D01*
D11*
X93345000Y-90805000D02*
X93345000Y-93345000D01*
X92710000Y-86360000D02*
X93980000Y-86360000D01*
D10*
G36*
X93345000Y-86360000D02*
G01*
X92710000Y-85090000D01*
X93980000Y-85090000D01*
X93345000Y-86360000D01*
G37*
X93345000Y-86360000D02*
X92710000Y-85090000D01*
X93980000Y-85090000D01*
X93345000Y-86360000D01*
D11*
X93345000Y-84455000D02*
X93345000Y-86995000D01*
X93345000Y-78105000D02*
X93345000Y-80645000D01*
X92710000Y-80010000D02*
X93980000Y-80010000D01*
D10*
G36*
X93345000Y-80010000D02*
G01*
X92710000Y-78740000D01*
X93980000Y-78740000D01*
X93345000Y-80010000D01*
G37*
X93345000Y-80010000D02*
X92710000Y-78740000D01*
X93980000Y-78740000D01*
X93345000Y-80010000D01*
D11*
%TO.C,D1*%
X91972500Y-81835000D02*
X91972500Y-77775000D01*
X88802500Y-81835000D02*
X91972500Y-81835000D01*
X88802500Y-77775000D02*
X88802500Y-81835000D01*
%TO.C,D2*%
X107847500Y-81835000D02*
X107847500Y-77775000D01*
X104677500Y-81835000D02*
X107847500Y-81835000D01*
X104677500Y-77775000D02*
X104677500Y-81835000D01*
%TO.C,D3*%
X120552500Y-77775000D02*
X120552500Y-81835000D01*
X120552500Y-81835000D02*
X123722500Y-81835000D01*
X123722500Y-81835000D02*
X123722500Y-77775000D01*
%TO.C,D4*%
X139597500Y-81835000D02*
X139597500Y-77775000D01*
X136427500Y-81835000D02*
X139597500Y-81835000D01*
X136427500Y-77775000D02*
X136427500Y-81835000D01*
%TO.C,D5*%
X152302500Y-77775000D02*
X152302500Y-81835000D01*
X152302500Y-81835000D02*
X155472500Y-81835000D01*
X155472500Y-81835000D02*
X155472500Y-77775000D01*
%TO.C,D6*%
X171347500Y-81835000D02*
X171347500Y-77775000D01*
X168177500Y-81835000D02*
X171347500Y-81835000D01*
X168177500Y-77775000D02*
X168177500Y-81835000D01*
%TO.C,D7*%
X184052500Y-77775000D02*
X184052500Y-81835000D01*
X184052500Y-81835000D02*
X187222500Y-81835000D01*
X187222500Y-81835000D02*
X187222500Y-77775000D01*
%TO.C,D8*%
X203097500Y-81835000D02*
X203097500Y-77775000D01*
X199927500Y-81835000D02*
X203097500Y-81835000D01*
X199927500Y-77775000D02*
X199927500Y-81835000D01*
%TO.C,D9*%
X91972500Y-100885000D02*
X91972500Y-96825000D01*
X88802500Y-100885000D02*
X91972500Y-100885000D01*
X88802500Y-96825000D02*
X88802500Y-100885000D01*
%TO.C,D10*%
X104677500Y-96825000D02*
X104677500Y-100885000D01*
X104677500Y-100885000D02*
X107847500Y-100885000D01*
X107847500Y-100885000D02*
X107847500Y-96825000D01*
%TO.C,D11*%
X123722500Y-100885000D02*
X123722500Y-96825000D01*
X120552500Y-100885000D02*
X123722500Y-100885000D01*
X120552500Y-96825000D02*
X120552500Y-100885000D01*
%TO.C,D12*%
X139597500Y-100885000D02*
X139597500Y-96825000D01*
X136427500Y-100885000D02*
X139597500Y-100885000D01*
X136427500Y-96825000D02*
X136427500Y-100885000D01*
%TO.C,D13*%
X152302500Y-96825000D02*
X152302500Y-100885000D01*
X152302500Y-100885000D02*
X155472500Y-100885000D01*
X155472500Y-100885000D02*
X155472500Y-96825000D01*
%TO.C,D14*%
X168177500Y-96825000D02*
X168177500Y-100885000D01*
X168177500Y-100885000D02*
X171347500Y-100885000D01*
X171347500Y-100885000D02*
X171347500Y-96825000D01*
%TO.C,D15*%
X187222500Y-100885000D02*
X187222500Y-96825000D01*
X184052500Y-100885000D02*
X187222500Y-100885000D01*
X184052500Y-96825000D02*
X184052500Y-100885000D01*
%TO.C,D16*%
X199927500Y-96825000D02*
X199927500Y-100885000D01*
X199927500Y-100885000D02*
X203097500Y-100885000D01*
X203097500Y-100885000D02*
X203097500Y-96825000D01*
%TO.C,D17*%
X88802500Y-84125000D02*
X88802500Y-88185000D01*
X88802500Y-88185000D02*
X91972500Y-88185000D01*
X91972500Y-88185000D02*
X91972500Y-84125000D01*
%TO.C,D18*%
X106836500Y-84125000D02*
X106836500Y-88185000D01*
X106836500Y-88185000D02*
X110006500Y-88185000D01*
X110006500Y-88185000D02*
X110006500Y-84125000D01*
%TO.C,D19*%
X125124500Y-84125000D02*
X125124500Y-88185000D01*
X125124500Y-88185000D02*
X128294500Y-88185000D01*
X128294500Y-88185000D02*
X128294500Y-84125000D01*
%TO.C,D20*%
X143158500Y-84125000D02*
X143158500Y-88185000D01*
X143158500Y-88185000D02*
X146328500Y-88185000D01*
X146328500Y-88185000D02*
X146328500Y-84125000D01*
%TO.C,D21*%
X164616500Y-88185000D02*
X164616500Y-84125000D01*
X161446500Y-88185000D02*
X164616500Y-88185000D01*
X161446500Y-84125000D02*
X161446500Y-88185000D01*
%TO.C,D22*%
X179480500Y-84125000D02*
X179480500Y-88185000D01*
X179480500Y-88185000D02*
X182650500Y-88185000D01*
X182650500Y-88185000D02*
X182650500Y-84125000D01*
%TO.C,D23*%
X200938500Y-88185000D02*
X200938500Y-84125000D01*
X197768500Y-88185000D02*
X200938500Y-88185000D01*
X197768500Y-84125000D02*
X197768500Y-88185000D01*
%TO.C,D24*%
X91972500Y-107235000D02*
X91972500Y-103175000D01*
X88802500Y-107235000D02*
X91972500Y-107235000D01*
X88802500Y-103175000D02*
X88802500Y-107235000D01*
%TO.C,D25*%
X106836500Y-103175000D02*
X106836500Y-107235000D01*
X106836500Y-107235000D02*
X110006500Y-107235000D01*
X110006500Y-107235000D02*
X110006500Y-103175000D01*
%TO.C,D26*%
X128294500Y-107235000D02*
X128294500Y-103175000D01*
X125124500Y-107235000D02*
X128294500Y-107235000D01*
X125124500Y-103175000D02*
X125124500Y-107235000D01*
%TO.C,D27*%
X143158500Y-103175000D02*
X143158500Y-107235000D01*
X143158500Y-107235000D02*
X146328500Y-107235000D01*
X146328500Y-107235000D02*
X146328500Y-103175000D01*
%TO.C,D28*%
X164616500Y-107235000D02*
X164616500Y-103175000D01*
X161446500Y-107235000D02*
X164616500Y-107235000D01*
X161446500Y-103175000D02*
X161446500Y-107235000D01*
%TO.C,D29*%
X179480500Y-103175000D02*
X179480500Y-107235000D01*
X179480500Y-107235000D02*
X182650500Y-107235000D01*
X182650500Y-107235000D02*
X182650500Y-103175000D01*
%TO.C,D30*%
X200938500Y-107235000D02*
X200938500Y-103175000D01*
X197768500Y-107235000D02*
X200938500Y-107235000D01*
X197768500Y-103175000D02*
X197768500Y-107235000D01*
%TO.C,D31*%
X92009000Y-94535000D02*
X92009000Y-90475000D01*
X88839000Y-94535000D02*
X92009000Y-94535000D01*
X88839000Y-90475000D02*
X88839000Y-94535000D01*
%TO.C,D32*%
X104587000Y-90475000D02*
X104587000Y-94535000D01*
X104587000Y-94535000D02*
X107757000Y-94535000D01*
X107757000Y-94535000D02*
X107757000Y-90475000D01*
%TO.C,D33*%
X123759000Y-94535000D02*
X123759000Y-90475000D01*
X120589000Y-94535000D02*
X123759000Y-94535000D01*
X120589000Y-90475000D02*
X120589000Y-94535000D01*
%TO.C,D34*%
X136337000Y-90475000D02*
X136337000Y-94535000D01*
X136337000Y-94535000D02*
X139507000Y-94535000D01*
X139507000Y-94535000D02*
X139507000Y-90475000D01*
%TO.C,D35*%
X152339000Y-90475000D02*
X152339000Y-94535000D01*
X152339000Y-94535000D02*
X155509000Y-94535000D01*
X155509000Y-94535000D02*
X155509000Y-90475000D01*
%TO.C,D36*%
X171257000Y-94535000D02*
X171257000Y-90475000D01*
X168087000Y-94535000D02*
X171257000Y-94535000D01*
X168087000Y-90475000D02*
X168087000Y-94535000D01*
%TO.C,D37*%
X184089000Y-90475000D02*
X184089000Y-94535000D01*
X184089000Y-94535000D02*
X187259000Y-94535000D01*
X187259000Y-94535000D02*
X187259000Y-90475000D01*
%TO.C,D38*%
X203007000Y-94535000D02*
X203007000Y-90475000D01*
X199837000Y-94535000D02*
X203007000Y-94535000D01*
X199837000Y-90475000D02*
X199837000Y-94535000D01*
%TO.C,R1*%
X87016000Y-80102064D02*
X87016000Y-78647936D01*
X85196000Y-80102064D02*
X85196000Y-78647936D01*
%TO.C,R2*%
X85196000Y-99152064D02*
X85196000Y-97697936D01*
X87016000Y-99152064D02*
X87016000Y-97697936D01*
%TO.C,R3*%
X87016000Y-86452064D02*
X87016000Y-84997936D01*
X85196000Y-86452064D02*
X85196000Y-84997936D01*
%TO.C,R4*%
X85450000Y-105502064D02*
X85450000Y-104047936D01*
X87270000Y-105502064D02*
X87270000Y-104047936D01*
%TO.C,R5*%
X87016000Y-92802064D02*
X87016000Y-91347936D01*
X85196000Y-92802064D02*
X85196000Y-91347936D01*
%TO.C,R6*%
X145140000Y-92802064D02*
X145140000Y-91347936D01*
X146960000Y-92802064D02*
X146960000Y-91347936D01*
%TO.C,R1*%
D12*
X84240714Y-80160714D02*
X84907380Y-80160714D01*
X83859761Y-80398809D02*
X84574047Y-80636904D01*
X84574047Y-80017857D01*
X84907380Y-79065476D02*
X84431190Y-79398809D01*
X84907380Y-79636904D02*
X83907380Y-79636904D01*
X83907380Y-79255952D01*
X83955000Y-79160714D01*
X84002619Y-79113095D01*
X84097857Y-79065476D01*
X84240714Y-79065476D01*
X84335952Y-79113095D01*
X84383571Y-79160714D01*
X84431190Y-79255952D01*
X84431190Y-79636904D01*
X83907380Y-78732142D02*
X83907380Y-78065476D01*
X84907380Y-78494047D01*
%TO.C,R2*%
X84240714Y-99210714D02*
X84907380Y-99210714D01*
X83859761Y-99448809D02*
X84574047Y-99686904D01*
X84574047Y-99067857D01*
X84907380Y-98115476D02*
X84431190Y-98448809D01*
X84907380Y-98686904D02*
X83907380Y-98686904D01*
X83907380Y-98305952D01*
X83955000Y-98210714D01*
X84002619Y-98163095D01*
X84097857Y-98115476D01*
X84240714Y-98115476D01*
X84335952Y-98163095D01*
X84383571Y-98210714D01*
X84431190Y-98305952D01*
X84431190Y-98686904D01*
X83907380Y-97782142D02*
X83907380Y-97115476D01*
X84907380Y-97544047D01*
%TO.C,R3*%
X84240714Y-86510714D02*
X84907380Y-86510714D01*
X83859761Y-86748809D02*
X84574047Y-86986904D01*
X84574047Y-86367857D01*
X84907380Y-85415476D02*
X84431190Y-85748809D01*
X84907380Y-85986904D02*
X83907380Y-85986904D01*
X83907380Y-85605952D01*
X83955000Y-85510714D01*
X84002619Y-85463095D01*
X84097857Y-85415476D01*
X84240714Y-85415476D01*
X84335952Y-85463095D01*
X84383571Y-85510714D01*
X84431190Y-85605952D01*
X84431190Y-85986904D01*
X83907380Y-85082142D02*
X83907380Y-84415476D01*
X84907380Y-84844047D01*
%TO.C,R4*%
X84240714Y-105560714D02*
X84907380Y-105560714D01*
X83859761Y-105798809D02*
X84574047Y-106036904D01*
X84574047Y-105417857D01*
X84907380Y-104465476D02*
X84431190Y-104798809D01*
X84907380Y-105036904D02*
X83907380Y-105036904D01*
X83907380Y-104655952D01*
X83955000Y-104560714D01*
X84002619Y-104513095D01*
X84097857Y-104465476D01*
X84240714Y-104465476D01*
X84335952Y-104513095D01*
X84383571Y-104560714D01*
X84431190Y-104655952D01*
X84431190Y-105036904D01*
X83907380Y-104132142D02*
X83907380Y-103465476D01*
X84907380Y-103894047D01*
%TO.C,R5*%
X84240714Y-92860714D02*
X84907380Y-92860714D01*
X83859761Y-93098809D02*
X84574047Y-93336904D01*
X84574047Y-92717857D01*
X84907380Y-91765476D02*
X84431190Y-92098809D01*
X84907380Y-92336904D02*
X83907380Y-92336904D01*
X83907380Y-91955952D01*
X83955000Y-91860714D01*
X84002619Y-91813095D01*
X84097857Y-91765476D01*
X84240714Y-91765476D01*
X84335952Y-91813095D01*
X84383571Y-91860714D01*
X84431190Y-91955952D01*
X84431190Y-92336904D01*
X83907380Y-91432142D02*
X83907380Y-90765476D01*
X84907380Y-91194047D01*
%TO.C,R6*%
X147740714Y-92860714D02*
X148407380Y-92860714D01*
X147359761Y-93098809D02*
X148074047Y-93336904D01*
X148074047Y-92717857D01*
X148407380Y-91765476D02*
X147931190Y-92098809D01*
X148407380Y-92336904D02*
X147407380Y-92336904D01*
X147407380Y-91955952D01*
X147455000Y-91860714D01*
X147502619Y-91813095D01*
X147597857Y-91765476D01*
X147740714Y-91765476D01*
X147835952Y-91813095D01*
X147883571Y-91860714D01*
X147931190Y-91955952D01*
X147931190Y-92336904D01*
X147407380Y-91432142D02*
X147407380Y-90765476D01*
X148407380Y-91194047D01*
%TD*%
M02*
